<svg xmlns="http://www.w3.org/2000/svg" xmlns:xlink="http://www.w3.org/1999/xlink" xmlns:inkscape="http://www.inkscape.org/namespaces/inkscape" version="1.1" width="116" height="117" viewBox="0 0 116 117">
<defs>
<path id="font_1_5" d="M.20599365 .3996582H.2999878C.31999208 .3996582 .32998658 .3996582 .32998658 .41966249 .32998658 .43066407 .31999208 .43066407 .3019867 .43066407H.21398926C.25 .5724945 .25498963 .59246829 .25498963 .59846499 .25498963 .61546328 .24299622 .62545779 .22599793 .62545779 .22299195 .62545779 .19499207 .62446597 .18598938 .58947756L.14698792 .43066407H.052993776C.032989503 .43066407 .022994996 .43066407 .022994996 .4116516 .022994996 .3996582 .0309906 .3996582 .050994874 .3996582H.13899231C.066986087 .11608887 .06298828 .099121097 .06298828 .08114624 .06298828 .02722168 .100997928-.0107421879 .15499878-.0107421879 .25698854-.0107421879 .31399537 .13505554 .31399537 .14305115 .31399537 .1530304 .30599977 .1530304 .3019867 .1530304 .29299928 .1530304 .2919922 .15003968 .2869873 .13905335 .24398804 .035217287 .19099427 .011245728 .15699768 .011245728 .13598633 .011245728 .12599182 .024230957 .12599182 .057174684 .12599182 .08114624 .12799073 .088134769 .13198853 .10510254L.20599365 .3996582Z"/>
<path id="font_1_4" d="M.47099305 .3773346C.47200013 .3833313 .47399903 .38833619 .47399903 .39535523 .47399903 .41236878 .46199037 .42237855 .44499208 .42237855 .43499757 .42237855 .4079895 .41537477 .4039917 .3793335 .38598634 .41636659 .35099793 .4423828 .31098939 .4423828 .19699097 .4423828 .07299805 .30226136 .07299805 .15812683 .07299805 .059020997 .13398743 0 .20599365 0 .2649994 0 .31199647 .04701233 .32199098 .058029176L.32299806 .057022096C.3019867-.031982423 .2899933-.07295227 .2899933-.07495117 .28599549-.08395386 .2519989-.18309021 .1459961-.18309021 .1269989-.18309021 .09399414-.18206787 .06599426-.17297364 .09599304-.16394043 .10699463-.13793946 .10699463-.12094116 .10699463-.10494995 .09599304-.0859375 .068984989-.0859375 .04699707-.0859375 .01499939-.10394287 .01499939-.14395142 .01499939-.18508911 .051986696-.20507813 .147995-.20507813 .272995-.20507813 .34498597-.12693787 .3600006-.06695557L.47099305 .3773346M.34098817 .12809754C.33499146 .10206604 .31199647 .077041629 .2899933 .058029176 .2689972 .040008546 .23799134 .021987915 .20899964 .021987915 .15899658 .021987915 .14399719 .074035648 .14399719 .11407471 .14399719 .16212464 .17298889 .28024293 .19999695 .33128358 .22698975 .38034059 .269989 .42037965 .31199647 .42037965 .37799073 .42037965 .3919983 .33929444 .3919983 .33428956 .3919983 .32928468 .3899994 .3232727 .3889923 .3192749L.34098817 .12809754Z"/>
<path id="font_2_1" d="M.33099366-.2400055C.33099366-.23701477 .33099366-.23500061 .31399537-.21800232 .18899536-.0920105 .15699768 .09700012 .15699768 .25 .15699768 .42399598 .19499207 .59799197 .31799317 .72299197 .33099366 .73498538 .33099366 .7369995 .33099366 .73999026 .33099366 .746994 .32699586 .75 .32099916 .75 .31098939 .75 .22099304 .6819916 .1619873 .5549927 .11099243 .44499208 .09899902 .33399964 .09899902 .25 .09899902 .17199707 .10998535 .050994874 .16499329-.06201172 .22499085-.18501282 .31098939-.25 .32099916-.25 .32699586-.25 .33099366-.24700928 .33099366-.2400055Z"/>
<path id="font_2_2" d="M.2889862 .25C.2889862 .32798768 .27799989 .44898988 .22299195 .56199648 .16299439 .68499758 .07699585 .75 .066986087 .75 .06098938 .75 .056991579 .74598696 .056991579 .73999026 .056991579 .7369995 .056991579 .73498538 .07598877 .71699526 .17399597 .6179962 .23098755 .45899964 .23098755 .25 .23098755 .07899475 .19400025-.09700012 .069992069-.2230072 .056991579-.23500061 .056991579-.23701477 .056991579-.2400055 .056991579-.2460022 .06098938-.25 .066986087-.25 .07699585-.25 .16699219-.18200684 .22599793-.055007936 .2769928 .054992677 .2889862 .16600037 .2889862 .25Z"/>
<path id="font_1_1" d="M.37298585 .37835694C.35499574 .41537477 .32598878 .4423828 .2809906 .4423828 .1639862 .4423828 .039993287 .29533387 .039993287 .14929199 .039993287 .055267335 .09498596-.0107421879 .17298889-.0107421879 .19299317-.0107421879 .24299622-.0067443849 .30299378 .06427002 .31098939 .022247315 .34599305-.0107421879 .3939972-.0107421879 .42900086-.0107421879 .45199586 .012252808 .46798707 .044265748 .4850006 .08027649 .49798585 .14129639 .49798585 .14329529 .49798585 .1532898 .4889984 .1532898 .48599244 .1532898 .47599793 .1532898 .47499085 .14929199 .47200013 .13528443 .45498658 .07026672 .43699647 .011245728 .3959961 .011245728 .36898805 .011245728 .3659973 .037261964 .3659973 .057266237 .3659973 .07926941 .36799623 .08728027 .3789978 .13128662 .3899994 .17329407 .3919983 .18330384 .40098573 .22131348L.43699647 .36135865C.44400025 .38935853 .44400025 .39135743 .44400025 .39537049 .44400025 .41236878 .43199159 .42237855 .4149933 .42237855 .3909912 .42237855 .37599183 .4003601 .37298585 .37835694M.30799867 .119277957C.30299378 .10127258 .30299378 .09927368 .28799439 .08227539 .24398804 .027252198 .20298767 .011245728 .1749878 .011245728 .125 .011245728 .11099243 .06626892 .11099243 .105285648 .11099243 .1552887 .14299011 .27833558 .1659851 .32434083 .19699097 .38336183 .24198914 .42037965 .28199769 .42037965 .34700013 .42037965 .36099244 .3383484 .36099244 .33235169 .36099244 .32633973 .35899354 .32034303 .35798646 .31533814L.30799867 .119277957Z"/>
<path id="font_1_2" d="M.23899842 .68333438C.23899842 .6843262 .23899842 .69433596 .22599793 .69433596 .20298767 .69433596 .12998963 .6863251 .10398865 .6843262 .09599304 .68333438 .084991458 .6823273 .084991458 .6643219 .084991458 .6523285 .09399414 .6523285 .10899353 .6523285 .15699768 .6523285 .15899658 .6453247 .15899658 .6353302 .15899658 .6283264 .1499939 .5943451 .14498902 .573349L.06298828 .24731446C.050994874 .1973114 .04699707 .18130493 .04699707 .14628601 .04699707 .05126953 .099990848-.0107421879 .17399597-.0107421879 .2919922-.0107421879 .4149933 .1382904 .4149933 .28233338 .4149933 .37335206 .3619995 .4423828 .28199769 .4423828 .23599243 .4423828 .19499207 .41337586 .16499329 .38235475L.23899842 .68333438M.14498902 .30534364C.15098572 .3273468 .15098572 .3293457 .1599884 .3403473 .20899964 .405365 .2539978 .42037965 .27999879 .42037965 .31599427 .42037965 .34298707 .3903656 .34298707 .32633973 .34298707 .26733399 .30999757 .15229798 .2919922 .11428833 .25898744 .04725647 .21299744 .011245728 .17399597 .011245728 .13999939 .011245728 .10699463 .038253786 .10699463 .11227417 .10699463 .13128662 .10699463 .15029907 .12298584 .21331787L.14498902 .30534364Z"/>
<path id="font_1_3" d="M.3959961 .37998963C.37998963 .37998963 .3659973 .37998963 .35198976 .36598207 .33599855 .35098268 .33399964 .33398438 .33399964 .3269806 .33399964 .30297853 .35198976 .2919922 .37098695 .2919922 .3999939 .2919922 .4269867 .315979 .4269867 .35598756 .4269867 .40522767 .37998963 .4423828 .30899049 .4423828 .17399597 .4423828 .040985109 .2989807 .040985109 .15811157 .040985109 .06819153 .09899902-.0107421879 .20298767-.0107421879 .34599305-.0107421879 .42999269 .09516907 .42999269 .107162479 .42999269 .11315918 .42399598 .120147708 .41799928 .120147708 .41299439 .120147708 .41099549 .1181488 .40499879 .1101532 .32598878 .011245728 .21699524 .011245728 .20498657 .011245728 .14199829 .011245728 .114990238 .06021118 .114990238 .120147708 .114990238 .1611023 .1349945 .25801087 .16899109 .31999208 .19999695 .37698365 .25498963 .42037965 .30999757 .42037965 .34399415 .42037965 .38198854 .40724183 .3959961 .37998963Z"/>
</defs>
<path transform="matrix(1.00002,0,0,-1,29.393227,86.855)" stroke-width=".29887" stroke-linecap="butt" stroke-miterlimit="10" stroke-linejoin="miter" fill="none" stroke="#666666" d="M-28.3468 0H81.72287"/>
<path transform="matrix(1.00002,0,0,-1,111.11774,86.855)" d="M3.31755 0C2.33455 .1843 .73723 .73723-.3686 1.38231V-1.38231C.73723-.73723 2.33455-.1843 3.31755 0" fill="#666666"/>
<use data-text="t" xlink:href="#font_1_5" transform="matrix(9.962799,0,0,-9.9626,105.54975,96.453)" fill="#666666"/>
<path transform="matrix(1.00002,0,0,-1,29.393227,86.855)" stroke-width=".29887" stroke-linecap="butt" stroke-miterlimit="10" stroke-linejoin="miter" fill="none" stroke="#666666" d="M0-28.3468V81.72287"/>
<path transform="matrix(0,-1,-1.00002,-0,29.393227,5.1321337)" d="M3.31755 0C2.33455 .1843 .73723 .73723-.3686 1.38231V-1.38231C.73723-.73723 2.33455-.1843 3.31755 0" fill="#666666"/>
<use data-text="g" xlink:href="#font_1_4" transform="matrix(9.962799,0,0,-9.9626,9.466827,11.392006)" fill="#666666"/>
<use data-text="(" xlink:href="#font_2_1" transform="matrix(9.962799,0,0,-9.9626,14.575935,11.392006)" fill="#666666"/>
<use data-text="t" xlink:href="#font_1_5" transform="matrix(9.962799,0,0,-9.9626,18.450013,11.392006)" fill="#666666"/>
<use data-text=")" xlink:href="#font_2_2" transform="matrix(9.962799,0,0,-9.9626,22.04808,11.392006)" fill="#666666"/>
<path transform="matrix(1.00002,0,0,-1,29.393227,86.855)" stroke-width="1.99255" stroke-linecap="butt" stroke-miterlimit="10" stroke-linejoin="miter" fill="none" stroke="#0074c8" d="M0 0H25.51193"/>
<path transform="matrix(1.00002,0,0,-1,29.393227,86.855)" stroke-width="1.99255" stroke-linecap="butt" stroke-miterlimit="10" stroke-linejoin="miter" fill="none" stroke="#0074c8" d="M28.3468 28.3468H53.85875"/>
<path transform="matrix(1.00002,0,0,-1,29.393227,86.855)" stroke-width="1.99255" stroke-linecap="butt" stroke-miterlimit="10" stroke-linejoin="miter" fill="none" stroke="#0074c8" d="M56.69362 0H77.14987"/>
<path transform="matrix(1.00002,0,0,-1,106.54465,86.855)" d="M7.89055 0C5.55257 .43835 1.75345 1.75345-.87672 3.28772V-3.28772C1.75345-1.75345 5.55257-.43835 7.89055 0" fill="#0074c8"/>
<path transform="matrix(1.00002,0,0,-1,29.393227,86.855)" d="M2.98883 0C2.98883 1.6507 1.6507 2.98883 0 2.98883-1.6507 2.98883-2.98883 1.6507-2.98883 0-2.98883-1.6507-1.6507-2.98883 0-2.98883 1.6507-2.98883 2.98883-1.6507 2.98883 0ZM0 0" fill="#0074c8"/>
<path transform="matrix(1.00002,0,0,-1,29.393227,86.855)" d="M31.33563 28.3468C31.33563 29.99751 29.99751 31.33563 28.3468 31.33563 26.69609 31.33563 25.35797 29.99751 25.35797 28.3468 25.35797 26.69609 26.69609 25.35797 28.3468 25.35797 29.99751 25.35797 31.33563 26.69609 31.33563 28.3468ZM28.3468 28.3468" fill="#0074c8"/>
<path transform="matrix(1.00002,0,0,-1,29.393227,86.855)" stroke-width=".3985" stroke-linecap="butt" stroke-miterlimit="10" stroke-linejoin="miter" fill="none" stroke="#0074c8" d="M59.68245 28.3468C59.68245 29.99751 58.34431 31.33563 56.69362 31.33563 55.04291 31.33563 53.70479 29.99751 53.70479 28.3468 53.70479 26.69609 55.04291 25.35797 56.69362 25.35797 58.34431 25.35797 59.68245 26.69609 59.68245 28.3468ZM56.69362 28.3468"/>
<path transform="matrix(1.00002,0,0,-1,29.393227,86.855)" d="M59.68245 0C59.68245 1.6507 58.34431 2.98883 56.69362 2.98883 55.04291 2.98883 53.70479 1.6507 53.70479 0 53.70479-1.6507 55.04291-2.98883 56.69362-2.98883 58.34431-2.98883 59.68245-1.6507 59.68245 0ZM56.69362 0" fill="#0074c8"/>
<path transform="matrix(1.00002,0,0,-1,29.393227,86.855)" stroke-width=".3985" stroke-linecap="butt" stroke-miterlimit="10" stroke-linejoin="miter" fill="none" stroke="#0074c8" d="M31.33563 0C31.33563 1.6507 29.99751 2.98883 28.3468 2.98883 26.69609 2.98883 25.35797 1.6507 25.35797 0 25.35797-1.6507 26.69609-2.98883 28.3468-2.98883 29.99751-2.98883 31.33563-1.6507 31.33563 0ZM28.3468 0"/>
<path transform="matrix(1.00002,0,0,-1,29.393227,86.855)" stroke-width=".3985" stroke-linecap="butt" stroke-miterlimit="10" stroke-linejoin="miter" fill="none" stroke="#000000" d="M28.3468 1.99255V-1.99255"/>
<use data-text="a" xlink:href="#font_1_1" transform="matrix(9.962799,0,0,-9.9626,55.107744,96.657009)"/>
<path transform="matrix(1.00002,0,0,-1,29.393227,86.855)" stroke-width=".3985" stroke-linecap="butt" stroke-miterlimit="10" stroke-linejoin="miter" fill="none" stroke="#000000" d="M56.69362 1.99255V-1.99255"/>
<use data-text="b" xlink:href="#font_1_2" transform="matrix(9.962799,0,0,-9.9626,83.95032,99.286)"/>
<path transform="matrix(1.00002,0,0,-1,29.393227,86.855)" stroke-width=".3985" stroke-linecap="butt" stroke-miterlimit="10" stroke-linejoin="miter" fill="none" stroke="#000000" d="M-1.99255 28.3468H1.99255"/>
<use data-text="c" xlink:href="#font_1_3" transform="matrix(9.962799,0,0,-9.9626,17.309983,60.653005)"/>
</svg>
