<svg xmlns="http://www.w3.org/2000/svg" xmlns:xlink="http://www.w3.org/1999/xlink" xmlns:inkscape="http://www.inkscape.org/namespaces/inkscape" version="1.1" width="217" height="165" viewBox="0 0 217 165">
<defs>
<path id="font_1_2" d="M.1269989 .07699585 .23298645 .18003845C.3889923 .31811524 .44898988 .3721466 .44898988 .47216798 .44898988 .5860901 .35899354 .6660156 .23699951 .6660156 .12399292 .6660156 .049987794 .57411196 .049987794 .48516847 .049987794 .4291687 .099990848 .4291687 .102996829 .4291687 .11999512 .4291687 .15499878 .44117738 .15499878 .48217774 .15499878 .5081787 .13699341 .5341797 .101989749 .5341797 .09399414 .5341797 .09199524 .5341797 .08898926 .5331726 .11199951 .59806826 .1659851 .63500979 .22399903 .63500979 .31498719 .63500979 .35798646 .5541382 .35798646 .47216798 .35798646 .39215089 .30799867 .31311036 .25299073 .25108338L.06098938 .036987306C.049987794 .025985718 .049987794 .023986817 .049987794 0H.42099L.44898988 .17404175H.42399598C.4189911 .14402771 .4119873 .1000061 .4019928 .084991458 .394989 .07699585 .32899476 .07699585 .30699159 .07699585H.1269989Z"/>
<path id="font_1_3" d="M.2939911 .16503906V.07800293C.2939911 .041992189 .2919922 .0309906 .21798706 .0309906H.19699097V0C.23799134 .0029907227 .2899933 .0029907227 .33198548 .0029907227 .37399293 .0029907227 .4269867 .0029907227 .46798707 0V.0309906H.44699098C.37298585 .0309906 .37098695 .041992189 .37098695 .07800293V.16503906H.47099305V.19602967H.37098695V.65075686C.37098695 .67074587 .37098695 .6767578 .35499574 .6767578 .34599305 .6767578 .34298707 .6767578 .33499146 .66474917L.027999878 .19602967V.16503906H.2939911M.2999878 .19602967H.055999757L.2999878 .5688019V.19602967Z"/>
<path id="font_1_4" d="M.13198853 .327713V.35173036C.13198853 .6047821 .2559967 .64100649 .30699159 .64100649 .33099366 .64100649 .37298585 .634964 .394989 .6007538 .37998963 .6007538 .33999635 .6007538 .33999635 .5557556 .33999635 .524765 .3639984 .5097656 .38598634 .5097656 .4019928 .5097656 .43199159 .51875308 .43199159 .5577545 .43199159 .6178589 .3880005 .6660156 .30499269 .6660156 .1769867 .6660156 .041992189 .5367584 .041992189 .31570436 .041992189 .048553468 .1579895-.022460938 .25099183-.022460938 .3619995-.022460938 .45700074 .07156372 .45700074 .2036438 .45700074 .33070375 .36799623 .4267578 .25698854 .4267578 .18899536 .4267578 .1519928 .37573243 .13198853 .327713M.25099183 .0055389406C.18798828 .0055389406 .1579895 .06556702 .1519928 .080566409 .13398743 .127594 .13398743 .2076416 .13398743 .22564698 .13398743 .30369569 .1659851 .40374757 .2559967 .40374757 .27198792 .40374757 .31799317 .40374757 .34899903 .34172059 .36698915 .30470277 .36698915 .2536621 .36698915 .20463562 .36698915 .15661621 .36698915 .10658264 .34999085 .0705719 .31999208 .010528564 .27398683 .0055389406 .25099183 .0055389406Z"/>
<path id="font_1_5" d="M.16299439 .4569702C.116989139 .486969 .11299133 .52098086 .11299133 .5379791 .11299133 .598999 .17799378 .64100649 .24899292 .64100649 .32199098 .64100649 .38598634 .58898928 .38598634 .51698306 .38598634 .45996095 .34700013 .4119568 .2869873 .37695313L.16299439 .4569702M.30899049 .36193849C.3809967 .3989563 .42999269 .45095826 .42999269 .51698306 .42999269 .6090088 .34098817 .6660156 .25 .6660156 .1499939 .6660156 .068984989 .59199526 .068984989 .49897767 .068984989 .4809723 .070999149 .43595887 .11299133 .38894654 .12399292 .37695313 .16099549 .35194398 .18598938 .33494569 .12799073 .30592347 .041992189 .24984741 .041992189 .15072632 .041992189 .04458618 .14399719-.022460938 .24899292-.022460938 .3619995-.022460938 .45700074 .06060791 .45700074 .16773987 .45700074 .20379639 .44599916 .24885559 .4079895 .2909088 .3889923 .31193543 .37298585 .3219452 .30899049 .36193849M.20899964 .3199463 .33198548 .24183655C.3600006 .2228241 .40699769 .19277954 .40699769 .13169861 .40699769 .05760193 .33198548 .0055389406 .25 .0055389406 .1639862 .0055389406 .09199524 .067611698 .09199524 .15072632 .09199524 .20880127 .12399292 .27288819 .20899964 .3199463Z"/>
<path id="font_2_1" d="M.6589966 .23046875C.6759949 .23046875 .69400027 .23046875 .69400027 .25045777 .69400027 .27046205 .6759949 .27046205 .6589966 .27046205H.117996219C.100997928 .27046205 .08299255 .27046205 .08299255 .25045777 .08299255 .23046875 .100997928 .23046875 .117996219 .23046875H.6589966Z"/>
<path id="font_1_1" d="M.2939911 .64004519C.2939911 .66400149 .2939911 .6660156 .2709961 .6660156 .20899964 .60227969 .12098694 .60227969 .08898926 .60227969V.57128909C.10899353 .57128909 .16799927 .57128909 .21998596 .5972748V.07902527C.21998596 .042999269 .21699524 .0309906 .1269989 .0309906H.09498596V0C.12998963 .0029907227 .21699524 .0029907227 .25698854 .0029907227 .29699708 .0029907227 .38398744 .0029907227 .4189911 0V.0309906H.3869934C.29699708 .0309906 .2939911 .041992189 .2939911 .07902527V.64004519Z"/>
<clipPath id="clip_3">
<path transform="matrix(1.00006,0,0,-1.00003,18.593277,163.19742)" d="M0 0H194.26912V161.39484H0Z"/>
</clipPath>
</defs>
<path transform="matrix(1.00006,0,0,-1.00003,18.593277,163.19742)" stroke-width=".19925" stroke-linecap="butt" stroke-miterlimit="10" stroke-linejoin="miter" fill="none" stroke="#7f807f" d="M48.56728 78.57133V82.82347M97.13455 78.57133V82.82347M145.70183 78.57133V82.82347M194.26912 78.57133V82.82347"/>
<path transform="matrix(1.00006,0,0,-1.00003,18.593277,163.19742)" stroke-width=".19925" stroke-linecap="butt" stroke-miterlimit="10" stroke-linejoin="miter" fill="none" stroke="#7f807f" d="M-2.12593 26.89914H2.12593M-2.12593 134.4957H2.12593"/>
<path transform="matrix(1.00006,0,0,-1.00003,18.593277,163.19742)" stroke-width=".3985" stroke-linecap="butt" stroke-miterlimit="10" stroke-linejoin="miter" fill="none" stroke="#000000" d="M0 80.69742H192.2766"/>
<path transform="matrix(1.00006,0,0,-1.00003,210.88141,82.497577)" d="M1.99252 0-1.19551 1.59401 0 0-1.19551-1.59401"/>
<path transform="matrix(1.00006,0,0,-1.00003,18.593277,163.19742)" stroke-width=".3985" stroke-linecap="butt" stroke-miterlimit="10" stroke-linejoin="miter" fill="none" stroke="#000000" d="M0 0V159.40232"/>
<path transform="matrix(0,-1.00003,-1.00006,-0,18.593277,3.7903138)" d="M1.99252 0-1.19551 1.59401 0 0-1.19551-1.59401"/>
<use data-text="2" xlink:href="#font_1_2" transform="matrix(9.963197,0,0,-9.962899,64.673038,94.56436)"/>
<use data-text="4" xlink:href="#font_1_3" transform="matrix(9.963197,0,0,-9.962899,113.24295,94.56436)"/>
<use data-text="6" xlink:href="#font_1_4" transform="matrix(9.963197,0,0,-9.962899,161.81287,94.56436)"/>
<use data-text="8" xlink:href="#font_1_5" transform="matrix(9.963197,0,0,-9.962899,210.38278,94.56436)"/>
<use data-text="&#x2212;" xlink:href="#font_2_1" transform="matrix(9.963197,0,0,-9.962899,.2161789,139.0927)"/>
<use data-text="1" xlink:href="#font_1_1" transform="matrix(9.963197,0,0,-9.962899,7.965637,139.0927)"/>
<use data-text="1" xlink:href="#font_1_1" transform="matrix(9.963197,0,0,-9.962899,7.965637,31.908478)"/>
<g clip-path="url(#clip_3)">
<path transform="matrix(1.00006,0,0,-1.00003,18.593277,163.19742)" stroke-width=".79701" stroke-linecap="butt" stroke-miterlimit="10" stroke-linejoin="miter" fill="none" stroke="#000000" d="M0 80.69742H3.17706 6.35414 9.53122 12.7083 15.88538 19.06245 22.23953 25.41661 28.59369 31.77075 34.94783 38.1249 41.30197 44.47905 47.65613 50.8332 54.01028 57.18736 60.36444 63.5415 66.71857 69.89565 73.07272 76.2498"/>
<path transform="matrix(1.00006,0,0,-1.00003,18.593277,163.19742)" stroke-width="1.19553" stroke-linecap="butt" stroke-miterlimit="10" stroke-linejoin="miter" fill="none" stroke="#0000ff" d="M76.25063 80.78294 76.84367 79.47026 77.43672 78.15651 78.02979 76.84544 78.62283 75.53708 79.2159 74.23032 79.80894 72.92787 80.402 71.63132 80.99506 70.33855 81.58812 69.05276 82.18115 67.77399 82.77422 66.50165 83.36728 65.23901 83.96034 63.98497 84.55338 62.74115 85.14644 61.50809 85.7395 60.2874 86.33255 59.0775 86.9256 57.88048 87.51866 56.69853 88.11171 55.5295 88.70477 54.37605 89.29782 53.23877 89.89088 52.116 90.48393 51.01314 91.077 49.92532 91.67004 48.85744 92.26309 47.80836 92.85616 46.77759 93.44922 45.76888 94.04225 44.78006 94.63531 43.81276 95.22838 42.86699 95.82144 41.94382 96.41447 41.04646 97.00754 40.16794 97.6006 39.31738 98.19365 38.49104 98.7867 37.68729 99.37976 36.9126 99.97281 36.16104 100.56587 35.43797 101.15892 34.74184 101.75198 34.07205 102.34503 33.43185 102.9381 32.81694 103.53114 32.23322 104.12419 31.67749 104.71725 31.1508 105.31032 30.65479 105.90337 30.1862 106.49641 29.75043 107.08948 29.34372 107.68254 28.96713 108.27559 28.62282 108.86864 28.30757 109.4617 28.02567 110.05475 27.77441 110.64781 27.55331 111.24086 27.36609 111.83391 27.20847 112.42697 27.08527 113.02003 26.99274 113.61307 26.93141 114.20613 26.90396 114.7992 26.90666 115.39226 26.94324 115.98529 27.01157 116.57835 27.1111 117.17142 27.24342 117.76447 27.40643 118.35751 27.6028 118.95058 27.8293 119.54362 28.08699 120.13669 28.37857 120.72974 28.69922 121.3228 29.05212 121.91585 29.43465 122.50891 29.84727 123.10196 30.29271 123.695 30.76616 124.28807 31.27023 124.88113 31.80338 125.47417 32.36557 126.06723 32.95735 126.6603 33.5771 127.25336 34.22484 127.84639 34.90054 128.43946 35.60207 129.03252 36.33266 129.62557 37.08852 130.21862 37.87181 130.81168 38.68094 131.40473 39.51215 131.99779 40.37074 132.59084 41.2509 133.1839 42.15633 133.77695 43.08488 134.37001 44.03387 134.96306 45.00763 135.5561 45.99966 136.14917 47.01538 136.74224 48.04938 137.33527 49.10275 137.92833 50.17657 138.5214 51.26598 139.11446 52.37476 139.70749 53.5013 140.30055 54.64073 140.89362 55.79958 141.48667 56.9713 142.07971 58.157 142.67278 59.3567 143.26583 60.56877 143.85889 61.7927 144.45195 63.02843 145.04499 64.27548 145.63805 65.53168 146.23111 66.79593 146.82418 68.06934 147.4172 69.3492 148.01027 70.63713 148.60334 71.93098 149.19638 73.22913 149.78943 74.5332 150.38249 75.83943 150.97554 77.14941 151.5686 78.46155 152.16165 79.7737 152.75472 81.08745 153.34777 82.40012 153.94083 83.7128 154.53388 85.02332 155.12693 86.33116 155.71999 87.6363 156.31305 88.93661 156.90608 90.23315 157.49915 91.52322 158.09221 92.80632 158.68527 94.08243 159.2783 95.35098 159.87137 96.61093 160.46443 97.86067 161.05748 99.10179 161.65053 100.33 162.24359 101.54745 162.83664 102.75146 163.4297 103.94363 164.02275 105.12238 164.61582 106.28386 165.20886 107.433 165.80193 108.56493 166.39498 109.68016 166.98802 110.77818 167.58109 111.85791 168.17415 112.91989 168.76718 113.96196 169.36025 114.98466 169.95331 115.988 170.54637 116.96713 171.1394 117.9269 171.73247 118.86406 172.32553 119.77809 172.91858 120.67006 173.51163 121.53676 174.10469 122.37923 174.69774 123.19806 175.2908 123.99051 175.88385 124.75926 176.4769 125.49792 177.06996 126.21184 177.66303 126.89937 178.25608 127.55731 178.84912 128.19107 179.44219 128.79146 180.03525 129.36656 180.62828 129.911 181.22135 130.42746 181.8144 130.91434 182.40746 131.37 183.00052 131.79555 183.59357 132.1915 184.18663 132.55573 184.77968 132.89144 185.37274 133.19216 185.96579 133.46384 186.55884 133.70487 187.1519 133.91197 187.74497 134.09113 188.338 134.23314 188.93106 134.34613 189.52413 134.42844 190.11719 134.47579 190.71022 134.49462 191.30329 134.47739 191.89635 134.43006 192.4894 134.35097 193.08245 134.23854 193.6755 134.09757 194.26856 133.92005"/>
</g>
</svg>
