<svg xmlns="http://www.w3.org/2000/svg" xmlns:xlink="http://www.w3.org/1999/xlink" xmlns:inkscape="http://www.inkscape.org/namespaces/inkscape" version="1.1" width="229" height="169" viewBox="0 0 229 169">
<defs>
<path id="font_1_2" d="M.2939911 .64004519C.2939911 .66400149 .2939911 .6660156 .2709961 .6660156 .20899964 .60227969 .12098694 .60227969 .08898926 .60227969V.57128909C.10899353 .57128909 .16799927 .57128909 .21998596 .5972748V.07902527C.21998596 .042999269 .21699524 .0309906 .1269989 .0309906H.09498596V0C.12998963 .0029907227 .21699524 .0029907227 .25698854 .0029907227 .29699708 .0029907227 .38398744 .0029907227 .4189911 0V.0309906H.3869934C.29699708 .0309906 .2939911 .041992189 .2939911 .07902527V.64004519Z"/>
<path id="font_1_3" d="M.1269989 .07699585 .23298645 .18003845C.3889923 .31811524 .44898988 .3721466 .44898988 .47216798 .44898988 .5860901 .35899354 .6660156 .23699951 .6660156 .12399292 .6660156 .049987794 .57411196 .049987794 .48516847 .049987794 .4291687 .099990848 .4291687 .102996829 .4291687 .11999512 .4291687 .15499878 .44117738 .15499878 .48217774 .15499878 .5081787 .13699341 .5341797 .101989749 .5341797 .09399414 .5341797 .09199524 .5341797 .08898926 .5331726 .11199951 .59806826 .1659851 .63500979 .22399903 .63500979 .31498719 .63500979 .35798646 .5541382 .35798646 .47216798 .35798646 .39215089 .30799867 .31311036 .25299073 .25108338L.06098938 .036987306C.049987794 .025985718 .049987794 .023986817 .049987794 0H.42099L.44898988 .17404175H.42399598C.4189911 .14402771 .4119873 .1000061 .4019928 .084991458 .394989 .07699585 .32899476 .07699585 .30699159 .07699585H.1269989Z"/>
<path id="font_1_4" d="M.2899933 .35191346C.37199403 .37893678 .42999269 .4490509 .42999269 .52809146 .42999269 .6100464 .34199525 .6660156 .24598694 .6660156 .14498902 .6660156 .068984989 .60606387 .068984989 .53009036 .068984989 .49710084 .09098816 .47808839 .11999512 .47808839 .15098572 .47808839 .17098999 .50009158 .17098999 .5290985 .17098999 .57910159 .12399292 .57910159 .10899353 .57910159 .13999939 .62802127 .20599365 .64100649 .24198914 .64100649 .2829895 .64100649 .33799745 .6190338 .33799745 .5290985 .33799745 .51708987 .33599855 .45906068 .30999757 .4149933 .27999879 .36691285 .24598694 .36390687 .22099304 .36291505 .21299744 .36190797 .18899536 .35990907 .18199158 .35990907 .17399597 .35890199 .16699219 .35791017 .16699219 .3479004 .16699219 .33691407 .17399597 .33691407 .19099427 .33691407H.23498535C.31698609 .33691407 .35398866 .2686615 .35398866 .17037964 .35398866 .034469606 .2849884 .0055389406 .24099732 .0055389406 .19799805 .0055389406 .12298584 .022491456 .08799744 .08137512 .12298584 .07637024 .1539917 .09837341 .1539917 .1363678 .1539917 .17237854 .1269989 .19238281 .09799194 .19238281 .07398987 .19238281 .041992189 .17837525 .041992189 .1343689 .041992189 .043441774 .1349945-.022460938 .24398804-.022460938 .3659973-.022460938 .45700074 .06838989 .45700074 .17037964 .45700074 .252594 .3939972 .33088685 .2899933 .35191346Z"/>
<path id="font_1_5" d="M.2939911 .16503906V.07800293C.2939911 .041992189 .2919922 .0309906 .21798706 .0309906H.19699097V0C.23799134 .0029907227 .2899933 .0029907227 .33198548 .0029907227 .37399293 .0029907227 .4269867 .0029907227 .46798707 0V.0309906H.44699098C.37298585 .0309906 .37098695 .041992189 .37098695 .07800293V.16503906H.47099305V.19602967H.37098695V.65075686C.37098695 .67074587 .37098695 .6767578 .35499574 .6767578 .34599305 .6767578 .34298707 .6767578 .33499146 .66474917L.027999878 .19602967V.16503906H.2939911M.2999878 .19602967H.055999757L.2999878 .5688019V.19602967Z"/>
<clipPath id="clip_2">
<path transform="matrix(1.00003,0,0,-1.00008,11.84491,155.40316)" d="M0 0H215.95413V153.59349H0Z"/>
</clipPath>
<path id="font_3_4" d="M.5369873 .5947571C.522995 .5818329 .48999024 .55400088 .48999024 .5361023 .48999024 .5261078 .5 .516098 .5099945 .516098 .5189972 .516098 .5239868 .5231018 .5289917 .5290985 .54100039 .5440674 .56399539 .5718994 .60798647 .59376528 .61499026 .59776309 .625 .6027527 .625 .61476138 .625 .62475588 .6179962 .62976077 .61099246 .6347656 .58898928 .6497803 .5779877 .66781619 .56999209 .69184878 .56799319 .7008667 .56399539 .7138672 .5499878 .7138672 .5359955 .7138672 .5299988 .7008667 .5299988 .69285586 .5299988 .68785098 .5379944 .65579226 .55400088 .6347656H.21699524C.19999695 .6347656 .18199158 .6347656 .18199158 .61476138 .18199158 .5947571 .19999695 .5947571 .21699524 .5947571H.5369873Z"/>
<path id="font_3_1" d="M.34999085 .056259157C.36099244 .015258789 .3959961-.0107421879 .43899537-.0107421879 .47399903-.0107421879 .49699403 .012252808 .5130005 .044265748 .5299988 .08027649 .54299929 .14129639 .54299929 .14329529 .54299929 .1532898 .5339966 .1532898 .5309906 .1532898 .5209961 .1532898 .519989 .14929199 .5169983 .13528443 .5029907 .07926941 .48399354 .011245728 .44198609 .011245728 .42099 .011245728 .41099549 .024261475 .41099549 .057266237 .41099549 .07926941 .4229889 .12628174 .43099977 .16130066L.45899964 .2693329C.46199037 .28433229 .47200013 .32234193 .47599793 .3373413 .48098756 .36035157 .4909973 .3983612 .4909973 .40437318 .4909973 .42237855 .47698976 .43138124 .46199037 .43138124 .45700074 .43138124 .43099977 .43037416 .4229889 .3963623 .4039917 .323349 .3600006 .14828491 .34799195 .09527588 .34700013 .091278079 .30699159 .011245728 .23399353 .011245728 .18199158 .011245728 .17199707 .056259157 .17199707 .09327698 .17199707 .14929199 .19999695 .22831726 .22599793 .29733277 .23799134 .3273468 .24299622 .34135438 .24299622 .36035157 .24299622 .405365 .21099854 .4423828 .16099549 .4423828 .06599426 .4423828 .0289917 .29733277 .0289917 .28833009 .0289917 .27833558 .038986207 .27833558 .040985109 .27833558 .050994874 .27833558 .051986696 .28033448 .056991579 .29634095 .08198547 .38336183 .11999512 .42037965 .1579895 .42037965 .16699219 .42037965 .18299866 .41937257 .18299866 .38735963 .18299866 .36335755 .17199707 .3343506 .1659851 .31933595 .1289978 .2203064 .10798645 .15829468 .10798645 .10928345 .10798645 .014251709 .1769867-.0107421879 .23098755-.0107421879 .29699708-.0107421879 .33299256 .03425598 .34999085 .056259157Z"/>
<path id="font_3_2" d="M.46798707 .37236024C.46798707 .42637635 .44198609 .4423828 .42399598 .4423828 .39898683 .4423828 .375 .41636659 .375 .3943634 .375 .38136292 .37998963 .3753662 .3909912 .36434938 .4119873 .3443451 .4249878 .31834413 .4249878 .28233338 .4249878 .24032593 .3639984 .011245728 .24699402 .011245728 .19599915 .011245728 .17298889 .04626465 .17298889 .09828186 .17298889 .15429688 .19999695 .22731018 .23098755 .31033326 .23799134 .3273468 .24299622 .34135438 .24299622 .36035157 .24299622 .405365 .21099854 .4423828 .16099549 .4423828 .066986087 .4423828 .0289917 .29733277 .0289917 .28833009 .0289917 .27833558 .038986207 .27833558 .040985109 .27833558 .050994874 .27833558 .051986696 .28033448 .056991579 .29634095 .085998538 .39736939 .1289978 .42037965 .1579895 .42037965 .1659851 .42037965 .18299866 .42037965 .18299866 .3883667 .18299866 .36335755 .17298889 .3363495 .1659851 .31834413 .12199402 .20230103 .10899353 .15629578 .10899353 .11328125 .10899353 .0052490236 .19699097-.0107421879 .24299622-.0107421879 .41099549-.0107421879 .46798707 .32034303 .46798707 .37236024Z"/>
<path id="font_1_1" d="M.40899659 .23046875H.6879883C.70199587 .23046875 .72099307 .23046875 .72099307 .25045777 .72099307 .27046205 .70199587 .27046205 .6879883 .27046205H.40899659V.5500183C.40899659 .56399539 .40899659 .5830078 .3889923 .5830078 .36898805 .5830078 .36898805 .56399539 .36898805 .5500183V.27046205H.08898926C.07499695 .27046205 .055999757 .27046205 .055999757 .25045777 .055999757 .23046875 .07499695 .23046875 .08898926 .23046875H.36898805V-.05000305C.36898805-.06401062 .36898805-.08300781 .3889923-.08300781 .40899659-.08300781 .40899659-.06401062 .40899659-.05000305V.23046875Z"/>
<path id="font_3_3" d="M.33399964 .30233766C.33999635 .32835389 .36299134 .42037965 .43299867 .42037965 .43798829 .42037965 .46199037 .42037965 .48298646 .40734864 .45498658 .402359 .43499757 .37734986 .43499757 .35334779 .43499757 .33735658 .44599916 .31835938 .47299195 .31835938 .49499513 .31835938 .5269928 .3363495 .5269928 .37635804 .5269928 .42837525 .46798707 .4423828 .43399049 .4423828 .37599183 .4423828 .34098817 .38935853 .32899476 .36634828 .3039856 .43237306 .25 .4423828 .22099304 .4423828 .116989139 .4423828 .05999756 .3133545 .05999756 .28834535 .05999756 .27833558 .069992069 .27833558 .07199097 .27833558 .07998657 .27833558 .08299255 .28033448 .084991458 .28933717 .11898804 .39535523 .18499756 .42037965 .21899414 .42037965 .23799134 .42037965 .272995 .4113617 .272995 .35334779 .272995 .32235719 .2559967 .25532533 .21899414 .11528015 .20298767 .053268434 .16799927 .011245728 .12399292 .011245728 .117996219 .011245728 .09498596 .011245728 .07398987 .024276734 .09899902 .029266358 .12098694 .05027771 .12098694 .07827759 .12098694 .105270389 .09899902 .11328125 .083999637 .11328125 .053985597 .11328125 .0289917 .08728027 .0289917 .055267335 .0289917 .009246826 .07899475-.0107421879 .12298584-.0107421879 .18899536-.0107421879 .22499085 .059280397 .22799683 .0652771 .23999024 .028274537 .27598573-.0107421879 .33599855-.0107421879 .43899537-.0107421879 .49598695 .118270877 .49598695 .14328003 .49598695 .1532898 .4869995 .1532898 .48399354 .1532898 .47499085 .1532898 .47299195 .14929199 .47099305 .14228821 .43798829 .03527832 .36999513 .011245728 .33799745 .011245728 .29899598 .011245728 .2829895 .043273927 .2829895 .07727051 .2829895 .09927368 .2889862 .121276859 .2999878 .16529846L.33399964 .30233766Z"/>
<path id="font_4_1" d="M.33499146 .63612368C.33499146 .6630554 .33299256 .6640625 .30499269 .6640625 .24099732 .6014404 .1499939 .6004486 .10899353 .6004486V.5644531C.1329956 .5644531 .19898987 .5644531 .2539978 .592453V.08203125C.2539978 .04899597 .2539978 .035995485 .1539917 .035995485H.115997318V0C.13398743 .0009918213 .25698854 .0039978029 .2939911 .0039978029 .32499696 .0039978029 .45098878 .0009918213 .47299195 0V.035995485H.43499757C.33499146 .035995485 .33499146 .04899597 .33499146 .08203125V.63612368Z"/>
<path id="font_4_2" d="M.5049896 .18203736H.47099305C.46798707 .16001892 .45799256 .100997928 .44499208 .09098816 .43699647 .084991458 .3600006 .084991458 .34599305 .084991458H.1619873C.2669983 .17803955 .3019867 .20603943 .3619995 .25306703 .43598939 .312088 .5049896 .374115 .5049896 .46914674 .5049896 .5900879 .39898683 .6640625 .2709961 .6640625 .14698792 .6640625 .06298828 .57710269 .06298828 .4851532 .06298828 .43414308 .10598755 .42915345 .115997318 .42915345 .13999939 .42915345 .16899109 .44615174 .16899109 .48214723 .16899109 .5001526 .1619873 .53515627 .10998535 .53515627 .14099121 .6060791 .20899964 .62805178 .2559967 .62805178 .35598756 .62805178 .4079895 .5501404 .4079895 .46914674 .4079895 .38212586 .34599305 .3130951 .31399537 .27708436L.07299805 .038986207C.06298828 .02999878 .06298828 .027999878 .06298828 0H.47499085L.5049896 .18203736Z"/>
</defs>
<path transform="matrix(1.00003,0,0,-1.00008,11.84491,155.40316)" stroke-width=".19925" stroke-linecap="butt" stroke-miterlimit="10" stroke-linejoin="miter" fill="none" stroke="#666666" d="M51.41765-2.12595V2.12595M102.8353-2.12595V2.12595M154.25295-2.12595V2.12595M205.6706-2.12595V2.12595"/>
<path transform="matrix(1.00003,0,0,-1.00008,11.84491,155.40316)" stroke-width=".19925" stroke-linecap="butt" stroke-miterlimit="10" stroke-linejoin="miter" fill="none" stroke="#666666" d="M-2.12613 36.56987H2.12613M-2.12613 73.13976H2.12613M-2.12613 109.70963H2.12613M-2.12613 146.27951H2.12613"/>
<path transform="matrix(1.00003,0,0,-1.00008,11.84491,155.40316)" stroke-width=".3985" stroke-linecap="butt" stroke-miterlimit="10" stroke-linejoin="miter" fill="none" stroke="#000000" d="M0 0H213.96161"/>
<path transform="matrix(1.00003,0,0,-1.00008,225.81295,155.40316)" d="M1.99252 0-1.19551 1.59401 0 0-1.19551-1.59401"/>
<path transform="matrix(1.00003,0,0,-1.00008,11.84491,155.40316)" stroke-width=".3985" stroke-linecap="butt" stroke-miterlimit="10" stroke-linejoin="miter" fill="none" stroke="#000000" d="M0 0V151.60097"/>
<path transform="matrix(0,-1.00008,-1.00003,-0,11.84491,3.7900544)" d="M1.99252 0-1.19551 1.59401 0 0-1.19551-1.59401"/>
<use data-text="1" xlink:href="#font_1_2" transform="matrix(9.962899,0,0,-9.963397,60.773378,167.47013)"/>
<use data-text="2" xlink:href="#font_1_3" transform="matrix(9.962899,0,0,-9.963397,112.192928,167.47013)"/>
<use data-text="3" xlink:href="#font_1_4" transform="matrix(9.962899,0,0,-9.963397,163.61147,167.47013)"/>
<use data-text="4" xlink:href="#font_1_5" transform="matrix(9.962899,0,0,-9.963397,215.031,167.47013)"/>
<use data-text="1" xlink:href="#font_1_2" transform="matrix(9.962899,0,0,-9.963397,1.2175903,122.04048)"/>
<use data-text="2" xlink:href="#font_1_3" transform="matrix(9.962899,0,0,-9.963397,1.2175903,85.46756)"/>
<use data-text="3" xlink:href="#font_1_4" transform="matrix(9.962899,0,0,-9.963397,1.2175903,48.89563)"/>
<use data-text="4" xlink:href="#font_1_5" transform="matrix(9.962899,0,0,-9.963397,1.2175903,12.322708)"/>
<g clip-path="url(#clip_2)">
<path transform="matrix(1.00003,0,0,-1.00008,11.84491,155.40316)" stroke-width="1.19553" stroke-linecap="butt" stroke-miterlimit="10" stroke-linejoin="miter" fill="none" stroke="#0000ff" d="M0 0 51.01178 108.84364"/>
<path transform="matrix(.42437277,-.9055324,-.9054872,-.42439396,62.858224,46.55082)" stroke-width=".9564" stroke-linecap="round" stroke-linejoin="round" fill="none" stroke="#0000ff" d="M-1.91284 2.55046C-1.75343 1.59402 0 .15938 .4782 0 0-.15938-1.75343-1.59402-1.91284-2.55046"/>
<path transform="matrix(1.00003,0,0,-1.00008,11.84491,155.40316)" stroke-width="1.19553" stroke-linecap="butt" stroke-miterlimit="10" stroke-linejoin="miter" fill="none" stroke="#0000ff" d="M0 0 101.93422 36.24945"/>
<path transform="matrix(.9421783,-.3350668,-.33505009,-.94222536,113.782169,119.15082)" stroke-width=".9564" stroke-linecap="round" stroke-linejoin="round" fill="none" stroke="#0000ff" d="M-1.91284 2.55046C-1.75343 1.59402 0 .15938 .4782 0 0-.15938-1.75343-1.59402-1.91284-2.55046"/>
<path transform="matrix(1.00003,0,0,-1.00008,11.84491,155.40316)" stroke-width="1.19553" stroke-linecap="butt" stroke-miterlimit="10" stroke-linejoin="miter" fill="none" stroke="#0000ff" d="M0 0 153.559 145.62145"/>
<path transform="matrix(.72559186,-.688115,-.68808069,-.7256281,165.40853,9.770081)" stroke-width=".9564" stroke-linecap="round" stroke-linejoin="round" fill="none" stroke="#0000ff" d="M-1.91284 2.55046C-1.75343 1.59402 0 .15938 .4782 0 0-.15938-1.75343-1.59402-1.91284-2.55046"/>
<path transform="matrix(1.00003,0,0,-1.00008,11.84491,155.40316)" stroke-width=".3985" stroke-linecap="butt" stroke-miterlimit="10" stroke-linejoin="miter" fill="none" stroke="#737373" d="M51.41765 109.70963 154.25295 146.27951"/>
<path transform="matrix(1.00003,0,0,-1.00008,11.84491,155.40316)" stroke-width=".3985" stroke-linecap="butt" stroke-miterlimit="10" stroke-linejoin="miter" fill="none" stroke="#737373" d="M102.8353 36.56987 154.25295 146.27951"/>
<path transform="matrix(1.00003,0,0,-1.00008,11.84491,155.40316)" d="M14.14825 63.09908H21.84407V72.20946H14.14825Z" fill="#ffffff"/>
<use data-text="&#x20d7;" xlink:href="#font_3_4" transform="matrix(9.962899,0,0,-9.963397,26.862366,91.303028)"/>
<use data-text="u" xlink:href="#font_3_1" transform="matrix(9.962899,0,0,-9.963397,26.991883,91.303028)"/>
<path transform="matrix(1.00003,0,0,-1.00008,11.84491,155.40316)" d="M65.82423 18.11812H73.00338V27.2285H65.82423Z" fill="#ffffff"/>
<use data-text="&#x20d7;" xlink:href="#font_3_4" transform="matrix(9.962899,0,0,-9.963397,78.28091,136.28763)"/>
<use data-text="v" xlink:href="#font_3_2" transform="matrix(9.962899,0,0,-9.963397,78.66946,136.28763)"/>
<path transform="matrix(1.00003,0,0,-1.00008,11.84491,155.40316)" d="M108.30194 106.56783H133.361V116.50843H108.30194Z" fill="#ffffff"/>
<use data-text="&#x20d7;" xlink:href="#font_3_4" transform="matrix(9.962899,0,0,-9.963397,121.01819,47.00049)"/>
<use data-text="u" xlink:href="#font_3_1" transform="matrix(9.962899,0,0,-9.963397,121.147708,47.00049)"/>
<use data-text="+" xlink:href="#font_1_1" transform="matrix(9.962899,0,0,-9.963397,129.06342,47.00049)"/>
<use data-text="&#x20d7;" xlink:href="#font_3_4" transform="matrix(9.962899,0,0,-9.963397,138.63973,47.00049)"/>
<use data-text="v" xlink:href="#font_3_2" transform="matrix(9.962899,0,0,-9.963397,139.02826,47.00049)"/>
</g>
<path transform="matrix(1.00003,0,0,-1.00008,11.84491,155.40316)" d="M53.21095 109.70963C53.21095 110.70006 52.40807 111.50293 51.41765 111.50293 50.42722 111.50293 49.62434 110.70006 49.62434 109.70963 49.62434 108.71921 50.42722 107.91634 51.41765 107.91634 52.40807 107.91634 53.21095 108.71921 53.21095 109.70963ZM51.41765 109.70963"/>
<path transform="matrix(1.00003,0,0,-1.00008,11.84491,155.40316)" stroke-width=".3985" stroke-linecap="butt" stroke-miterlimit="10" stroke-linejoin="miter" fill="none" stroke="#000000" d="M53.21095 109.70963C53.21095 110.70006 52.40807 111.50293 51.41765 111.50293 50.42722 111.50293 49.62434 110.70006 49.62434 109.70963 49.62434 108.71921 50.42722 107.91634 51.41765 107.91634 52.40807 107.91634 53.21095 108.71921 53.21095 109.70963ZM51.41765 109.70963"/>
<path transform="matrix(1.00003,0,0,-1.00008,11.84491,155.40316)" d="M104.6286 36.56987C104.6286 37.5603 103.82571 38.36317 102.8353 38.36317 101.84486 38.36317 101.04199 37.5603 101.04199 36.56987 101.04199 35.57945 101.84486 34.77657 102.8353 34.77657 103.82571 34.77657 104.6286 35.57945 104.6286 36.56987ZM102.8353 36.56987"/>
<path transform="matrix(1.00003,0,0,-1.00008,11.84491,155.40316)" stroke-width=".3985" stroke-linecap="butt" stroke-miterlimit="10" stroke-linejoin="miter" fill="none" stroke="#000000" d="M104.6286 36.56987C104.6286 37.5603 103.82571 38.36317 102.8353 38.36317 101.84486 38.36317 101.04199 37.5603 101.04199 36.56987 101.04199 35.57945 101.84486 34.77657 102.8353 34.77657 103.82571 34.77657 104.6286 35.57945 104.6286 36.56987ZM102.8353 36.56987"/>
<path transform="matrix(1.00003,0,0,-1.00008,11.84491,155.40316)" d="M156.04625 146.27951C156.04625 147.26993 155.24338 148.07282 154.25295 148.07282 153.26253 148.07282 152.45964 147.26993 152.45964 146.27951 152.45964 145.28908 153.26253 144.4862 154.25295 144.4862 155.24338 144.4862 156.04625 145.28908 156.04625 146.27951ZM154.25295 146.27951"/>
<path transform="matrix(1.00003,0,0,-1.00008,11.84491,155.40316)" stroke-width=".3985" stroke-linecap="butt" stroke-miterlimit="10" stroke-linejoin="miter" fill="none" stroke="#000000" d="M156.04625 146.27951C156.04625 147.26993 155.24338 148.07282 154.25295 148.07282 153.26253 148.07282 152.45964 147.26993 152.45964 146.27951 152.45964 145.28908 153.26253 144.4862 154.25295 144.4862 155.24338 144.4862 156.04625 145.28908 156.04625 146.27951ZM154.25295 146.27951"/>
<path transform="matrix(1.00003,0,0,-1.00008,11.84491,155.40316)" stroke-width=".3985" stroke-linecap="butt" stroke-miterlimit="10" stroke-linejoin="miter" fill="none" stroke="#000000" d=""/>
<use data-text="x" xlink:href="#font_3_3" transform="matrix(9.962899,0,0,-9.963397,214.16498,147.3995)"/>
<use data-text="1" xlink:href="#font_4_1" transform="matrix(6.9740097,0,0,-6.974358,219.85916,148.89365)"/>
<use data-text="x" xlink:href="#font_3_3" transform="matrix(9.962899,0,0,-9.963397,15.365013,12.56073)"/>
<use data-text="2" xlink:href="#font_4_2" transform="matrix(6.9740097,0,0,-6.974358,21.059189,14.054855)"/>
</svg>
