<svg xmlns="http://www.w3.org/2000/svg" xmlns:xlink="http://www.w3.org/1999/xlink" xmlns:inkscape="http://www.inkscape.org/namespaces/inkscape" version="1.1" width="122" height="122" viewBox="0 0 122 122">
<defs>
<path id="font_1_2" d="M.33399964 .30233766C.33999635 .32835389 .36299134 .42037965 .43299867 .42037965 .43798829 .42037965 .46199037 .42037965 .48298646 .40734864 .45498658 .402359 .43499757 .37734986 .43499757 .35334779 .43499757 .33735658 .44599916 .31835938 .47299195 .31835938 .49499513 .31835938 .5269928 .3363495 .5269928 .37635804 .5269928 .42837525 .46798707 .4423828 .43399049 .4423828 .37599183 .4423828 .34098817 .38935853 .32899476 .36634828 .3039856 .43237306 .25 .4423828 .22099304 .4423828 .116989139 .4423828 .05999756 .3133545 .05999756 .28834535 .05999756 .27833558 .069992069 .27833558 .07199097 .27833558 .07998657 .27833558 .08299255 .28033448 .084991458 .28933717 .11898804 .39535523 .18499756 .42037965 .21899414 .42037965 .23799134 .42037965 .272995 .4113617 .272995 .35334779 .272995 .32235719 .2559967 .25532533 .21899414 .11528015 .20298767 .053268434 .16799927 .011245728 .12399292 .011245728 .117996219 .011245728 .09498596 .011245728 .07398987 .024276734 .09899902 .029266358 .12098694 .05027771 .12098694 .07827759 .12098694 .105270389 .09899902 .11328125 .083999637 .11328125 .053985597 .11328125 .0289917 .08728027 .0289917 .055267335 .0289917 .009246826 .07899475-.0107421879 .12298584-.0107421879 .18899536-.0107421879 .22499085 .059280397 .22799683 .0652771 .23999024 .028274537 .27598573-.0107421879 .33599855-.0107421879 .43899537-.0107421879 .49598695 .118270877 .49598695 .14328003 .49598695 .1532898 .4869995 .1532898 .48399354 .1532898 .47499085 .1532898 .47299195 .14929199 .47099305 .14228821 .43798829 .03527832 .36999513 .011245728 .33799745 .011245728 .29899598 .011245728 .2829895 .043273927 .2829895 .07727051 .2829895 .09927368 .2889862 .121276859 .2999878 .16529846L.33399964 .30233766Z"/>
<path id="font_1_3" d="M.48599244 .38136292C.48999024 .39537049 .48999024 .39736939 .48999024 .40437318 .48999024 .42237855 .47599793 .43138124 .46099855 .43138124 .45098878 .43138124 .43499757 .42536927 .42599488 .41036988 .42399598 .405365 .41600038 .37435914 .4119873 .35635377 .40499879 .33035279 .397995 .30334474 .3919983 .27633668L.34700013 .09628296C.34298707 .08126831 .2999878 .011245728 .23399353 .011245728 .18299866 .011245728 .17199707 .055267335 .17199707 .0922699 .17199707 .1382904 .18899536 .20030213 .22299195 .28833009 .23899842 .3293457 .24299622 .3403473 .24299622 .36035157 .24299622 .405365 .21099854 .4423828 .16099549 .4423828 .06599426 .4423828 .0289917 .29733277 .0289917 .28833009 .0289917 .27833558 .038986207 .27833558 .040985109 .27833558 .050994874 .27833558 .051986696 .28033448 .056991579 .29634095 .083999637 .3903656 .12399292 .42037965 .1579895 .42037965 .1659851 .42037965 .18299866 .42037965 .18299866 .3883667 .18299866 .36335755 .17298889 .3373413 .1659851 .31834413 .12599182 .21231079 .10798645 .1552887 .10798645 .10827637 .10798645 .019256592 .17098999-.0107421879 .22999573-.0107421879 .2689972-.0107421879 .30299378 .0062561037 .33099366 .03425598 .31799317-.017745972 .30599977-.06674194 .2659912-.11973572 .23999024-.15385437 .20199585-.18309021 .1559906-.18309021 .14199829-.18309021 .09700012-.18005371 .07998657-.14074707 .09599304-.14074707 .10899353-.14074707 .12298584-.1287384 .1329956-.11973572 .14299011-.10673523 .14299011-.08773804 .14299011-.056747438 .115997318-.052734376 .10598755-.052734376 .08299255-.052734376 .049987794-.068740848 .049987794-.11773682 .049987794-.16796875 .09399414-.20507813 .1559906-.20507813 .25898744-.20507813 .3619995-.11373901 .3899994-.00074768069L.48599244 .38136292Z"/>
<path id="font_2_1" d="M.6589966 .23046875C.6759949 .23046875 .69400027 .23046875 .69400027 .25045777 .69400027 .27046205 .6759949 .27046205 .6589966 .27046205H.117996219C.100997928 .27046205 .08299255 .27046205 .08299255 .25045777 .08299255 .23046875 .100997928 .23046875 .117996219 .23046875H.6589966Z"/>
<path id="font_3_4" d="M.2939911 .64004519C.2939911 .66400149 .2939911 .6660156 .2709961 .6660156 .20899964 .60227969 .12098694 .60227969 .08898926 .60227969V.57128909C.10899353 .57128909 .16799927 .57128909 .21998596 .5972748V.07902527C.21998596 .042999269 .21699524 .0309906 .1269989 .0309906H.09498596V0C.12998963 .0029907227 .21699524 .0029907227 .25698854 .0029907227 .29699708 .0029907227 .38398744 .0029907227 .4189911 0V.0309906H.3869934C.29699708 .0309906 .2939911 .041992189 .2939911 .07902527V.64004519Z"/>
<path id="font_3_5" d="M.1269989 .07699585 .23298645 .18003845C.3889923 .31811524 .44898988 .3721466 .44898988 .47216798 .44898988 .5860901 .35899354 .6660156 .23699951 .6660156 .12399292 .6660156 .049987794 .57411196 .049987794 .48516847 .049987794 .4291687 .099990848 .4291687 .102996829 .4291687 .11999512 .4291687 .15499878 .44117738 .15499878 .48217774 .15499878 .5081787 .13699341 .5341797 .101989749 .5341797 .09399414 .5341797 .09199524 .5341797 .08898926 .5331726 .11199951 .59806826 .1659851 .63500979 .22399903 .63500979 .31498719 .63500979 .35798646 .5541382 .35798646 .47216798 .35798646 .39215089 .30799867 .31311036 .25299073 .25108338L.06098938 .036987306C.049987794 .025985718 .049987794 .023986817 .049987794 0H.42099L.44898988 .17404175H.42399598C.4189911 .14402771 .4119873 .1000061 .4019928 .084991458 .394989 .07699585 .32899476 .07699585 .30699159 .07699585H.1269989Z"/>
<clipPath id="clip_4">
<path transform="matrix(1.00006,0,0,-1,40.600595,83.1)" d="M-34.01608-34.01608V68.03217H68.03217V-34.01608ZM68.03217 68.03217"/>
</clipPath>
<path id="font_3_6" d="M.68699648 .32714845C.70199587 .32714845 .72099307 .32714845 .72099307 .34713746 .72099307 .36714173 .70199587 .36714173 .6879883 .36714173H.08898926C.07499695 .36714173 .055999757 .36714173 .055999757 .34713746 .055999757 .32714845 .07499695 .32714845 .08999634 .32714845H.68699648M.6879883 .13284302C.70199587 .13284302 .72099307 .13284302 .72099307 .15284729 .72099307 .17285156 .70199587 .17285156 .68699648 .17285156H.08999634C.07499695 .17285156 .055999757 .17285156 .055999757 .15284729 .055999757 .13284302 .07499695 .13284302 .08898926 .13284302H.6879883Z"/>
<clipPath id="clip_5">
<path transform="matrix(1.00006,0,0,-1,40.600595,83.1)" d="M-34.01608-34.01608V68.03217H68.03217V-34.01608ZM68.03217 68.03217"/>
</clipPath>
<path id="font_3_1" d="M.33099366-.2400055C.33099366-.23701477 .33099366-.23500061 .31399537-.21800232 .18899536-.0920105 .15699768 .09700012 .15699768 .25 .15699768 .42399598 .19499207 .59799197 .31799317 .72299197 .33099366 .73498538 .33099366 .7369995 .33099366 .73999026 .33099366 .746994 .32699586 .75 .32099916 .75 .31098939 .75 .22099304 .6819916 .1619873 .5549927 .11099243 .44499208 .09899902 .33399964 .09899902 .25 .09899902 .17199707 .10998535 .050994874 .16499329-.06201172 .22499085-.18501282 .31098939-.25 .32099916-.25 .32699586-.25 .33099366-.24700928 .33099366-.2400055Z"/>
<path id="font_3_3" d="M.45999146 .31976319C.45999146 .39982606 .45498658 .47988893 .41999818 .5539398 .37399293 .65000918 .2919922 .6660156 .25 .6660156 .18998719 .6660156 .116989139 .64001467 .07598877 .54693606 .04399109 .47789 .038986207 .39982606 .038986207 .31976319 .038986207 .24472046 .042999269 .15464783 .083999637 .07859802 .1269989-.0024719239 .19999695-.022460938 .24899292-.022460938 .30299378-.022460938 .3789978-.0014648438 .4229889 .09359741 .45498658 .16265869 .45999146 .2407074 .45999146 .31976319M.24899292-.00047302247C.20999146-.00047302247 .15098572 .024551392 .1329956 .12062073 .12199402 .18066406 .12199402 .2727356 .12199402 .3317871 .12199402 .39582826 .12199402 .46188355 .12998963 .5159149 .14898682 .63500979 .22399903 .64401248 .24899292 .64401248 .28199769 .64401248 .34799195 .6259918 .36698915 .52693179 .3769989 .47088624 .3769989 .39482118 .3769989 .3317871 .3769989 .25672914 .3769989 .18867493 .3659973 .12461853 .35099793 .029556275 .2939911-.00047302247 .24899292-.00047302247Z"/>
<path id="font_1_1" d="M.20298767 .0009918213C.20298767 .066986087 .17799378 .10598755 .13899231 .10598755 .10598755 .10598755 .085998538 .08099365 .085998538 .052993776 .085998538 .025985718 .10598755 0 .13899231 0 .15098572 0 .1639862 .0039978029 .17399597 .0129852299 .1769867 .01499939 .17799378 .015991211 .1789856 .015991211 .17999268 .015991211 .18099976 .01499939 .18099976 .0009918213 .18099976-.07316589 .1459961-.13328552 .11299133-.16635132 .101989749-.17736817 .101989749-.17936707 .101989749-.18237305 .101989749-.18936157 .10699463-.19335938 .11199951-.19335938 .12298584-.19335938 .20298767-.116256717 .20298767 .0009918213Z"/>
<path id="font_3_2" d="M.2889862 .25C.2889862 .32798768 .27799989 .44898988 .22299195 .56199648 .16299439 .68499758 .07699585 .75 .066986087 .75 .06098938 .75 .056991579 .74598696 .056991579 .73999026 .056991579 .7369995 .056991579 .73498538 .07598877 .71699526 .17399597 .6179962 .23098755 .45899964 .23098755 .25 .23098755 .07899475 .19400025-.09700012 .069992069-.2230072 .056991579-.23500061 .056991579-.23701477 .056991579-.2400055 .056991579-.2460022 .06098938-.25 .066986087-.25 .07699585-.25 .16699219-.18200684 .22599793-.055007936 .2769928 .054992677 .2889862 .16600037 .2889862 .25Z"/>
</defs>
<path transform="matrix(1.00006,0,0,-1,40.600595,83.1)" stroke-width=".3985" stroke-linecap="butt" stroke-miterlimit="10" stroke-linejoin="miter" fill="none" stroke="#ffffff" d="M-42.52008-42.52008V76.53616H76.53616V-42.52008ZM76.53616 76.53616"/>
<path transform="matrix(1.00006,0,0,-1,40.600595,83.1)" stroke-width=".3985" stroke-linecap="butt" stroke-miterlimit="10" stroke-linejoin="miter" fill="none" stroke="#000000" d="M-37.41788 0H70.9757"/>
<path transform="matrix(1.00006,0,0,-1,111.58055,83.1)" stroke-width=".31879" stroke-linecap="round" stroke-linejoin="round" fill="none" stroke="#000000" d="M-1.19551 1.59401C-1.09587 .99626 0 .09961 .29886 0 0-.09961-1.09587-.99626-1.19551-1.59401"/>
<use data-text="x" xlink:href="#font_1_2" transform="matrix(9.963197,0,0,-9.9626,115.55909,90.909)"/>
<path transform="matrix(1.00006,0,0,-1,40.600595,83.1)" stroke-width=".3985" stroke-linecap="butt" stroke-miterlimit="10" stroke-linejoin="miter" fill="none" stroke="#000000" d="M0-37.41788V70.9757"/>
<path transform="matrix(0,-1,-1.00006,-0,40.600595,12.124298)" stroke-width=".31879" stroke-linecap="round" stroke-linejoin="round" fill="none" stroke="#000000" d="M-1.19551 1.59401C-1.09587 .99626 0 .09961 .29886 0 0-.09961-1.09587-.99626-1.19551-1.59401"/>
<use data-text="y" xlink:href="#font_1_3" transform="matrix(9.963197,0,0,-9.9626,31.838067,6.2089998)"/>
<path transform="matrix(1.00006,0,0,-1,40.600595,83.1)" stroke-width=".3985" stroke-linecap="butt" stroke-miterlimit="10" stroke-linejoin="miter" fill="none" stroke="#000000" d="M-34.01608 2.04086V-2.04086"/>
<use data-text="&#x2212;" xlink:href="#font_2_1" transform="matrix(9.963197,0,0,-9.9626,.21717072,96.076999)"/>
<use data-text="1" xlink:href="#font_3_4" transform="matrix(9.963197,0,0,-9.9626,7.9666368,96.076999)"/>
<path transform="matrix(1.00006,0,0,-1,40.600595,83.1)" stroke-width=".3985" stroke-linecap="butt" stroke-miterlimit="10" stroke-linejoin="miter" fill="none" stroke="#000000" d="M34.01608 2.04086V-2.04086"/>
<use data-text="1" xlink:href="#font_3_4" transform="matrix(9.963197,0,0,-9.9626,72.12749,96.076999)"/>
<path transform="matrix(1.00006,0,0,-1,40.600595,83.1)" stroke-width=".3985" stroke-linecap="butt" stroke-miterlimit="10" stroke-linejoin="miter" fill="none" stroke="#000000" d="M68.03217 2.04086V-2.04086"/>
<use data-text="2" xlink:href="#font_3_5" transform="matrix(9.963197,0,0,-9.9626,106.14552,96.076999)"/>
<path transform="matrix(1.00006,0,0,-1,40.600595,83.1)" stroke-width=".3985" stroke-linecap="butt" stroke-miterlimit="10" stroke-linejoin="miter" fill="none" stroke="#000000" d="M2.04086-34.01608H-2.04086"/>
<use data-text="&#x2212;" xlink:href="#font_2_1" transform="matrix(9.963197,0,0,-9.9626,21.312439,119.910999)"/>
<use data-text="1" xlink:href="#font_3_4" transform="matrix(9.963197,0,0,-9.9626,29.061905,119.910999)"/>
<path transform="matrix(1.00006,0,0,-1,40.600595,83.1)" stroke-width=".3985" stroke-linecap="butt" stroke-miterlimit="10" stroke-linejoin="miter" fill="none" stroke="#000000" d="M2.04086 34.01608H-2.04086"/>
<use data-text="1" xlink:href="#font_3_4" transform="matrix(9.963197,0,0,-9.9626,29.061905,52.294)"/>
<path transform="matrix(1.00006,0,0,-1,40.600595,83.1)" stroke-width=".3985" stroke-linecap="butt" stroke-miterlimit="10" stroke-linejoin="miter" fill="none" stroke="#000000" d="M2.04086 68.03217H-2.04086"/>
<use data-text="2" xlink:href="#font_3_5" transform="matrix(9.963197,0,0,-9.9626,29.061905,18.278)"/>
<path transform="matrix(1.00006,0,0,-1,40.600595,83.1)" stroke-width=".3985" stroke-linecap="butt" stroke-miterlimit="10" stroke-linejoin="miter" fill="none" stroke="#cccccc" d="M-34.01608-34.01608V68.03217H68.03217V-34.01608ZM68.03217 68.03217"/>
<path transform="matrix(1.00006,0,0,-1,40.600595,83.1)" stroke-width=".19925" stroke-linecap="butt" stroke-miterlimit="10" stroke-linejoin="miter" fill="none" stroke="#e5e6e5" d="M-34.01608-34.01605H68.03217M-34.01608-17.00801H68.03217M-34.01608 0H68.03217M-34.01608 17.00801H68.03217M-34.01608 34.01605H68.03217M-34.01608 51.02408H68.03217M-34.01608 68.03212H68.03217M-34.01605-34.01608V68.03217M-17.00801-34.01608V68.03217M0-34.01608V68.03217M17.00801-34.01608V68.03217M34.01605-34.01608V68.03217M51.02408-34.01608V68.03217M68.03212-34.01608V68.03217M68.03217 68.03217"/>
<g clip-path="url(#clip_4)">
<path transform="matrix(1.00006,0,0,-1,40.600595,83.1)" stroke-width="1.19553" stroke-linecap="butt" stroke-dasharray="2.98883,2.98883" stroke-miterlimit="10" stroke-linejoin="miter" fill="none" stroke="#ff0000" d="M0-34.01608 68.03217 34.01608"/>
</g>
<use data-text="y" xlink:href="#font_1_3" transform="matrix(9.963197,0,0,-9.9626,61.12982,103.155)" fill="#ff0000"/>
<use data-text="=" xlink:href="#font_3_6" transform="matrix(9.963197,0,0,-9.9626,69.1393,103.155)" fill="#ff0000"/>
<use data-text="x" xlink:href="#font_1_2" transform="matrix(9.963197,0,0,-9.9626,79.65593,103.155)" fill="#ff0000"/>
<g clip-path="url(#clip_5)">
<path transform="matrix(1.00006,0,0,-1,40.600595,83.1)" stroke-width="1.19553" stroke-linecap="butt" stroke-miterlimit="10" stroke-linejoin="miter" fill="none" stroke="#000000" d="M-34.01608 116.89601-33.7607 115.76242-33.50533 114.64441-33.24994 113.53882-32.9946 112.44156-32.73921 111.35677-32.48384 110.27612-32.22847 109.21-31.97311 108.1553-31.71773 107.10788-31.46236 106.07082-31.207 105.04312-30.95163 104.02477-30.69626 103.01573-30.44089 102.01707-30.18552 101.02779-29.93015 100.0468-29.67479 99.07515-29.4194 98.11388-29.16403 97.1609-28.90866 96.21521-28.6533 95.283-28.39793 94.356-28.14255 93.43936-27.8872 92.53104-27.63182 91.63101-27.37645 90.74138-27.12106 89.85794-26.86572 88.98389-26.61034 88.11812-26.35497 87.26067-26.0996 86.41359-25.84424 85.5717-25.58885 84.73914-25.33348 83.91386-25.07813 83.1-24.82275 82.29132-24.56738 81.48993-24.31201 80.69682-24.05664 79.91307-23.80127 79.13657-23.54591 78.36838-23.29053 77.60541-23.03516 76.85277-22.77979 76.10847-22.52443 75.36833-22.26906 74.6375-22.01367 73.91396-21.75833 73.19768-21.50294 72.48763-21.24757 71.78587-20.99219 71.09036-20.73685 70.40315-20.48146 69.72217-20.22609 69.04845-19.97072 68.38199-19.71536 67.72177-19.45999 67.06982-19.2046 66.42415-18.94925 65.78261-18.69388 65.1504-18.4385 64.52548-18.18314 63.90573-17.92776 63.29222-17.6724 62.68599-17.41704 62.08493-17.16165 61.49219-16.90628 60.90462-16.65092 60.32433-16.39555 59.7482-16.14018 59.18036-15.8848 58.6167-15.62946 58.06233-15.37407 57.51111-15.1187 56.9682-14.86331 56.43047-14.60797 55.8969-14.35258 55.37161-14.09721 54.85051-13.84184 54.33456-13.58649 53.82695-13.33112 53.32347-13.07574 52.82623-12.82037 52.33522-12.565 51.84834-12.30963 51.36772-12.05426 50.89018-11.79889 50.42203-11.54352 49.95694-11.28816 49.49707-11.03278 49.0455-10.7774 48.59706-10.52206 48.15378-10.26668 47.71571-10.0113 47.28387-9.75592 46.85515-9.50058 46.43265-9.2452 46.01534-8.98982 45.60321-8.73444 45.19525-8.4791 44.79454-8.22371 44.39694-7.96834 44.00455-7.71297 43.61629-7.45761 43.23428-7.20224 42.85435-6.94687 42.48064-6.6915 42.11314-6.43613 41.74878-6.18076 41.38857-5.92538 41.03458-5.67001 40.68472-5.41464 40.33801-5.15929 39.99753-4.9039 39.6612-4.64853 39.32692-4.39319 38.99992-4.1378 38.67603-3.88243 38.35733-3.62704 38.0428-3.3717 37.73138-3.11632 37.42618-2.86095 37.12308-2.60556 36.82513-2.35022 36.53134-2.09483 36.24171-1.83946 35.95522-1.5841 35.67491-1.32874 35.39671-1.07336 35.12268-.818 34.85275-.56262 34.58702-.30725 34.32541-.05188 34.06798 .20345 33.82713 .45882 33.57903 .71417 33.33092 .96954 33.08905 1.22493 32.84822 1.4803 32.6136 1.73564 32.379 1.99103 32.15164 2.2464 31.93053 2.50177 31.70943 2.75713 31.48833 3.01251 31.27446 3.26788 31.06685 3.52325 30.85924 3.77861 30.65163 4.034 30.45126 4.28935 30.2582 4.54472 30.06404 4.8001 29.8772 5.05545 29.69034 5.31084 29.5035 5.56621 29.32286 5.82158 29.1495 6.07693 28.97614 6.33232 28.80276 6.58769 28.63669 6.84305 28.46954 7.09842 28.3097 7.35379 28.15709 7.60918 27.99722 7.86452 27.85085 8.1199 27.69826 8.37527 27.55188 8.63065 27.4128 8.886 27.27367 9.14139 27.13457 9.39676 27.0017 9.65213 26.86986 9.90749 26.74323 10.16286 26.61761 10.41823 26.49927 10.6736 26.37364 10.92897 26.26155 11.18433 26.14943 11.43971 26.03732 11.69508 25.9252 11.95045 25.81932 12.20581 25.7207 12.4612 25.61584 12.71657 25.5245 12.97192 25.42587 13.2273 25.33453 13.48267 25.24213 13.73805 25.15701 13.9934 25.07294 14.24878 24.99507 14.50415 24.90996 14.75952 24.8321 15.01488 24.76045 15.27026 24.68884 15.52563 24.61824 15.781 24.55388 16.03636 24.48848 16.29173 24.42413 16.5471 24.36703 16.80247 24.30888 17.05785 24.25179 17.3132 24.20093 17.56859 24.15007 17.82396 24.09918 18.07932 24.05455 18.33469 24.01096 18.59007 23.96736 18.84544 23.93 19.10078 23.89262 19.35617 23.85526 19.61154 23.82513 19.86693 23.794 20.12227 23.7639 20.37766 23.74002 20.63303 23.71614 20.8884 23.69331 21.14375 23.67566 21.39914 23.65283 21.6545 23.64244 21.90988 23.62582 22.16524 23.61545 22.42061 23.60506 22.67598 23.59573 22.93135 23.59262 23.18672 23.58951 23.44208 23.58638 23.69746 23.58223 23.95284 23.58638 24.20819 23.58951 24.46356 23.59364 24.71895 23.60403 24.97432 23.61443 25.22966 23.62482 25.48505 23.63518 25.74042 23.65178 25.9958 23.66945 26.25114 23.68707 26.50653 23.70367 26.7619 23.72755 27.01727 23.75143 27.27263 23.77533 27.52802 23.80025 27.78337 23.83034 28.03874 23.86148 28.29411 23.89262 28.54948 23.93 28.80486 23.96114 29.06023 23.99852 29.3156 24.04314 29.57095 24.08052 29.82634 24.12515 30.08171 24.16254 30.33707 24.21338 30.59244 24.25803 30.84782 24.30888 31.1032 24.35353 31.35854 24.40442 31.61392 24.46252 31.8693 24.51445 32.12468 24.57256 32.38002 24.6307 32.6354 24.6878 32.89078 24.74594 33.14615 24.81134 33.4015 24.8757 33.65689 24.93382 33.91225 25.00545 34.16762 25.07085 34.42299 25.14247 34.67834 25.20685 34.93373 25.28574 35.1891 25.35736 35.44447 25.42899 35.69983 25.50685 35.95522 25.58574 36.21059 25.6636 36.46594 25.74251 36.72131 25.82036 36.97668 25.90652 37.23207 25.99164 37.48741 26.07675 37.7428 26.1619 37.99817 26.24701 38.25356 26.33939 38.5089 26.42453 38.76428 26.51585 39.01965 26.60826 39.27502 26.70065 39.53038 26.79927 39.78575 26.89165 40.04112 26.99026 40.2965 27.0889 40.55186 27.18855 40.80722 27.29341 41.0626 27.39203 41.31798 27.49791 41.57335 27.60378 41.8287 27.70241 42.08409 27.81555 42.33946 27.9204 42.59482 28.0263 42.85019 28.13945 43.10556 28.25154 43.36095 28.36366 43.61629 28.47682 43.87167 28.58894 44.12704 28.70103 44.38242 28.82043 44.63777 28.93982 44.89316 29.0592 45.14853 29.17856 45.4039 29.29794 45.65926 29.41733 45.91463 29.54294 46.17 29.66232 46.42537 29.78792 46.68074 29.91457 46.9361 30.04016 47.19148 30.16682 47.44685 30.29245 47.70222 30.42531 47.95758 30.55196 48.21297 30.68483 48.46834 30.81772 48.72368 30.95059 48.97906 31.08345 49.23444 31.21632 49.48982 31.35544 49.74516 31.48833 50.00055 31.62845 50.25592 31.76755 50.51129 31.9077 50.76665 32.04681 51.02203 32.18695 51.2774 32.32709 51.53278 32.47345 51.78813 32.61255 52.0435 32.75893 52.29887 32.90634 52.55424 33.0527 52.80962 33.1991 53.06497 33.34547 53.32036 33.49182 53.57573 33.64545 53.83109 33.79182 54.08646 33.94548 54.34184 34.09807 54.59721 34.24445 54.85255 34.39809 55.10794 34.55171 55.36331 34.71158 55.6187 34.86418 55.87404 35.0178 56.12943 35.17769 56.3848 35.3386 56.64017 35.49118 56.89552 35.6521 57.15091 35.81197 57.40627 35.97182 57.66164 36.13168 57.917 36.29881 58.17238 36.45868 58.42775 36.61958 58.68312 36.78568 58.93849 36.9528 59.19385 37.11269 59.44923 37.2798 59.7046 37.44693 59.95996 37.61407 60.21533 37.78743 60.47072 37.95457 60.72609 38.12067 60.98143 38.29507 61.23682 38.4622 61.49219 38.63556 61.74757 38.80891 62.00291 38.97606 62.2583 39.1494 62.51367 39.3238 62.76904 39.49716 63.0244 39.6778 63.27979 39.85115 63.53514 40.02556 63.79051 40.20619 64.04588 40.37955 64.30125 40.56018 64.55663 40.7408 64.812 40.91415 65.06737 41.09479 65.32272 41.27542 65.57811 41.45604 65.83348 41.63667 66.08884 41.81625 66.34421 42.00415 66.59958 42.18478 66.85497 42.37164 67.1103 42.55226 67.36569 42.74016 67.62106 42.92079 67.87645 43.10765"/>
</g>
<path transform="matrix(1.00006,0,0,-1,40.600595,83.1)" d="M1.55418 34.01608C1.55418 34.87444 .85835 35.57027 0 35.57027-.85835 35.57027-1.55418 34.87444-1.55418 34.01608-1.55418 33.15771-.85835 32.46188 0 32.46188 .85835 32.46188 1.55418 33.15771 1.55418 34.01608ZM0 34.01608"/>
<use data-text="(" xlink:href="#font_3_1" transform="matrix(9.963197,0,0,-9.9626,44.120805,43.072999)"/>
<use data-text="0" xlink:href="#font_3_3" transform="matrix(9.963197,0,0,-9.9626,47.986528,43.072999)"/>
<use data-text="," xlink:href="#font_1_1" transform="matrix(9.963197,0,0,-9.9626,52.977327,43.072999)"/>
<use data-text="1" xlink:href="#font_3_4" transform="matrix(9.963197,0,0,-9.9626,57.404603,43.072999)"/>
<use data-text=")" xlink:href="#font_3_2" transform="matrix(9.963197,0,0,-9.9626,62.386186,43.072999)"/>
<path transform="matrix(1.00006,0,0,-1,40.600595,83.1)" stroke-width=".3985" stroke-linecap="butt" stroke-miterlimit="10" stroke-linejoin="miter" fill="none" stroke="#4d4dff" d="M-37.75784-34.01608H-30.27428"/>
<path transform="matrix(1.00006,0,0,-1,40.600595,83.1)" stroke-width=".3985" stroke-linecap="butt" stroke-miterlimit="10" stroke-linejoin="miter" fill="none" stroke="#4d4dff" d="M-37.64575-24.60475-30.38638-26.41933"/>
<path transform="matrix(1.00006,0,0,-1,40.600595,83.1)" stroke-width=".3985" stroke-linecap="butt" stroke-miterlimit="10" stroke-linejoin="miter" fill="none" stroke="#4d4dff" d="M-37.36234-15.33514-30.66978-18.6809"/>
<path transform="matrix(1.00006,0,0,-1,40.600595,83.1)" stroke-width=".3985" stroke-linecap="butt" stroke-miterlimit="10" stroke-linejoin="miter" fill="none" stroke="#4d4dff" d="M-37.00937-6.25914-31.02275-10.74886"/>
<path transform="matrix(1.00006,0,0,-1,40.600595,83.1)" stroke-width=".3985" stroke-linecap="butt" stroke-miterlimit="10" stroke-linejoin="miter" fill="none" stroke="#4d4dff" d="M-36.66164 2.64555-31.37048-2.64555"/>
<path transform="matrix(1.00006,0,0,-1,40.600595,83.1)" stroke-width=".3985" stroke-linecap="butt" stroke-miterlimit="10" stroke-linejoin="miter" fill="none" stroke="#4d4dff" d="M-36.35332 11.42517-31.6788 5.58281"/>
<path transform="matrix(1.00006,0,0,-1,40.600595,83.1)" stroke-width=".3985" stroke-linecap="butt" stroke-miterlimit="10" stroke-linejoin="miter" fill="none" stroke="#4d4dff" d="M-36.0912 20.12073-31.94092 13.89531"/>
<path transform="matrix(1.00006,0,0,-1,40.600595,83.1)" stroke-width=".3985" stroke-linecap="butt" stroke-miterlimit="10" stroke-linejoin="miter" fill="none" stroke="#4d4dff" d="M-35.87218 28.76022-32.15994 22.26385"/>
<path transform="matrix(1.00006,0,0,-1,40.600595,83.1)" stroke-width=".3985" stroke-linecap="butt" stroke-miterlimit="10" stroke-linejoin="miter" fill="none" stroke="#4d4dff" d="M-35.68895 37.36234-32.34317 30.66978"/>
<path transform="matrix(1.00006,0,0,-1,40.600595,83.1)" stroke-width=".3985" stroke-linecap="butt" stroke-miterlimit="10" stroke-linejoin="miter" fill="none" stroke="#4d4dff" d="M-35.53531 45.93901-32.49681 39.10114"/>
<path transform="matrix(1.00006,0,0,-1,40.600595,83.1)" stroke-width=".3985" stroke-linecap="butt" stroke-miterlimit="10" stroke-linejoin="miter" fill="none" stroke="#4d4dff" d="M-35.40553 54.49754-32.62659 47.55066"/>
<path transform="matrix(1.00006,0,0,-1,40.600595,83.1)" stroke-width=".3985" stroke-linecap="butt" stroke-miterlimit="10" stroke-linejoin="miter" fill="none" stroke="#4d4dff" d="M-35.29446 63.04413-32.73766 56.01212"/>
<path transform="matrix(1.00006,0,0,-1,40.600595,83.1)" stroke-width=".3985" stroke-linecap="butt" stroke-miterlimit="10" stroke-linejoin="miter" fill="none" stroke="#4d4dff" d="M-35.19896 71.58136-32.83316 64.48293"/>
<path transform="matrix(1.00006,0,0,-1,40.600595,83.1)" stroke-width=".3985" stroke-linecap="butt" stroke-miterlimit="10" stroke-linejoin="miter" fill="none" stroke="#4d4dff" d="M-29.14171-34.92334-21.88237-33.10878"/>
<path transform="matrix(1.00006,0,0,-1,40.600595,83.1)" stroke-width=".3985" stroke-linecap="butt" stroke-miterlimit="10" stroke-linejoin="miter" fill="none" stroke="#4d4dff" d="M-29.25385-25.51204H-21.77025"/>
<path transform="matrix(1.00006,0,0,-1,40.600595,83.1)" stroke-width=".3985" stroke-linecap="butt" stroke-miterlimit="10" stroke-linejoin="miter" fill="none" stroke="#4d4dff" d="M-29.14171-16.10074-21.88237-17.9153"/>
<path transform="matrix(1.00006,0,0,-1,40.600595,83.1)" stroke-width=".3985" stroke-linecap="butt" stroke-miterlimit="10" stroke-linejoin="miter" fill="none" stroke="#4d4dff" d="M-28.85832-6.83112-22.16577-10.17686"/>
<path transform="matrix(1.00006,0,0,-1,40.600595,83.1)" stroke-width=".3985" stroke-linecap="butt" stroke-miterlimit="10" stroke-linejoin="miter" fill="none" stroke="#4d4dff" d="M-28.50537 2.24486-22.5187-2.24486"/>
<path transform="matrix(1.00006,0,0,-1,40.600595,83.1)" stroke-width=".3985" stroke-linecap="butt" stroke-miterlimit="10" stroke-linejoin="miter" fill="none" stroke="#4d4dff" d="M-28.1576 11.14957-22.86647 5.85844"/>
<path transform="matrix(1.00006,0,0,-1,40.600595,83.1)" stroke-width=".3985" stroke-linecap="butt" stroke-miterlimit="10" stroke-linejoin="miter" fill="none" stroke="#4d4dff" d="M-27.84929 19.9292-23.17479 14.08684"/>
<path transform="matrix(1.00006,0,0,-1,40.600595,83.1)" stroke-width=".3985" stroke-linecap="butt" stroke-miterlimit="10" stroke-linejoin="miter" fill="none" stroke="#4d4dff" d="M-27.58717 28.62476-23.43692 22.39934"/>
<path transform="matrix(1.00006,0,0,-1,40.600595,83.1)" stroke-width=".3985" stroke-linecap="butt" stroke-miterlimit="10" stroke-linejoin="miter" fill="none" stroke="#4d4dff" d="M-27.36815 37.26424-23.65594 30.76788"/>
<path transform="matrix(1.00006,0,0,-1,40.600595,83.1)" stroke-width=".3985" stroke-linecap="butt" stroke-miterlimit="10" stroke-linejoin="miter" fill="none" stroke="#4d4dff" d="M-27.18492 45.86635-23.83917 39.1738"/>
<path transform="matrix(1.00006,0,0,-1,40.600595,83.1)" stroke-width=".3985" stroke-linecap="butt" stroke-miterlimit="10" stroke-linejoin="miter" fill="none" stroke="#4d4dff" d="M-27.03128 54.44305-23.9928 47.60516"/>
<path transform="matrix(1.00006,0,0,-1,40.600595,83.1)" stroke-width=".3985" stroke-linecap="butt" stroke-miterlimit="10" stroke-linejoin="miter" fill="none" stroke="#4d4dff" d="M-26.90152 63.00159-24.12257 56.05469"/>
<path transform="matrix(1.00006,0,0,-1,40.600595,83.1)" stroke-width=".3985" stroke-linecap="butt" stroke-miterlimit="10" stroke-linejoin="miter" fill="none" stroke="#4d4dff" d="M-26.79045 71.54816-24.23363 64.51616"/>
<path transform="matrix(1.00006,0,0,-1,40.600595,83.1)" stroke-width=".3985" stroke-linecap="butt" stroke-miterlimit="10" stroke-linejoin="miter" fill="none" stroke="#4d4dff" d="M-20.3543-35.68895-13.66174-32.34317"/>
<path transform="matrix(1.00006,0,0,-1,40.600595,83.1)" stroke-width=".3985" stroke-linecap="butt" stroke-miterlimit="10" stroke-linejoin="miter" fill="none" stroke="#4d4dff" d="M-20.6377-26.41933-13.37834-24.60475"/>
<path transform="matrix(1.00006,0,0,-1,40.600595,83.1)" stroke-width=".3985" stroke-linecap="butt" stroke-miterlimit="10" stroke-linejoin="miter" fill="none" stroke="#4d4dff" d="M-20.74982-17.00801H-13.26622"/>
<path transform="matrix(1.00006,0,0,-1,40.600595,83.1)" stroke-width=".3985" stroke-linecap="butt" stroke-miterlimit="10" stroke-linejoin="miter" fill="none" stroke="#4d4dff" d="M-20.6377-7.59671-13.37834-9.4113"/>
<path transform="matrix(1.00006,0,0,-1,40.600595,83.1)" stroke-width=".3985" stroke-linecap="butt" stroke-miterlimit="10" stroke-linejoin="miter" fill="none" stroke="#4d4dff" d="M-20.3543 1.67287-13.66174-1.67287"/>
<path transform="matrix(1.00006,0,0,-1,40.600595,83.1)" stroke-width=".3985" stroke-linecap="butt" stroke-miterlimit="10" stroke-linejoin="miter" fill="none" stroke="#4d4dff" d="M-20.00134 10.74886-14.0147 6.25914"/>
<path transform="matrix(1.00006,0,0,-1,40.600595,83.1)" stroke-width=".3985" stroke-linecap="butt" stroke-miterlimit="10" stroke-linejoin="miter" fill="none" stroke="#4d4dff" d="M-19.6536 19.6536-14.36244 14.36244"/>
<path transform="matrix(1.00006,0,0,-1,40.600595,83.1)" stroke-width=".3985" stroke-linecap="butt" stroke-miterlimit="10" stroke-linejoin="miter" fill="none" stroke="#4d4dff" d="M-19.34529 28.43323-14.67075 22.59087"/>
<path transform="matrix(1.00006,0,0,-1,40.600595,83.1)" stroke-width=".3985" stroke-linecap="butt" stroke-miterlimit="10" stroke-linejoin="miter" fill="none" stroke="#4d4dff" d="M-19.08316 37.12877-14.93288 30.90335"/>
<path transform="matrix(1.00006,0,0,-1,40.600595,83.1)" stroke-width=".3985" stroke-linecap="butt" stroke-miterlimit="10" stroke-linejoin="miter" fill="none" stroke="#4d4dff" d="M-18.86412 45.76826-15.15192 39.2719"/>
<path transform="matrix(1.00006,0,0,-1,40.600595,83.1)" stroke-width=".3985" stroke-linecap="butt" stroke-miterlimit="10" stroke-linejoin="miter" fill="none" stroke="#4d4dff" d="M-18.6809 54.37039-15.33514 47.67783"/>
<path transform="matrix(1.00006,0,0,-1,40.600595,83.1)" stroke-width=".3985" stroke-linecap="butt" stroke-miterlimit="10" stroke-linejoin="miter" fill="none" stroke="#4d4dff" d="M-18.52725 62.94707-15.48878 56.10919"/>
<path transform="matrix(1.00006,0,0,-1,40.600595,83.1)" stroke-width=".3985" stroke-linecap="butt" stroke-miterlimit="10" stroke-linejoin="miter" fill="none" stroke="#4d4dff" d="M-18.3975 71.50558-15.61853 64.5587"/>
<path transform="matrix(1.00006,0,0,-1,40.600595,83.1)" stroke-width=".3985" stroke-linecap="butt" stroke-miterlimit="10" stroke-linejoin="miter" fill="none" stroke="#4d4dff" d="M-11.49733-36.26094-5.51067-31.77118"/>
<path transform="matrix(1.00006,0,0,-1,40.600595,83.1)" stroke-width=".3985" stroke-linecap="butt" stroke-miterlimit="10" stroke-linejoin="miter" fill="none" stroke="#4d4dff" d="M-11.85027-27.18492-5.1577-23.83917"/>
<path transform="matrix(1.00006,0,0,-1,40.600595,83.1)" stroke-width=".3985" stroke-linecap="butt" stroke-miterlimit="10" stroke-linejoin="miter" fill="none" stroke="#4d4dff" d="M-12.13367-17.9153-4.87431-16.10074"/>
<path transform="matrix(1.00006,0,0,-1,40.600595,83.1)" stroke-width=".3985" stroke-linecap="butt" stroke-miterlimit="10" stroke-linejoin="miter" fill="none" stroke="#4d4dff" d="M-12.24577-8.504H-4.76219"/>
<path transform="matrix(1.00006,0,0,-1,40.600595,83.1)" stroke-width=".3985" stroke-linecap="butt" stroke-miterlimit="10" stroke-linejoin="miter" fill="none" stroke="#4d4dff" d="M-12.13367 .90726-4.87431-.90726"/>
<path transform="matrix(1.00006,0,0,-1,40.600595,83.1)" stroke-width=".3985" stroke-linecap="butt" stroke-miterlimit="10" stroke-linejoin="miter" fill="none" stroke="#4d4dff" d="M-11.85027 10.17686-5.1577 6.83112"/>
<path transform="matrix(1.00006,0,0,-1,40.600595,83.1)" stroke-width=".3985" stroke-linecap="butt" stroke-miterlimit="10" stroke-linejoin="miter" fill="none" stroke="#4d4dff" d="M-11.49733 19.25288-5.51067 14.76315"/>
<path transform="matrix(1.00006,0,0,-1,40.600595,83.1)" stroke-width=".3985" stroke-linecap="butt" stroke-miterlimit="10" stroke-linejoin="miter" fill="none" stroke="#4d4dff" d="M-11.14957 28.1576-5.85844 22.86647"/>
<path transform="matrix(1.00006,0,0,-1,40.600595,83.1)" stroke-width=".3985" stroke-linecap="butt" stroke-miterlimit="10" stroke-linejoin="miter" fill="none" stroke="#4d4dff" d="M-10.84125 36.93726-6.16675 31.09486"/>
<path transform="matrix(1.00006,0,0,-1,40.600595,83.1)" stroke-width=".3985" stroke-linecap="butt" stroke-miterlimit="10" stroke-linejoin="miter" fill="none" stroke="#4d4dff" d="M-10.57913 45.63278-6.42885 39.40736"/>
<path transform="matrix(1.00006,0,0,-1,40.600595,83.1)" stroke-width=".3985" stroke-linecap="butt" stroke-miterlimit="10" stroke-linejoin="miter" fill="none" stroke="#4d4dff" d="M-10.36009 54.27228-6.64789 47.77594"/>
<path transform="matrix(1.00006,0,0,-1,40.600595,83.1)" stroke-width=".3985" stroke-linecap="butt" stroke-miterlimit="10" stroke-linejoin="miter" fill="none" stroke="#4d4dff" d="M-10.17686 62.87442-6.83112 56.18185"/>
<path transform="matrix(1.00006,0,0,-1,40.600595,83.1)" stroke-width=".3985" stroke-linecap="butt" stroke-miterlimit="10" stroke-linejoin="miter" fill="none" stroke="#4d4dff" d="M-10.02324 71.4511-6.98476 64.61319"/>
<path transform="matrix(1.00006,0,0,-1,40.600595,83.1)" stroke-width=".3985" stroke-linecap="butt" stroke-miterlimit="10" stroke-linejoin="miter" fill="none" stroke="#4d4dff" d="M-2.64555-36.66164 2.64555-31.37048"/>
<path transform="matrix(1.00006,0,0,-1,40.600595,83.1)" stroke-width=".3985" stroke-linecap="butt" stroke-miterlimit="10" stroke-linejoin="miter" fill="none" stroke="#4d4dff" d="M-2.99329-27.75691 2.99329-23.26718"/>
<path transform="matrix(1.00006,0,0,-1,40.600595,83.1)" stroke-width=".3985" stroke-linecap="butt" stroke-miterlimit="10" stroke-linejoin="miter" fill="none" stroke="#4d4dff" d="M-3.34625-18.6809 3.34625-15.33514"/>
<path transform="matrix(1.00006,0,0,-1,40.600595,83.1)" stroke-width=".3985" stroke-linecap="butt" stroke-miterlimit="10" stroke-linejoin="miter" fill="none" stroke="#4d4dff" d="M-3.62967-9.4113 3.62967-7.59671"/>
<path transform="matrix(1.00006,0,0,-1,40.600595,83.1)" stroke-width=".3985" stroke-linecap="butt" stroke-miterlimit="10" stroke-linejoin="miter" fill="none" stroke="#4d4dff" d="M-3.74176 0H3.74176"/>
<path transform="matrix(1.00006,0,0,-1,40.600595,83.1)" stroke-width=".3985" stroke-linecap="butt" stroke-miterlimit="10" stroke-linejoin="miter" fill="none" stroke="#4d4dff" d="M-3.62967 9.4113 3.62967 7.59671"/>
<path transform="matrix(1.00006,0,0,-1,40.600595,83.1)" stroke-width=".3985" stroke-linecap="butt" stroke-miterlimit="10" stroke-linejoin="miter" fill="none" stroke="#4d4dff" d="M-3.34625 18.6809 3.34625 15.33514"/>
<path transform="matrix(1.00006,0,0,-1,40.600595,83.1)" stroke-width=".3985" stroke-linecap="butt" stroke-miterlimit="10" stroke-linejoin="miter" fill="none" stroke="#4d4dff" d="M-2.99329 27.75691 2.99329 23.26718"/>
<path transform="matrix(1.00006,0,0,-1,40.600595,83.1)" stroke-width=".3985" stroke-linecap="butt" stroke-miterlimit="10" stroke-linejoin="miter" fill="none" stroke="#4d4dff" d="M-2.64555 36.66164 2.64555 31.37048"/>
<path transform="matrix(1.00006,0,0,-1,40.600595,83.1)" stroke-width=".3985" stroke-linecap="butt" stroke-miterlimit="10" stroke-linejoin="miter" fill="none" stroke="#4d4dff" d="M-2.33723 45.44125 2.33723 39.59889"/>
<path transform="matrix(1.00006,0,0,-1,40.600595,83.1)" stroke-width=".3985" stroke-linecap="butt" stroke-miterlimit="10" stroke-linejoin="miter" fill="none" stroke="#4d4dff" d="M-2.07512 54.13681 2.07512 47.91139"/>
<path transform="matrix(1.00006,0,0,-1,40.600595,83.1)" stroke-width=".3985" stroke-linecap="butt" stroke-miterlimit="10" stroke-linejoin="miter" fill="none" stroke="#4d4dff" d="M-1.8561 62.7763 1.8561 56.27994"/>
<path transform="matrix(1.00006,0,0,-1,40.600595,83.1)" stroke-width=".3985" stroke-linecap="butt" stroke-miterlimit="10" stroke-linejoin="miter" fill="none" stroke="#4d4dff" d="M-1.67287 71.37842 1.67287 64.68587"/>
<path transform="matrix(1.00006,0,0,-1,40.600595,83.1)" stroke-width=".3985" stroke-linecap="butt" stroke-miterlimit="10" stroke-linejoin="miter" fill="none" stroke="#4d4dff" d="M6.16675-36.93726 10.84125-31.09486"/>
<path transform="matrix(1.00006,0,0,-1,40.600595,83.1)" stroke-width=".3985" stroke-linecap="butt" stroke-miterlimit="10" stroke-linejoin="miter" fill="none" stroke="#4d4dff" d="M5.85844-28.1576 11.14957-22.86647"/>
<path transform="matrix(1.00006,0,0,-1,40.600595,83.1)" stroke-width=".3985" stroke-linecap="butt" stroke-miterlimit="10" stroke-linejoin="miter" fill="none" stroke="#4d4dff" d="M5.51067-19.25288 11.49733-14.76315"/>
<path transform="matrix(1.00006,0,0,-1,40.600595,83.1)" stroke-width=".3985" stroke-linecap="butt" stroke-miterlimit="10" stroke-linejoin="miter" fill="none" stroke="#4d4dff" d="M5.1577-10.17686 11.85027-6.83112"/>
<path transform="matrix(1.00006,0,0,-1,40.600595,83.1)" stroke-width=".3985" stroke-linecap="butt" stroke-miterlimit="10" stroke-linejoin="miter" fill="none" stroke="#4d4dff" d="M4.87431-.90726 12.13367 .90726"/>
<path transform="matrix(1.00006,0,0,-1,40.600595,83.1)" stroke-width=".3985" stroke-linecap="butt" stroke-miterlimit="10" stroke-linejoin="miter" fill="none" stroke="#4d4dff" d="M4.76219 8.504H12.24577"/>
<path transform="matrix(1.00006,0,0,-1,40.600595,83.1)" stroke-width=".3985" stroke-linecap="butt" stroke-miterlimit="10" stroke-linejoin="miter" fill="none" stroke="#4d4dff" d="M4.87431 17.9153 12.13367 16.10074"/>
<path transform="matrix(1.00006,0,0,-1,40.600595,83.1)" stroke-width=".3985" stroke-linecap="butt" stroke-miterlimit="10" stroke-linejoin="miter" fill="none" stroke="#4d4dff" d="M5.1577 27.18492 11.85027 23.83917"/>
<path transform="matrix(1.00006,0,0,-1,40.600595,83.1)" stroke-width=".3985" stroke-linecap="butt" stroke-miterlimit="10" stroke-linejoin="miter" fill="none" stroke="#4d4dff" d="M5.51067 36.26094 11.49733 31.77118"/>
<path transform="matrix(1.00006,0,0,-1,40.600595,83.1)" stroke-width=".3985" stroke-linecap="butt" stroke-miterlimit="10" stroke-linejoin="miter" fill="none" stroke="#4d4dff" d="M5.85844 45.16565 11.14957 39.87453"/>
<path transform="matrix(1.00006,0,0,-1,40.600595,83.1)" stroke-width=".3985" stroke-linecap="butt" stroke-miterlimit="10" stroke-linejoin="miter" fill="none" stroke="#4d4dff" d="M6.16675 53.94528 10.84125 48.10294"/>
<path transform="matrix(1.00006,0,0,-1,40.600595,83.1)" stroke-width=".3985" stroke-linecap="butt" stroke-miterlimit="10" stroke-linejoin="miter" fill="none" stroke="#4d4dff" d="M6.42885 62.64084 10.57913 56.41542"/>
<path transform="matrix(1.00006,0,0,-1,40.600595,83.1)" stroke-width=".3985" stroke-linecap="butt" stroke-miterlimit="10" stroke-linejoin="miter" fill="none" stroke="#4d4dff" d="M6.64789 71.28033 10.36009 64.78397"/>
<path transform="matrix(1.00006,0,0,-1,40.600595,83.1)" stroke-width=".3985" stroke-linecap="butt" stroke-miterlimit="10" stroke-linejoin="miter" fill="none" stroke="#4d4dff" d="M14.93288-37.12877 19.08316-30.90335"/>
<path transform="matrix(1.00006,0,0,-1,40.600595,83.1)" stroke-width=".3985" stroke-linecap="butt" stroke-miterlimit="10" stroke-linejoin="miter" fill="none" stroke="#4d4dff" d="M14.67075-28.43323 19.34529-22.59087"/>
<path transform="matrix(1.00006,0,0,-1,40.600595,83.1)" stroke-width=".3985" stroke-linecap="butt" stroke-miterlimit="10" stroke-linejoin="miter" fill="none" stroke="#4d4dff" d="M14.36244-19.6536 19.6536-14.36244"/>
<path transform="matrix(1.00006,0,0,-1,40.600595,83.1)" stroke-width=".3985" stroke-linecap="butt" stroke-miterlimit="10" stroke-linejoin="miter" fill="none" stroke="#4d4dff" d="M14.0147-10.74886 20.00134-6.25914"/>
<path transform="matrix(1.00006,0,0,-1,40.600595,83.1)" stroke-width=".3985" stroke-linecap="butt" stroke-miterlimit="10" stroke-linejoin="miter" fill="none" stroke="#4d4dff" d="M13.66174-1.67287 20.3543 1.67287"/>
<path transform="matrix(1.00006,0,0,-1,40.600595,83.1)" stroke-width=".3985" stroke-linecap="butt" stroke-miterlimit="10" stroke-linejoin="miter" fill="none" stroke="#4d4dff" d="M13.37834 7.59671 20.6377 9.4113"/>
<path transform="matrix(1.00006,0,0,-1,40.600595,83.1)" stroke-width=".3985" stroke-linecap="butt" stroke-miterlimit="10" stroke-linejoin="miter" fill="none" stroke="#4d4dff" d="M13.26622 17.00801H20.74982"/>
<path transform="matrix(1.00006,0,0,-1,40.600595,83.1)" stroke-width=".3985" stroke-linecap="butt" stroke-miterlimit="10" stroke-linejoin="miter" fill="none" stroke="#4d4dff" d="M13.37834 26.41933 20.6377 24.60475"/>
<path transform="matrix(1.00006,0,0,-1,40.600595,83.1)" stroke-width=".3985" stroke-linecap="butt" stroke-miterlimit="10" stroke-linejoin="miter" fill="none" stroke="#4d4dff" d="M13.66174 35.68895 20.3543 32.34317"/>
<path transform="matrix(1.00006,0,0,-1,40.600595,83.1)" stroke-width=".3985" stroke-linecap="butt" stroke-miterlimit="10" stroke-linejoin="miter" fill="none" stroke="#4d4dff" d="M14.0147 44.76494 20.00134 40.27522"/>
<path transform="matrix(1.00006,0,0,-1,40.600595,83.1)" stroke-width=".3985" stroke-linecap="butt" stroke-miterlimit="10" stroke-linejoin="miter" fill="none" stroke="#4d4dff" d="M14.36244 53.66968 19.6536 48.37852"/>
<path transform="matrix(1.00006,0,0,-1,40.600595,83.1)" stroke-width=".3985" stroke-linecap="butt" stroke-miterlimit="10" stroke-linejoin="miter" fill="none" stroke="#4d4dff" d="M14.67075 62.44931 19.34529 56.60695"/>
<path transform="matrix(1.00006,0,0,-1,40.600595,83.1)" stroke-width=".3985" stroke-linecap="butt" stroke-miterlimit="10" stroke-linejoin="miter" fill="none" stroke="#4d4dff" d="M14.93288 71.14485 19.08316 64.91943"/>
<path transform="matrix(1.00006,0,0,-1,40.600595,83.1)" stroke-width=".3985" stroke-linecap="butt" stroke-miterlimit="10" stroke-linejoin="miter" fill="none" stroke="#4d4dff" d="M23.65594-37.26424 27.36815-30.76788"/>
<path transform="matrix(1.00006,0,0,-1,40.600595,83.1)" stroke-width=".3985" stroke-linecap="butt" stroke-miterlimit="10" stroke-linejoin="miter" fill="none" stroke="#4d4dff" d="M23.43692-28.62476 27.58717-22.39934"/>
<path transform="matrix(1.00006,0,0,-1,40.600595,83.1)" stroke-width=".3985" stroke-linecap="butt" stroke-miterlimit="10" stroke-linejoin="miter" fill="none" stroke="#4d4dff" d="M23.17479-19.9292 27.84929-14.08684"/>
<path transform="matrix(1.00006,0,0,-1,40.600595,83.1)" stroke-width=".3985" stroke-linecap="butt" stroke-miterlimit="10" stroke-linejoin="miter" fill="none" stroke="#4d4dff" d="M22.86647-11.14957 28.1576-5.85844"/>
<path transform="matrix(1.00006,0,0,-1,40.600595,83.1)" stroke-width=".3985" stroke-linecap="butt" stroke-miterlimit="10" stroke-linejoin="miter" fill="none" stroke="#4d4dff" d="M22.5187-2.24486 28.50537 2.24486"/>
<path transform="matrix(1.00006,0,0,-1,40.600595,83.1)" stroke-width=".3985" stroke-linecap="butt" stroke-miterlimit="10" stroke-linejoin="miter" fill="none" stroke="#4d4dff" d="M22.16577 6.83112 28.85832 10.17686"/>
<path transform="matrix(1.00006,0,0,-1,40.600595,83.1)" stroke-width=".3985" stroke-linecap="butt" stroke-miterlimit="10" stroke-linejoin="miter" fill="none" stroke="#4d4dff" d="M21.88237 16.10074 29.14171 17.9153"/>
<path transform="matrix(1.00006,0,0,-1,40.600595,83.1)" stroke-width=".3985" stroke-linecap="butt" stroke-miterlimit="10" stroke-linejoin="miter" fill="none" stroke="#4d4dff" d="M21.77025 25.51204H29.25385"/>
<path transform="matrix(1.00006,0,0,-1,40.600595,83.1)" stroke-width=".3985" stroke-linecap="butt" stroke-miterlimit="10" stroke-linejoin="miter" fill="none" stroke="#4d4dff" d="M21.88237 34.92334 29.14171 33.10878"/>
<path transform="matrix(1.00006,0,0,-1,40.600595,83.1)" stroke-width=".3985" stroke-linecap="butt" stroke-miterlimit="10" stroke-linejoin="miter" fill="none" stroke="#4d4dff" d="M22.16577 44.19295 28.85832 40.84721"/>
<path transform="matrix(1.00006,0,0,-1,40.600595,83.1)" stroke-width=".3985" stroke-linecap="butt" stroke-miterlimit="10" stroke-linejoin="miter" fill="none" stroke="#4d4dff" d="M22.5187 53.26897 28.50537 48.77924"/>
<path transform="matrix(1.00006,0,0,-1,40.600595,83.1)" stroke-width=".3985" stroke-linecap="butt" stroke-miterlimit="10" stroke-linejoin="miter" fill="none" stroke="#4d4dff" d="M22.86647 62.17368 28.1576 56.88255"/>
<path transform="matrix(1.00006,0,0,-1,40.600595,83.1)" stroke-width=".3985" stroke-linecap="butt" stroke-miterlimit="10" stroke-linejoin="miter" fill="none" stroke="#4d4dff" d="M23.17479 70.95334 27.84929 65.11096"/>
<path transform="matrix(1.00006,0,0,-1,40.600595,83.1)" stroke-width=".3985" stroke-linecap="butt" stroke-miterlimit="10" stroke-linejoin="miter" fill="none" stroke="#4d4dff" d="M32.34317-37.36234 35.68895-30.66978"/>
<path transform="matrix(1.00006,0,0,-1,40.600595,83.1)" stroke-width=".3985" stroke-linecap="butt" stroke-miterlimit="10" stroke-linejoin="miter" fill="none" stroke="#4d4dff" d="M32.15994-28.76022 35.87218-22.26385"/>
<path transform="matrix(1.00006,0,0,-1,40.600595,83.1)" stroke-width=".3985" stroke-linecap="butt" stroke-miterlimit="10" stroke-linejoin="miter" fill="none" stroke="#4d4dff" d="M31.94092-20.12073 36.0912-13.89531"/>
<path transform="matrix(1.00006,0,0,-1,40.600595,83.1)" stroke-width=".3985" stroke-linecap="butt" stroke-miterlimit="10" stroke-linejoin="miter" fill="none" stroke="#4d4dff" d="M31.6788-11.42517 36.35332-5.58281"/>
<path transform="matrix(1.00006,0,0,-1,40.600595,83.1)" stroke-width=".3985" stroke-linecap="butt" stroke-miterlimit="10" stroke-linejoin="miter" fill="none" stroke="#4d4dff" d="M31.37048-2.64555 36.66164 2.64555"/>
<path transform="matrix(1.00006,0,0,-1,40.600595,83.1)" stroke-width=".3985" stroke-linecap="butt" stroke-miterlimit="10" stroke-linejoin="miter" fill="none" stroke="#4d4dff" d="M31.02275 6.25914 37.00937 10.74886"/>
<path transform="matrix(1.00006,0,0,-1,40.600595,83.1)" stroke-width=".3985" stroke-linecap="butt" stroke-miterlimit="10" stroke-linejoin="miter" fill="none" stroke="#4d4dff" d="M30.66978 15.33514 37.36234 18.6809"/>
<path transform="matrix(1.00006,0,0,-1,40.600595,83.1)" stroke-width=".3985" stroke-linecap="butt" stroke-miterlimit="10" stroke-linejoin="miter" fill="none" stroke="#4d4dff" d="M30.38638 24.60475 37.64575 26.41933"/>
<path transform="matrix(1.00006,0,0,-1,40.600595,83.1)" stroke-width=".3985" stroke-linecap="butt" stroke-miterlimit="10" stroke-linejoin="miter" fill="none" stroke="#4d4dff" d="M30.27428 34.01608H37.75784"/>
<path transform="matrix(1.00006,0,0,-1,40.600595,83.1)" stroke-width=".3985" stroke-linecap="butt" stroke-miterlimit="10" stroke-linejoin="miter" fill="none" stroke="#4d4dff" d="M30.38638 43.42738 37.64575 41.6128"/>
<path transform="matrix(1.00006,0,0,-1,40.600595,83.1)" stroke-width=".3985" stroke-linecap="butt" stroke-miterlimit="10" stroke-linejoin="miter" fill="none" stroke="#4d4dff" d="M30.66978 52.69698 37.36234 49.35123"/>
<path transform="matrix(1.00006,0,0,-1,40.600595,83.1)" stroke-width=".3985" stroke-linecap="butt" stroke-miterlimit="10" stroke-linejoin="miter" fill="none" stroke="#4d4dff" d="M31.02275 61.773 37.00937 57.28326"/>
<path transform="matrix(1.00006,0,0,-1,40.600595,83.1)" stroke-width=".3985" stroke-linecap="butt" stroke-miterlimit="10" stroke-linejoin="miter" fill="none" stroke="#4d4dff" d="M31.37048 70.67772 36.66164 65.38658"/>
<path transform="matrix(1.00006,0,0,-1,40.600595,83.1)" stroke-width=".3985" stroke-linecap="butt" stroke-miterlimit="10" stroke-linejoin="miter" fill="none" stroke="#4d4dff" d="M41.00084-37.43501 44.03932-30.5971"/>
<path transform="matrix(1.00006,0,0,-1,40.600595,83.1)" stroke-width=".3985" stroke-linecap="butt" stroke-miterlimit="10" stroke-linejoin="miter" fill="none" stroke="#4d4dff" d="M40.84721-28.85832 44.19295-22.16577"/>
<path transform="matrix(1.00006,0,0,-1,40.600595,83.1)" stroke-width=".3985" stroke-linecap="butt" stroke-miterlimit="10" stroke-linejoin="miter" fill="none" stroke="#4d4dff" d="M40.66397-20.2562 44.37617-13.75986"/>
<path transform="matrix(1.00006,0,0,-1,40.600595,83.1)" stroke-width=".3985" stroke-linecap="butt" stroke-miterlimit="10" stroke-linejoin="miter" fill="none" stroke="#4d4dff" d="M40.44495-11.6167 44.59521-5.39128"/>
<path transform="matrix(1.00006,0,0,-1,40.600595,83.1)" stroke-width=".3985" stroke-linecap="butt" stroke-miterlimit="10" stroke-linejoin="miter" fill="none" stroke="#4d4dff" d="M40.18283-2.92116 44.85733 2.92116"/>
<path transform="matrix(1.00006,0,0,-1,40.600595,83.1)" stroke-width=".3985" stroke-linecap="butt" stroke-miterlimit="10" stroke-linejoin="miter" fill="none" stroke="#4d4dff" d="M39.87453 5.85844 45.16565 11.14957"/>
<path transform="matrix(1.00006,0,0,-1,40.600595,83.1)" stroke-width=".3985" stroke-linecap="butt" stroke-miterlimit="10" stroke-linejoin="miter" fill="none" stroke="#4d4dff" d="M39.52675 14.76315 45.51341 19.25288"/>
<path transform="matrix(1.00006,0,0,-1,40.600595,83.1)" stroke-width=".3985" stroke-linecap="butt" stroke-miterlimit="10" stroke-linejoin="miter" fill="none" stroke="#4d4dff" d="M39.1738 23.83917 45.86635 27.18492"/>
<path transform="matrix(1.00006,0,0,-1,40.600595,83.1)" stroke-width=".3985" stroke-linecap="butt" stroke-miterlimit="10" stroke-linejoin="miter" fill="none" stroke="#4d4dff" d="M38.89041 33.10878 46.14975 34.92334"/>
<path transform="matrix(1.00006,0,0,-1,40.600595,83.1)" stroke-width=".3985" stroke-linecap="butt" stroke-miterlimit="10" stroke-linejoin="miter" fill="none" stroke="#4d4dff" d="M38.77827 42.52008H46.26187"/>
<path transform="matrix(1.00006,0,0,-1,40.600595,83.1)" stroke-width=".3985" stroke-linecap="butt" stroke-miterlimit="10" stroke-linejoin="miter" fill="none" stroke="#4d4dff" d="M38.89041 51.93138 46.14975 50.11682"/>
<path transform="matrix(1.00006,0,0,-1,40.600595,83.1)" stroke-width=".3985" stroke-linecap="butt" stroke-miterlimit="10" stroke-linejoin="miter" fill="none" stroke="#4d4dff" d="M39.1738 61.201 45.86635 57.85526"/>
<path transform="matrix(1.00006,0,0,-1,40.600595,83.1)" stroke-width=".3985" stroke-linecap="butt" stroke-miterlimit="10" stroke-linejoin="miter" fill="none" stroke="#4d4dff" d="M39.52675 70.27702 45.51341 65.78726"/>
<path transform="matrix(1.00006,0,0,-1,40.600595,83.1)" stroke-width=".3985" stroke-linecap="butt" stroke-miterlimit="10" stroke-linejoin="miter" fill="none" stroke="#4d4dff" d="M49.63461-37.4895 52.41359-30.54262"/>
<path transform="matrix(1.00006,0,0,-1,40.600595,83.1)" stroke-width=".3985" stroke-linecap="butt" stroke-miterlimit="10" stroke-linejoin="miter" fill="none" stroke="#4d4dff" d="M49.50487-28.93098 52.54335-22.09311"/>
<path transform="matrix(1.00006,0,0,-1,40.600595,83.1)" stroke-width=".3985" stroke-linecap="butt" stroke-miterlimit="10" stroke-linejoin="miter" fill="none" stroke="#4d4dff" d="M49.35123-20.3543 52.69698-13.66174"/>
<path transform="matrix(1.00006,0,0,-1,40.600595,83.1)" stroke-width=".3985" stroke-linecap="butt" stroke-miterlimit="10" stroke-linejoin="miter" fill="none" stroke="#4d4dff" d="M49.168-11.75218 52.88022-5.25581"/>
<path transform="matrix(1.00006,0,0,-1,40.600595,83.1)" stroke-width=".3985" stroke-linecap="butt" stroke-miterlimit="10" stroke-linejoin="miter" fill="none" stroke="#4d4dff" d="M48.94896-3.11269 53.09924 3.11269"/>
<path transform="matrix(1.00006,0,0,-1,40.600595,83.1)" stroke-width=".3985" stroke-linecap="butt" stroke-miterlimit="10" stroke-linejoin="miter" fill="none" stroke="#4d4dff" d="M48.68684 5.58281 53.36137 11.42517"/>
<path transform="matrix(1.00006,0,0,-1,40.600595,83.1)" stroke-width=".3985" stroke-linecap="butt" stroke-miterlimit="10" stroke-linejoin="miter" fill="none" stroke="#4d4dff" d="M48.37852 14.36244 53.66968 19.6536"/>
<path transform="matrix(1.00006,0,0,-1,40.600595,83.1)" stroke-width=".3985" stroke-linecap="butt" stroke-miterlimit="10" stroke-linejoin="miter" fill="none" stroke="#4d4dff" d="M48.03078 23.26718 54.01743 27.75691"/>
<path transform="matrix(1.00006,0,0,-1,40.600595,83.1)" stroke-width=".3985" stroke-linecap="butt" stroke-miterlimit="10" stroke-linejoin="miter" fill="none" stroke="#4d4dff" d="M47.67783 32.34317 54.37039 35.68895"/>
<path transform="matrix(1.00006,0,0,-1,40.600595,83.1)" stroke-width=".3985" stroke-linecap="butt" stroke-miterlimit="10" stroke-linejoin="miter" fill="none" stroke="#4d4dff" d="M47.39442 41.6128 54.65378 43.42738"/>
<path transform="matrix(1.00006,0,0,-1,40.600595,83.1)" stroke-width=".3985" stroke-linecap="butt" stroke-miterlimit="10" stroke-linejoin="miter" fill="none" stroke="#4d4dff" d="M47.28232 51.02411H54.7659"/>
<path transform="matrix(1.00006,0,0,-1,40.600595,83.1)" stroke-width=".3985" stroke-linecap="butt" stroke-miterlimit="10" stroke-linejoin="miter" fill="none" stroke="#4d4dff" d="M47.39442 60.43541 54.65378 58.62083"/>
<path transform="matrix(1.00006,0,0,-1,40.600595,83.1)" stroke-width=".3985" stroke-linecap="butt" stroke-miterlimit="10" stroke-linejoin="miter" fill="none" stroke="#4d4dff" d="M47.67783 69.70503 54.37039 66.35925"/>
<path transform="matrix(1.00006,0,0,-1,40.600595,83.1)" stroke-width=".3985" stroke-linecap="butt" stroke-miterlimit="10" stroke-linejoin="miter" fill="none" stroke="#4d4dff" d="M58.24973-37.53206 60.80653-30.50006"/>
<path transform="matrix(1.00006,0,0,-1,40.600595,83.1)" stroke-width=".3985" stroke-linecap="butt" stroke-miterlimit="10" stroke-linejoin="miter" fill="none" stroke="#4d4dff" d="M58.13866-28.9855 60.91762-22.03859"/>
<path transform="matrix(1.00006,0,0,-1,40.600595,83.1)" stroke-width=".3985" stroke-linecap="butt" stroke-miterlimit="10" stroke-linejoin="miter" fill="none" stroke="#4d4dff" d="M58.00888-20.42696 61.04736-13.58907"/>
<path transform="matrix(1.00006,0,0,-1,40.600595,83.1)" stroke-width=".3985" stroke-linecap="butt" stroke-miterlimit="10" stroke-linejoin="miter" fill="none" stroke="#4d4dff" d="M57.85526-11.85027 61.201-5.1577"/>
<path transform="matrix(1.00006,0,0,-1,40.600595,83.1)" stroke-width=".3985" stroke-linecap="butt" stroke-miterlimit="10" stroke-linejoin="miter" fill="none" stroke="#4d4dff" d="M57.67203-3.24815 61.38423 3.24815"/>
<path transform="matrix(1.00006,0,0,-1,40.600595,83.1)" stroke-width=".3985" stroke-linecap="butt" stroke-miterlimit="10" stroke-linejoin="miter" fill="none" stroke="#4d4dff" d="M57.453 5.39128 61.60327 11.6167"/>
<path transform="matrix(1.00006,0,0,-1,40.600595,83.1)" stroke-width=".3985" stroke-linecap="butt" stroke-miterlimit="10" stroke-linejoin="miter" fill="none" stroke="#4d4dff" d="M57.19087 14.08684 61.86537 19.9292"/>
<path transform="matrix(1.00006,0,0,-1,40.600595,83.1)" stroke-width=".3985" stroke-linecap="butt" stroke-miterlimit="10" stroke-linejoin="miter" fill="none" stroke="#4d4dff" d="M56.88255 22.86647 62.17368 28.1576"/>
<path transform="matrix(1.00006,0,0,-1,40.600595,83.1)" stroke-width=".3985" stroke-linecap="butt" stroke-miterlimit="10" stroke-linejoin="miter" fill="none" stroke="#4d4dff" d="M56.53479 31.77118 62.52145 36.26094"/>
<path transform="matrix(1.00006,0,0,-1,40.600595,83.1)" stroke-width=".3985" stroke-linecap="butt" stroke-miterlimit="10" stroke-linejoin="miter" fill="none" stroke="#4d4dff" d="M56.18185 40.84721 62.87442 44.19295"/>
<path transform="matrix(1.00006,0,0,-1,40.600595,83.1)" stroke-width=".3985" stroke-linecap="butt" stroke-miterlimit="10" stroke-linejoin="miter" fill="none" stroke="#4d4dff" d="M55.89845 50.11682 63.1578 51.93138"/>
<path transform="matrix(1.00006,0,0,-1,40.600595,83.1)" stroke-width=".3985" stroke-linecap="butt" stroke-miterlimit="10" stroke-linejoin="miter" fill="none" stroke="#4d4dff" d="M55.78635 59.52812H63.26993"/>
<path transform="matrix(1.00006,0,0,-1,40.600595,83.1)" stroke-width=".3985" stroke-linecap="butt" stroke-miterlimit="10" stroke-linejoin="miter" fill="none" stroke="#4d4dff" d="M55.89845 68.93944 63.1578 67.12486"/>
<path transform="matrix(1.00006,0,0,-1,40.600595,83.1)" stroke-width=".3985" stroke-linecap="butt" stroke-miterlimit="10" stroke-linejoin="miter" fill="none" stroke="#4d4dff" d="M66.84924-37.56528 69.21504-30.46684"/>
<path transform="matrix(1.00006,0,0,-1,40.600595,83.1)" stroke-width=".3985" stroke-linecap="butt" stroke-miterlimit="10" stroke-linejoin="miter" fill="none" stroke="#4d4dff" d="M66.75374-29.02805 69.31056-21.99603"/>
<path transform="matrix(1.00006,0,0,-1,40.600595,83.1)" stroke-width=".3985" stroke-linecap="butt" stroke-miterlimit="10" stroke-linejoin="miter" fill="none" stroke="#4d4dff" d="M66.64267-20.48146 69.42162-13.53458"/>
<path transform="matrix(1.00006,0,0,-1,40.600595,83.1)" stroke-width=".3985" stroke-linecap="butt" stroke-miterlimit="10" stroke-linejoin="miter" fill="none" stroke="#4d4dff" d="M66.51291-11.92293 69.5514-5.08505"/>
<path transform="matrix(1.00006,0,0,-1,40.600595,83.1)" stroke-width=".3985" stroke-linecap="butt" stroke-miterlimit="10" stroke-linejoin="miter" fill="none" stroke="#4d4dff" d="M66.35925-3.34625 69.70503 3.34625"/>
<path transform="matrix(1.00006,0,0,-1,40.600595,83.1)" stroke-width=".3985" stroke-linecap="butt" stroke-miterlimit="10" stroke-linejoin="miter" fill="none" stroke="#4d4dff" d="M66.17603 5.25581 69.88826 11.75218"/>
<path transform="matrix(1.00006,0,0,-1,40.600595,83.1)" stroke-width=".3985" stroke-linecap="butt" stroke-miterlimit="10" stroke-linejoin="miter" fill="none" stroke="#4d4dff" d="M65.957 13.89531 70.10728 20.12073"/>
<path transform="matrix(1.00006,0,0,-1,40.600595,83.1)" stroke-width=".3985" stroke-linecap="butt" stroke-miterlimit="10" stroke-linejoin="miter" fill="none" stroke="#4d4dff" d="M65.6949 22.59087 70.3694 28.43323"/>
<path transform="matrix(1.00006,0,0,-1,40.600595,83.1)" stroke-width=".3985" stroke-linecap="butt" stroke-miterlimit="10" stroke-linejoin="miter" fill="none" stroke="#4d4dff" d="M65.38658 31.37048 70.67772 36.66164"/>
<path transform="matrix(1.00006,0,0,-1,40.600595,83.1)" stroke-width=".3985" stroke-linecap="butt" stroke-miterlimit="10" stroke-linejoin="miter" fill="none" stroke="#4d4dff" d="M65.03883 40.27522 71.02547 44.76494"/>
<path transform="matrix(1.00006,0,0,-1,40.600595,83.1)" stroke-width=".3985" stroke-linecap="butt" stroke-miterlimit="10" stroke-linejoin="miter" fill="none" stroke="#4d4dff" d="M64.68587 49.35123 71.37842 52.69698"/>
<path transform="matrix(1.00006,0,0,-1,40.600595,83.1)" stroke-width=".3985" stroke-linecap="butt" stroke-miterlimit="10" stroke-linejoin="miter" fill="none" stroke="#4d4dff" d="M64.40247 58.62083 71.66183 60.43541"/>
<path transform="matrix(1.00006,0,0,-1,40.600595,83.1)" stroke-width=".3985" stroke-linecap="butt" stroke-miterlimit="10" stroke-linejoin="miter" fill="none" stroke="#4d4dff" d="M64.29036 68.03217H71.77393"/>
</svg>
