<svg xmlns="http://www.w3.org/2000/svg" xmlns:xlink="http://www.w3.org/1999/xlink" xmlns:inkscape="http://www.inkscape.org/namespaces/inkscape" version="1.1" width="219" height="219" viewBox="0 0 219 219">
<defs>
<path id="font_1_1" d="M.6589966 .23046875C.6759949 .23046875 .69400027 .23046875 .69400027 .25045777 .69400027 .27046205 .6759949 .27046205 .6589966 .27046205H.117996219C.100997928 .27046205 .08299255 .27046205 .08299255 .25045777 .08299255 .23046875 .100997928 .23046875 .117996219 .23046875H.6589966Z"/>
<path id="font_2_2" d="M.1269989 .07699585 .23298645 .18003845C.3889923 .31811524 .44898988 .3721466 .44898988 .47216798 .44898988 .5860901 .35899354 .6660156 .23699951 .6660156 .12399292 .6660156 .049987794 .57411196 .049987794 .48516847 .049987794 .4291687 .099990848 .4291687 .102996829 .4291687 .11999512 .4291687 .15499878 .44117738 .15499878 .48217774 .15499878 .5081787 .13699341 .5341797 .101989749 .5341797 .09399414 .5341797 .09199524 .5341797 .08898926 .5331726 .11199951 .59806826 .1659851 .63500979 .22399903 .63500979 .31498719 .63500979 .35798646 .5541382 .35798646 .47216798 .35798646 .39215089 .30799867 .31311036 .25299073 .25108338L.06098938 .036987306C.049987794 .025985718 .049987794 .023986817 .049987794 0H.42099L.44898988 .17404175H.42399598C.4189911 .14402771 .4119873 .1000061 .4019928 .084991458 .394989 .07699585 .32899476 .07699585 .30699159 .07699585H.1269989Z"/>
<path id="font_2_1" d="M.2939911 .64004519C.2939911 .66400149 .2939911 .6660156 .2709961 .6660156 .20899964 .60227969 .12098694 .60227969 .08898926 .60227969V.57128909C.10899353 .57128909 .16799927 .57128909 .21998596 .5972748V.07902527C.21998596 .042999269 .21699524 .0309906 .1269989 .0309906H.09498596V0C.12998963 .0029907227 .21699524 .0029907227 .25698854 .0029907227 .29699708 .0029907227 .38398744 .0029907227 .4189911 0V.0309906H.3869934C.29699708 .0309906 .2939911 .041992189 .2939911 .07902527V.64004519Z"/>
<path id="font_2_3" d="M.2899933 .35191346C.37199403 .37893678 .42999269 .4490509 .42999269 .52809146 .42999269 .6100464 .34199525 .6660156 .24598694 .6660156 .14498902 .6660156 .068984989 .60606387 .068984989 .53009036 .068984989 .49710084 .09098816 .47808839 .11999512 .47808839 .15098572 .47808839 .17098999 .50009158 .17098999 .5290985 .17098999 .57910159 .12399292 .57910159 .10899353 .57910159 .13999939 .62802127 .20599365 .64100649 .24198914 .64100649 .2829895 .64100649 .33799745 .6190338 .33799745 .5290985 .33799745 .51708987 .33599855 .45906068 .30999757 .4149933 .27999879 .36691285 .24598694 .36390687 .22099304 .36291505 .21299744 .36190797 .18899536 .35990907 .18199158 .35990907 .17399597 .35890199 .16699219 .35791017 .16699219 .3479004 .16699219 .33691407 .17399597 .33691407 .19099427 .33691407H.23498535C.31698609 .33691407 .35398866 .2686615 .35398866 .17037964 .35398866 .034469606 .2849884 .0055389406 .24099732 .0055389406 .19799805 .0055389406 .12298584 .022491456 .08799744 .08137512 .12298584 .07637024 .1539917 .09837341 .1539917 .1363678 .1539917 .17237854 .1269989 .19238281 .09799194 .19238281 .07398987 .19238281 .041992189 .17837525 .041992189 .1343689 .041992189 .043441774 .1349945-.022460938 .24398804-.022460938 .3659973-.022460938 .45700074 .06838989 .45700074 .17037964 .45700074 .252594 .3939972 .33088685 .2899933 .35191346Z"/>
<path id="font_2_4" d="M.2939911 .16503906V.07800293C.2939911 .041992189 .2919922 .0309906 .21798706 .0309906H.19699097V0C.23799134 .0029907227 .2899933 .0029907227 .33198548 .0029907227 .37399293 .0029907227 .4269867 .0029907227 .46798707 0V.0309906H.44699098C.37298585 .0309906 .37098695 .041992189 .37098695 .07800293V.16503906H.47099305V.19602967H.37098695V.65075686C.37098695 .67074587 .37098695 .6767578 .35499574 .6767578 .34599305 .6767578 .34298707 .6767578 .33499146 .66474917L.027999878 .19602967V.16503906H.2939911M.2999878 .19602967H.055999757L.2999878 .5688019V.19602967Z"/>
<clipPath id="clip_3">
<path transform="matrix(1.00003,0,0,-1.00005,1.0964966,217.2571)" d="M0 0H215.95687V215.95595H0Z"/>
</clipPath>
<path id="font_4_3" d="M.5369873 .5947571C.522995 .5818329 .48999024 .55400088 .48999024 .5361023 .48999024 .5261078 .5 .516098 .5099945 .516098 .5189972 .516098 .5239868 .5231018 .5289917 .5290985 .54100039 .5440674 .56399539 .5718994 .60798647 .59376528 .61499026 .59776309 .625 .6027527 .625 .61476138 .625 .62475588 .6179962 .62976077 .61099246 .6347656 .58898928 .6497803 .5779877 .66781619 .56999209 .69184878 .56799319 .7008667 .56399539 .7138672 .5499878 .7138672 .5359955 .7138672 .5299988 .7008667 .5299988 .69285586 .5299988 .68785098 .5379944 .65579226 .55400088 .6347656H.21699524C.19999695 .6347656 .18199158 .6347656 .18199158 .61476138 .18199158 .5947571 .19999695 .5947571 .21699524 .5947571H.5369873Z"/>
<path id="font_4_1" d="M.34999085 .056259157C.36099244 .015258789 .3959961-.0107421879 .43899537-.0107421879 .47399903-.0107421879 .49699403 .012252808 .5130005 .044265748 .5299988 .08027649 .54299929 .14129639 .54299929 .14329529 .54299929 .1532898 .5339966 .1532898 .5309906 .1532898 .5209961 .1532898 .519989 .14929199 .5169983 .13528443 .5029907 .07926941 .48399354 .011245728 .44198609 .011245728 .42099 .011245728 .41099549 .024261475 .41099549 .057266237 .41099549 .07926941 .4229889 .12628174 .43099977 .16130066L.45899964 .2693329C.46199037 .28433229 .47200013 .32234193 .47599793 .3373413 .48098756 .36035157 .4909973 .3983612 .4909973 .40437318 .4909973 .42237855 .47698976 .43138124 .46199037 .43138124 .45700074 .43138124 .43099977 .43037416 .4229889 .3963623 .4039917 .323349 .3600006 .14828491 .34799195 .09527588 .34700013 .091278079 .30699159 .011245728 .23399353 .011245728 .18199158 .011245728 .17199707 .056259157 .17199707 .09327698 .17199707 .14929199 .19999695 .22831726 .22599793 .29733277 .23799134 .3273468 .24299622 .34135438 .24299622 .36035157 .24299622 .405365 .21099854 .4423828 .16099549 .4423828 .06599426 .4423828 .0289917 .29733277 .0289917 .28833009 .0289917 .27833558 .038986207 .27833558 .040985109 .27833558 .050994874 .27833558 .051986696 .28033448 .056991579 .29634095 .08198547 .38336183 .11999512 .42037965 .1579895 .42037965 .16699219 .42037965 .18299866 .41937257 .18299866 .38735963 .18299866 .36335755 .17199707 .3343506 .1659851 .31933595 .1289978 .2203064 .10798645 .15829468 .10798645 .10928345 .10798645 .014251709 .1769867-.0107421879 .23098755-.0107421879 .29699708-.0107421879 .33299256 .03425598 .34999085 .056259157Z"/>
<path id="font_5_3" d="M.272995 .33428956C.35099793 .33428956 .40699769 .2803192 .40699769 .1733551 .40699769 .04940796 .33499146 .012466431 .2769928 .012466431 .23699951 .012466431 .14898682 .0234375 .10699463 .082351688 .1539917 .084350589 .16499329 .11735535 .16499329 .13835144 .16499329 .17034912 .14099121 .19335938 .10998535 .19335938 .08198547 .19335938 .053985597 .17634583 .053985597 .13534546 .053985597 .041412355 .1579895-.01953125 .2789917-.01953125 .41799928-.01953125 .5139923 .07336426 .5139923 .1733551 .5139923 .2513275 .44999696 .32929994 .33999635 .35229493 .44499208 .39024354 .48298646 .4650879 .48298646 .5260773 .48298646 .60505679 .3919983 .6640625 .2809906 .6640625 .16999817 .6640625 .084991458 .61006167 .084991458 .5300751 .084991458 .49606324 .10699463 .47706605 .13699341 .47706605 .16799927 .47706605 .18798828 .5000763 .18798828 .5280762 .18798828 .5570679 .16799927 .57806399 .13699341 .5800781 .17199707 .62405398 .24099732 .63505557 .27799989 .63505557 .32299806 .63505557 .38598634 .6130676 .38598634 .5260773 .38598634 .48406983 .37199403 .43814088 .34599305 .4072113 .31298829 .36927796 .2849884 .3672943 .23498535 .36428834 .20999146 .3623047 .20799256 .3623047 .20298767 .3612976 .20098877 .3612976 .19299317 .3592987 .19299317 .34829713 .19299317 .33428956 .20199585 .33428956 .21899414 .33428956H.272995Z"/>
<path id="font_5_2" d="M.5049896 .18203736H.47099305C.46798707 .16001892 .45799256 .100997928 .44499208 .09098816 .43699647 .084991458 .3600006 .084991458 .34599305 .084991458H.1619873C.2669983 .17803955 .3019867 .20603943 .3619995 .25306703 .43598939 .312088 .5049896 .374115 .5049896 .46914674 .5049896 .5900879 .39898683 .6640625 .2709961 .6640625 .14698792 .6640625 .06298828 .57710269 .06298828 .4851532 .06298828 .43414308 .10598755 .42915345 .115997318 .42915345 .13999939 .42915345 .16899109 .44615174 .16899109 .48214723 .16899109 .5001526 .1619873 .53515627 .10998535 .53515627 .14099121 .6060791 .20899964 .62805178 .2559967 .62805178 .35598756 .62805178 .4079895 .5501404 .4079895 .46914674 .4079895 .38212586 .34599305 .3130951 .31399537 .27708436L.07299805 .038986207C.06298828 .02999878 .06298828 .027999878 .06298828 0H.47499085L.5049896 .18203736Z"/>
<path id="font_4_2" d="M.33399964 .30233766C.33999635 .32835389 .36299134 .42037965 .43299867 .42037965 .43798829 .42037965 .46199037 .42037965 .48298646 .40734864 .45498658 .402359 .43499757 .37734986 .43499757 .35334779 .43499757 .33735658 .44599916 .31835938 .47299195 .31835938 .49499513 .31835938 .5269928 .3363495 .5269928 .37635804 .5269928 .42837525 .46798707 .4423828 .43399049 .4423828 .37599183 .4423828 .34098817 .38935853 .32899476 .36634828 .3039856 .43237306 .25 .4423828 .22099304 .4423828 .116989139 .4423828 .05999756 .3133545 .05999756 .28834535 .05999756 .27833558 .069992069 .27833558 .07199097 .27833558 .07998657 .27833558 .08299255 .28033448 .084991458 .28933717 .11898804 .39535523 .18499756 .42037965 .21899414 .42037965 .23799134 .42037965 .272995 .4113617 .272995 .35334779 .272995 .32235719 .2559967 .25532533 .21899414 .11528015 .20298767 .053268434 .16799927 .011245728 .12399292 .011245728 .117996219 .011245728 .09498596 .011245728 .07398987 .024276734 .09899902 .029266358 .12098694 .05027771 .12098694 .07827759 .12098694 .105270389 .09899902 .11328125 .083999637 .11328125 .053985597 .11328125 .0289917 .08728027 .0289917 .055267335 .0289917 .009246826 .07899475-.0107421879 .12298584-.0107421879 .18899536-.0107421879 .22499085 .059280397 .22799683 .0652771 .23999024 .028274537 .27598573-.0107421879 .33599855-.0107421879 .43899537-.0107421879 .49598695 .118270877 .49598695 .14328003 .49598695 .1532898 .4869995 .1532898 .48399354 .1532898 .47499085 .1532898 .47299195 .14929199 .47099305 .14228821 .43798829 .03527832 .36999513 .011245728 .33799745 .011245728 .29899598 .011245728 .2829895 .043273927 .2829895 .07727051 .2829895 .09927368 .2889862 .121276859 .2999878 .16529846L.33399964 .30233766Z"/>
<path id="font_5_1" d="M.33499146 .63612368C.33499146 .6630554 .33299256 .6640625 .30499269 .6640625 .24099732 .6014404 .1499939 .6004486 .10899353 .6004486V.5644531C.1329956 .5644531 .19898987 .5644531 .2539978 .592453V.08203125C.2539978 .04899597 .2539978 .035995485 .1539917 .035995485H.115997318V0C.13398743 .0009918213 .25698854 .0039978029 .2939911 .0039978029 .32499696 .0039978029 .45098878 .0009918213 .47299195 0V.035995485H.43499757C.33499146 .035995485 .33499146 .04899597 .33499146 .08203125V.63612368Z"/>
</defs>
<path transform="matrix(1.00003,0,0,-1.00005,1.0964966,217.2571)" stroke-width=".3985" stroke-linecap="butt" stroke-miterlimit="10" stroke-linejoin="miter" fill="none" stroke="#e5e6e5" d="M22.08649 0V215.95595M34.35677 0V215.95595M46.62704 0V215.95595M71.1676 0V215.95595M83.43788 0V215.95595M95.70815 0V215.95595M120.2487 0V215.95595M132.51898 0V215.95595M144.78926 0V215.95595M169.32982 0V215.95595M181.60009 0V215.95595M193.87036 0V215.95595"/>
<path transform="matrix(1.00003,0,0,-1.00005,1.0964966,217.2571)" stroke-width=".3985" stroke-linecap="butt" stroke-miterlimit="10" stroke-linejoin="miter" fill="none" stroke="#cccccc" d="M9.81621 0V215.95595M58.89732 0V215.95595M157.05954 0V215.95595M206.14064 0V215.95595"/>
<path transform="matrix(1.00003,0,0,-1.00005,1.0964966,217.2571)" stroke-width=".3985" stroke-linecap="butt" stroke-miterlimit="10" stroke-linejoin="miter" fill="none" stroke="#e5e6e5" d="M0 13.13245H215.95687M0 20.42825H215.95687M0 27.72408H215.95687M0 42.31569H215.95687M0 49.6115H215.95687M0 56.9073H215.95687M0 71.49893H215.95687M0 78.79474H215.95687M0 86.09055H215.95687M0 100.68216H215.95687M0 107.97797H215.95687M0 115.27379H215.95687M0 129.8654H215.95687M0 137.16121H215.95687M0 144.45702H215.95687M0 159.04865H215.95687M0 166.34445H215.95687M0 173.64026H215.95687M0 188.23188H215.95687M0 195.52768H215.95687M0 202.8235H215.95687"/>
<path transform="matrix(1.00003,0,0,-1.00005,1.0964966,217.2571)" stroke-width=".3985" stroke-linecap="butt" stroke-miterlimit="10" stroke-linejoin="miter" fill="none" stroke="#cccccc" d="M0 5.83664H215.95687M0 35.01988H215.95687M0 64.20311H215.95687M0 122.5696H215.95687M0 151.75283H215.95687M0 180.93607H215.95687M0 210.11931H215.95687"/>
<path transform="matrix(1.00003,0,0,-1.00005,1.0964966,217.2571)" stroke-width=".19925" stroke-linecap="butt" stroke-miterlimit="10" stroke-linejoin="miter" fill="none" stroke="#4c4d4c" d="M22.08649 91.96887V94.80383M34.35677 91.96887V94.80383M46.62704 91.96887V94.80383M71.1676 91.96887V94.80383M83.43788 91.96887V94.80383M95.70815 91.96887V94.80383M120.2487 91.96887V94.80383M132.51898 91.96887V94.80383M144.78926 91.96887V94.80383M169.32982 91.96887V94.80383M181.60009 91.96887V94.80383M193.87036 91.96887V94.80383"/>
<path transform="matrix(1.00003,0,0,-1.00005,1.0964966,217.2571)" stroke-width=".19925" stroke-linecap="butt" stroke-miterlimit="10" stroke-linejoin="miter" fill="none" stroke="#4c4d4c" d="M9.81621 91.26036V95.51233M58.89732 91.26036V95.51233M157.05954 91.26036V95.51233M206.14064 91.26036V95.51233"/>
<path transform="matrix(1.00003,0,0,-1.00005,1.0964966,217.2571)" stroke-width=".19925" stroke-linecap="butt" stroke-miterlimit="10" stroke-linejoin="miter" fill="none" stroke="#4c4d4c" d="M106.56104 13.13245H109.39581M106.56104 20.42825H109.39581M106.56104 27.72408H109.39581M106.56104 42.31569H109.39581M106.56104 49.6115H109.39581M106.56104 56.9073H109.39581M106.56104 71.49893H109.39581M106.56104 78.79474H109.39581M106.56104 86.09055H109.39581M106.56104 100.68216H109.39581M106.56104 107.97797H109.39581M106.56104 115.27379H109.39581M106.56104 129.8654H109.39581M106.56104 137.16121H109.39581M106.56104 144.45702H109.39581M106.56104 159.04865H109.39581M106.56104 166.34445H109.39581M106.56104 173.64026H109.39581M106.56104 188.23188H109.39581M106.56104 195.52768H109.39581M106.56104 202.8235H109.39581"/>
<path transform="matrix(1.00003,0,0,-1.00005,1.0964966,217.2571)" stroke-width=".19925" stroke-linecap="butt" stroke-miterlimit="10" stroke-linejoin="miter" fill="none" stroke="#4c4d4c" d="M105.85257 5.83664H110.10428M105.85257 35.01988H110.10428M105.85257 64.20311H110.10428M105.85257 122.5696H110.10428M105.85257 151.75283H110.10428M105.85257 180.93607H110.10428M105.85257 210.11931H110.10428"/>
<path transform="matrix(1.00003,0,0,-1.00005,1.0964966,217.2571)" stroke-width=".3985" stroke-linecap="butt" stroke-miterlimit="10" stroke-linejoin="miter" fill="none" stroke="#000000" d="M0 93.38635H213.96434"/>
<path transform="matrix(1.00003,0,0,-1.00005,215.06726,123.86608)" d="M1.99252 0-1.19551 1.59401 0 0-1.19551-1.59401"/>
<path transform="matrix(1.00003,0,0,-1.00005,1.0964966,217.2571)" stroke-width=".3985" stroke-linecap="butt" stroke-miterlimit="10" stroke-linejoin="miter" fill="none" stroke="#000000" d="M107.97842 0V213.96343"/>
<path transform="matrix(0,-1.00005,-1.00003,-0,109.078159,3.2829896)" d="M1.99252 0-1.19551 1.59401 0 0-1.19551-1.59401"/>
<use data-text="&#x2212;" xlink:href="#font_1_1" transform="matrix(9.962899,0,0,-9.963098,4.5476,135.93305)"/>
<use data-text="2" xlink:href="#font_2_2" transform="matrix(9.962899,0,0,-9.963098,12.296829,135.93305)"/>
<use data-text="&#x2212;" xlink:href="#font_1_1" transform="matrix(9.962899,0,0,-9.963098,53.630079,135.93305)"/>
<use data-text="1" xlink:href="#font_2_1" transform="matrix(9.962899,0,0,-9.963098,61.379308,135.93305)"/>
<use data-text="1" xlink:href="#font_2_1" transform="matrix(9.962899,0,0,-9.963098,155.67014,135.93305)"/>
<use data-text="2" xlink:href="#font_2_2" transform="matrix(9.962899,0,0,-9.963098,204.75261,135.93305)"/>
<use data-text="&#x2212;" xlink:href="#font_1_1" transform="matrix(9.962899,0,0,-9.963098,90.70219,214.21494)"/>
<use data-text="3" xlink:href="#font_2_3" transform="matrix(9.962899,0,0,-9.963098,98.451419,214.21494)"/>
<use data-text="&#x2212;" xlink:href="#font_1_1" transform="matrix(9.962899,0,0,-9.963098,90.70219,185.03049)"/>
<use data-text="2" xlink:href="#font_2_2" transform="matrix(9.962899,0,0,-9.963098,98.451419,185.03049)"/>
<use data-text="&#x2212;" xlink:href="#font_1_1" transform="matrix(9.962899,0,0,-9.963098,90.70219,155.84603)"/>
<use data-text="1" xlink:href="#font_2_1" transform="matrix(9.962899,0,0,-9.963098,98.451419,155.84603)"/>
<use data-text="1" xlink:href="#font_2_1" transform="matrix(9.962899,0,0,-9.963098,98.45042,97.892139)"/>
<use data-text="2" xlink:href="#font_2_2" transform="matrix(9.962899,0,0,-9.963098,98.45042,68.70668)"/>
<use data-text="3" xlink:href="#font_2_3" transform="matrix(9.962899,0,0,-9.963098,98.45042,39.522218)"/>
<use data-text="4" xlink:href="#font_2_4" transform="matrix(9.962899,0,0,-9.963098,98.45042,10.337769)"/>
<g clip-path="url(#clip_3)">
<path transform="matrix(1.00003,0,0,-1.00005,1.0964966,217.2571)" stroke-width="1.19553" stroke-linecap="butt" stroke-miterlimit="10" stroke-linejoin="miter" fill="none" stroke="#0000ff" d="M107.97842 93.38635 156.44402 151.02086"/>
<path transform="matrix(.6436093,-.7653782,-.765363,-.6436221,157.5452,66.2287)" stroke-width=".9564" stroke-linecap="round" stroke-linejoin="round" fill="none" stroke="#0000ff" d="M-1.91284 2.55046C-1.75343 1.59402 0 .15938 .4782 0 0-.15938-1.75343-1.59402-1.91284-2.55046"/>
<path transform="matrix(1.00003,0,0,-1.00005,1.0964966,217.2571)" stroke-width="1.19553" stroke-linecap="butt" stroke-miterlimit="10" stroke-linejoin="miter" fill="none" stroke="#005959" d="M107.97842 93.38635 205.52512 209.38733"/>
<path transform="matrix(.6436093,-.7653782,-.765363,-.6436221,206.62778,7.859314)" stroke-width=".9564" stroke-linecap="round" stroke-linejoin="round" fill="none" stroke="#005959" d="M-1.91284 2.55046C-1.75343 1.59402 0 .15938 .4782 0 0-.15938-1.75343-1.59402-1.91284-2.55046"/>
<path transform="matrix(1.00003,0,0,-1.00005,1.0964966,217.2571)" stroke-width="1.19553" stroke-linecap="butt" stroke-miterlimit="10" stroke-linejoin="miter" fill="none" stroke="#cc0000" d="M107.97842 93.38635 34.97229 6.56862"/>
<path transform="matrix(-.6436093,.7653782,.765363,.6436221,36.069849,210.68814)" stroke-width=".9564" stroke-linecap="round" stroke-linejoin="round" fill="none" stroke="#cc0000" d="M-1.91284 2.55046C-1.75343 1.59402 0 .15938 .4782 0 0-.15938-1.75343-1.59402-1.91284-2.55046"/>
<path transform="matrix(1.00003,0,0,-1.00005,1.0964966,217.2571)" d="M133.57918 123.85104H141.275V132.96143H133.57918Z" fill="#ffffff"/>
<use data-text="&#x20d7;" xlink:href="#font_4_3" transform="matrix(9.962899,0,0,-9.963098,135.54753,92.40386)"/>
<use data-text="u" xlink:href="#font_4_1" transform="matrix(9.962899,0,0,-9.963098,135.67707,92.40386)"/>
<path transform="matrix(1.00003,0,0,-1.00005,1.0964966,217.2571)" d="M165.44527 176.38088H178.12247V185.49126H165.44527Z" fill="#ffffff"/>
<use data-text="2" xlink:href="#font_2_2" transform="matrix(9.962899,0,0,-9.963098,167.5435,39.87123)"/>
<use data-text="&#x20d7;" xlink:href="#font_4_3" transform="matrix(9.962899,0,0,-9.963098,172.39664,39.87123)"/>
<use data-text="u" xlink:href="#font_4_1" transform="matrix(9.962899,0,0,-9.963098,172.52617,39.87123)"/>
<path transform="matrix(1.00003,0,0,-1.00005,1.0964966,217.2571)" d="M28.36137 36.85231H50.168359V50.69739H28.36137Z" fill="#ffffff"/>
<use data-text="&#x2212;" xlink:href="#font_1_1" transform="matrix(9.962899,0,0,-9.963098,30.455376,175.97104)"/>
<use data-text="3" xlink:href="#font_5_3" transform="matrix(6.9740097,0,0,-6.9741489,39.399644,172.04785)"/>
<path transform="matrix(1.00003,0,0,-1.00005,-52.842126,-25.187005)" stroke-width=".3985" stroke-linecap="butt" stroke-miterlimit="10" stroke-linejoin="miter" fill="none" stroke="#000000" d="M92.239-198.657H96.211"/>
<use data-text="2" xlink:href="#font_5_2" transform="matrix(6.9740097,0,0,-6.9741489,39.399644,179.40723)"/>
<use data-text="&#x20d7;" xlink:href="#font_4_3" transform="matrix(9.962899,0,0,-9.963098,44.438798,175.97104)"/>
<use data-text="u" xlink:href="#font_4_1" transform="matrix(9.962899,0,0,-9.963098,44.56832,175.97104)"/>
</g>
<path transform="matrix(1.00003,0,0,-1.00005,1.0964966,217.2571)" d="M158.85285 151.75283C158.85285 152.74326 158.04996 153.54613 157.05954 153.54613 156.0691 153.54613 155.26624 152.74326 155.26624 151.75283 155.26624 150.7624 156.0691 149.95954 157.05954 149.95954 158.04996 149.95954 158.85285 150.7624 158.85285 151.75283ZM157.05954 151.75283" fill="#0000ff"/>
<path transform="matrix(1.00003,0,0,-1.00005,1.0964966,217.2571)" stroke-width=".3985" stroke-linecap="butt" stroke-miterlimit="10" stroke-linejoin="miter" fill="none" stroke="#0000ff" d="M158.85285 151.75283C158.85285 152.74326 158.04996 153.54613 157.05954 153.54613 156.0691 153.54613 155.26624 152.74326 155.26624 151.75283 155.26624 150.7624 156.0691 149.95954 157.05954 149.95954 158.04996 149.95954 158.85285 150.7624 158.85285 151.75283ZM157.05954 151.75283"/>
<path transform="matrix(1.00003,0,0,-1.00005,1.0964966,217.2571)" stroke-width=".3985" stroke-linecap="butt" stroke-miterlimit="10" stroke-linejoin="miter" fill="none" stroke="#0000ff" d=""/>
<path transform="matrix(1.00003,0,0,-1.00005,1.0964966,217.2571)" d="M207.93395 210.11931C207.93395 211.10973 207.13108 211.91262 206.14064 211.91262 205.15023 211.91262 204.34734 211.10973 204.34734 210.11931 204.34734 209.12888 205.15023 208.326 206.14064 208.326 207.13108 208.326 207.93395 209.12888 207.93395 210.11931ZM206.14064 210.11931" fill="#005959"/>
<path transform="matrix(1.00003,0,0,-1.00005,1.0964966,217.2571)" stroke-width=".3985" stroke-linecap="butt" stroke-miterlimit="10" stroke-linejoin="miter" fill="none" stroke="#005959" d="M207.93395 210.11931C207.93395 211.10973 207.13108 211.91262 206.14064 211.91262 205.15023 211.91262 204.34734 211.10973 204.34734 210.11931 204.34734 209.12888 205.15023 208.326 206.14064 208.326 207.13108 208.326 207.93395 209.12888 207.93395 210.11931ZM206.14064 210.11931"/>
<path transform="matrix(1.00003,0,0,-1.00005,1.0964966,217.2571)" stroke-width=".3985" stroke-linecap="butt" stroke-miterlimit="10" stroke-linejoin="miter" fill="none" stroke="#005959" d=""/>
<path transform="matrix(1.00003,0,0,-1.00005,1.0964966,217.2571)" d="M36.15007 5.83664C36.15007 6.82706 35.3472 7.62994 34.35677 7.62994 33.36635 7.62994 32.56346 6.82706 32.56346 5.83664 32.56346 4.84622 33.36635 4.04333 34.35677 4.04333 35.3472 4.04333 36.15007 4.84622 36.15007 5.83664ZM34.35677 5.83664" fill="#cc0000"/>
<path transform="matrix(1.00003,0,0,-1.00005,1.0964966,217.2571)" stroke-width=".3985" stroke-linecap="butt" stroke-miterlimit="10" stroke-linejoin="miter" fill="none" stroke="#cc0000" d="M36.15007 5.83664C36.15007 6.82706 35.3472 7.62994 34.35677 7.62994 33.36635 7.62994 32.56346 6.82706 32.56346 5.83664 32.56346 4.84622 33.36635 4.04333 34.35677 4.04333 35.3472 4.04333 36.15007 4.84622 36.15007 5.83664ZM34.35677 5.83664"/>
<path transform="matrix(1.00003,0,0,-1.00005,1.0964966,217.2571)" stroke-width=".3985" stroke-linecap="butt" stroke-miterlimit="10" stroke-linejoin="miter" fill="none" stroke="#cc0000" d=""/>
<use data-text="x" xlink:href="#font_4_2" transform="matrix(9.962899,0,0,-9.963098,203.40657,118.83818)"/>
<use data-text="1" xlink:href="#font_5_1" transform="matrix(6.9740097,0,0,-6.9741489,209.10074,120.33226)"/>
<use data-text="x" xlink:href="#font_4_2" transform="matrix(9.962899,0,0,-9.963098,112.61285,9.069702)"/>
<use data-text="2" xlink:href="#font_5_2" transform="matrix(6.9740097,0,0,-6.9741489,118.307018,10.563782)"/>
</svg>
