<svg xmlns="http://www.w3.org/2000/svg" xmlns:xlink="http://www.w3.org/1999/xlink" xmlns:inkscape="http://www.inkscape.org/namespaces/inkscape" version="1.1" width="355" height="256" viewBox="0 0 355 256">
<defs>
<path id="font_1_1" d="M.6589966 .23046875C.6759949 .23046875 .69400027 .23046875 .69400027 .25045777 .69400027 .27046205 .6759949 .27046205 .6589966 .27046205H.117996219C.100997928 .27046205 .08299255 .27046205 .08299255 .25045777 .08299255 .23046875 .100997928 .23046875 .117996219 .23046875H.6589966Z"/>
<path id="font_2_4" d="M.16299439 .4569702C.116989139 .486969 .11299133 .52098086 .11299133 .5379791 .11299133 .598999 .17799378 .64100649 .24899292 .64100649 .32199098 .64100649 .38598634 .58898928 .38598634 .51698306 .38598634 .45996095 .34700013 .4119568 .2869873 .37695313L.16299439 .4569702M.30899049 .36193849C.3809967 .3989563 .42999269 .45095826 .42999269 .51698306 .42999269 .6090088 .34098817 .6660156 .25 .6660156 .1499939 .6660156 .068984989 .59199526 .068984989 .49897767 .068984989 .4809723 .070999149 .43595887 .11299133 .38894654 .12399292 .37695313 .16099549 .35194398 .18598938 .33494569 .12799073 .30592347 .041992189 .24984741 .041992189 .15072632 .041992189 .04458618 .14399719-.022460938 .24899292-.022460938 .3619995-.022460938 .45700074 .06060791 .45700074 .16773987 .45700074 .20379639 .44599916 .24885559 .4079895 .2909088 .3889923 .31193543 .37298585 .3219452 .30899049 .36193849M.20899964 .3199463 .33198548 .24183655C.3600006 .2228241 .40699769 .19277954 .40699769 .13169861 .40699769 .05760193 .33198548 .0055389406 .25 .0055389406 .1639862 .0055389406 .09199524 .067611698 .09199524 .15072632 .09199524 .20880127 .12399292 .27288819 .20899964 .3199463Z"/>
<path id="font_2_3" d="M.13198853 .327713V.35173036C.13198853 .6047821 .2559967 .64100649 .30699159 .64100649 .33099366 .64100649 .37298585 .634964 .394989 .6007538 .37998963 .6007538 .33999635 .6007538 .33999635 .5557556 .33999635 .524765 .3639984 .5097656 .38598634 .5097656 .4019928 .5097656 .43199159 .51875308 .43199159 .5577545 .43199159 .6178589 .3880005 .6660156 .30499269 .6660156 .1769867 .6660156 .041992189 .5367584 .041992189 .31570436 .041992189 .048553468 .1579895-.022460938 .25099183-.022460938 .3619995-.022460938 .45700074 .07156372 .45700074 .2036438 .45700074 .33070375 .36799623 .4267578 .25698854 .4267578 .18899536 .4267578 .1519928 .37573243 .13198853 .327713M.25099183 .0055389406C.18798828 .0055389406 .1579895 .06556702 .1519928 .080566409 .13398743 .127594 .13398743 .2076416 .13398743 .22564698 .13398743 .30369569 .1659851 .40374757 .2559967 .40374757 .27198792 .40374757 .31799317 .40374757 .34899903 .34172059 .36698915 .30470277 .36698915 .2536621 .36698915 .20463562 .36698915 .15661621 .36698915 .10658264 .34999085 .0705719 .31999208 .010528564 .27398683 .0055389406 .25099183 .0055389406Z"/>
<path id="font_2_2" d="M.2939911 .16503906V.07800293C.2939911 .041992189 .2919922 .0309906 .21798706 .0309906H.19699097V0C.23799134 .0029907227 .2899933 .0029907227 .33198548 .0029907227 .37399293 .0029907227 .4269867 .0029907227 .46798707 0V.0309906H.44699098C.37298585 .0309906 .37098695 .041992189 .37098695 .07800293V.16503906H.47099305V.19602967H.37098695V.65075686C.37098695 .67074587 .37098695 .6767578 .35499574 .6767578 .34599305 .6767578 .34298707 .6767578 .33499146 .66474917L.027999878 .19602967V.16503906H.2939911M.2999878 .19602967H.055999757L.2999878 .5688019V.19602967Z"/>
<path id="font_2_1" d="M.1269989 .07699585 .23298645 .18003845C.3889923 .31811524 .44898988 .3721466 .44898988 .47216798 .44898988 .5860901 .35899354 .6660156 .23699951 .6660156 .12399292 .6660156 .049987794 .57411196 .049987794 .48516847 .049987794 .4291687 .099990848 .4291687 .102996829 .4291687 .11999512 .4291687 .15499878 .44117738 .15499878 .48217774 .15499878 .5081787 .13699341 .5341797 .101989749 .5341797 .09399414 .5341797 .09199524 .5341797 .08898926 .5331726 .11199951 .59806826 .1659851 .63500979 .22399903 .63500979 .31498719 .63500979 .35798646 .5541382 .35798646 .47216798 .35798646 .39215089 .30799867 .31311036 .25299073 .25108338L.06098938 .036987306C.049987794 .025985718 .049987794 .023986817 .049987794 0H.42099L.44898988 .17404175H.42399598C.4189911 .14402771 .4119873 .1000061 .4019928 .084991458 .394989 .07699585 .32899476 .07699585 .30699159 .07699585H.1269989Z"/>
<clipPath id="clip_3">
<path transform="matrix(1.00002,0,0,-1.00005,-71.37979,544.61038)" d="M72.47527 289.9851H424.49806V542.7926H72.47527Z"/>
</clipPath>
<path id="font_4_5" d="M.5369873 .5947571C.522995 .5818329 .48999024 .55400088 .48999024 .5361023 .48999024 .5261078 .5 .516098 .5099945 .516098 .5189972 .516098 .5239868 .5231018 .5289917 .5290985 .54100039 .5440674 .56399539 .5718994 .60798647 .59376528 .61499026 .59776309 .625 .6027527 .625 .61476138 .625 .62475588 .6179962 .62976077 .61099246 .6347656 .58898928 .6497803 .5779877 .66781619 .56999209 .69184878 .56799319 .7008667 .56399539 .7138672 .5499878 .7138672 .5359955 .7138672 .5299988 .7008667 .5299988 .69285586 .5299988 .68785098 .5379944 .65579226 .55400088 .6347656H.21699524C.19999695 .6347656 .18199158 .6347656 .18199158 .61476138 .18199158 .5947571 .19999695 .5947571 .21699524 .5947571H.5369873Z"/>
<path id="font_4_1" d="M.37298585 .37835694C.35499574 .41537477 .32598878 .4423828 .2809906 .4423828 .1639862 .4423828 .039993287 .29533387 .039993287 .14929199 .039993287 .055267335 .09498596-.0107421879 .17298889-.0107421879 .19299317-.0107421879 .24299622-.0067443849 .30299378 .06427002 .31098939 .022247315 .34599305-.0107421879 .3939972-.0107421879 .42900086-.0107421879 .45199586 .012252808 .46798707 .044265748 .4850006 .08027649 .49798585 .14129639 .49798585 .14329529 .49798585 .1532898 .4889984 .1532898 .48599244 .1532898 .47599793 .1532898 .47499085 .14929199 .47200013 .13528443 .45498658 .07026672 .43699647 .011245728 .3959961 .011245728 .36898805 .011245728 .3659973 .037261964 .3659973 .057266237 .3659973 .07926941 .36799623 .08728027 .3789978 .13128662 .3899994 .17329407 .3919983 .18330384 .40098573 .22131348L.43699647 .36135865C.44400025 .38935853 .44400025 .39135743 .44400025 .39537049 .44400025 .41236878 .43199159 .42237855 .4149933 .42237855 .3909912 .42237855 .37599183 .4003601 .37298585 .37835694M.30799867 .119277957C.30299378 .10127258 .30299378 .09927368 .28799439 .08227539 .24398804 .027252198 .20298767 .011245728 .1749878 .011245728 .125 .011245728 .11099243 .06626892 .11099243 .105285648 .11099243 .1552887 .14299011 .27833558 .1659851 .32434083 .19699097 .38336183 .24198914 .42037965 .28199769 .42037965 .34700013 .42037965 .36099244 .3383484 .36099244 .33235169 .36099244 .32633973 .35899354 .32034303 .35798646 .31533814L.30799867 .119277957Z"/>
<path id="font_4_2" d="M.23899842 .68333438C.23899842 .6843262 .23899842 .69433596 .22599793 .69433596 .20298767 .69433596 .12998963 .6863251 .10398865 .6843262 .09599304 .68333438 .084991458 .6823273 .084991458 .6643219 .084991458 .6523285 .09399414 .6523285 .10899353 .6523285 .15699768 .6523285 .15899658 .6453247 .15899658 .6353302 .15899658 .6283264 .1499939 .5943451 .14498902 .573349L.06298828 .24731446C.050994874 .1973114 .04699707 .18130493 .04699707 .14628601 .04699707 .05126953 .099990848-.0107421879 .17399597-.0107421879 .2919922-.0107421879 .4149933 .1382904 .4149933 .28233338 .4149933 .37335206 .3619995 .4423828 .28199769 .4423828 .23599243 .4423828 .19499207 .41337586 .16499329 .38235475L.23899842 .68333438M.14498902 .30534364C.15098572 .3273468 .15098572 .3293457 .1599884 .3403473 .20899964 .405365 .2539978 .42037965 .27999879 .42037965 .31599427 .42037965 .34298707 .3903656 .34298707 .32633973 .34298707 .26733399 .30999757 .15229798 .2919922 .11428833 .25898744 .04725647 .21299744 .011245728 .17399597 .011245728 .13999939 .011245728 .10699463 .038253786 .10699463 .11227417 .10699463 .13128662 .10699463 .15029907 .12298584 .21331787L.14498902 .30534364Z"/>
<path id="font_4_3" d="M.3959961 .37998963C.37998963 .37998963 .3659973 .37998963 .35198976 .36598207 .33599855 .35098268 .33399964 .33398438 .33399964 .3269806 .33399964 .30297853 .35198976 .2919922 .37098695 .2919922 .3999939 .2919922 .4269867 .315979 .4269867 .35598756 .4269867 .40522767 .37998963 .4423828 .30899049 .4423828 .17399597 .4423828 .040985109 .2989807 .040985109 .15811157 .040985109 .06819153 .09899902-.0107421879 .20298767-.0107421879 .34599305-.0107421879 .42999269 .09516907 .42999269 .107162479 .42999269 .11315918 .42399598 .120147708 .41799928 .120147708 .41299439 .120147708 .41099549 .1181488 .40499879 .1101532 .32598878 .011245728 .21699524 .011245728 .20498657 .011245728 .14199829 .011245728 .114990238 .06021118 .114990238 .120147708 .114990238 .1611023 .1349945 .25801087 .16899109 .31999208 .19999695 .37698365 .25498963 .42037965 .30999757 .42037965 .34399415 .42037965 .38198854 .40724183 .3959961 .37998963Z"/>
<path id="font_4_4" d="M.33399964 .30233766C.33999635 .32835389 .36299134 .42037965 .43299867 .42037965 .43798829 .42037965 .46199037 .42037965 .48298646 .40734864 .45498658 .402359 .43499757 .37734986 .43499757 .35334779 .43499757 .33735658 .44599916 .31835938 .47299195 .31835938 .49499513 .31835938 .5269928 .3363495 .5269928 .37635804 .5269928 .42837525 .46798707 .4423828 .43399049 .4423828 .37599183 .4423828 .34098817 .38935853 .32899476 .36634828 .3039856 .43237306 .25 .4423828 .22099304 .4423828 .116989139 .4423828 .05999756 .3133545 .05999756 .28834535 .05999756 .27833558 .069992069 .27833558 .07199097 .27833558 .07998657 .27833558 .08299255 .28033448 .084991458 .28933717 .11898804 .39535523 .18499756 .42037965 .21899414 .42037965 .23799134 .42037965 .272995 .4113617 .272995 .35334779 .272995 .32235719 .2559967 .25532533 .21899414 .11528015 .20298767 .053268434 .16799927 .011245728 .12399292 .011245728 .117996219 .011245728 .09498596 .011245728 .07398987 .024276734 .09899902 .029266358 .12098694 .05027771 .12098694 .07827759 .12098694 .105270389 .09899902 .11328125 .083999637 .11328125 .053985597 .11328125 .0289917 .08728027 .0289917 .055267335 .0289917 .009246826 .07899475-.0107421879 .12298584-.0107421879 .18899536-.0107421879 .22499085 .059280397 .22799683 .0652771 .23999024 .028274537 .27598573-.0107421879 .33599855-.0107421879 .43899537-.0107421879 .49598695 .118270877 .49598695 .14328003 .49598695 .1532898 .4869995 .1532898 .48399354 .1532898 .47499085 .1532898 .47299195 .14929199 .47099305 .14228821 .43798829 .03527832 .36999513 .011245728 .33799745 .011245728 .29899598 .011245728 .2829895 .043273927 .2829895 .07727051 .2829895 .09927368 .2889862 .121276859 .2999878 .16529846L.33399964 .30233766Z"/>
<path id="font_5_1" d="M.33499146 .63612368C.33499146 .6630554 .33299256 .6640625 .30499269 .6640625 .24099732 .6014404 .1499939 .6004486 .10899353 .6004486V.5644531C.1329956 .5644531 .19898987 .5644531 .2539978 .592453V.08203125C.2539978 .04899597 .2539978 .035995485 .1539917 .035995485H.115997318V0C.13398743 .0009918213 .25698854 .0039978029 .2939911 .0039978029 .32499696 .0039978029 .45098878 .0009918213 .47299195 0V.035995485H.43499757C.33499146 .035995485 .33499146 .04899597 .33499146 .08203125V.63612368Z"/>
<path id="font_5_2" d="M.5049896 .18203736H.47099305C.46798707 .16001892 .45799256 .100997928 .44499208 .09098816 .43699647 .084991458 .3600006 .084991458 .34599305 .084991458H.1619873C.2669983 .17803955 .3019867 .20603943 .3619995 .25306703 .43598939 .312088 .5049896 .374115 .5049896 .46914674 .5049896 .5900879 .39898683 .6640625 .2709961 .6640625 .14698792 .6640625 .06298828 .57710269 .06298828 .4851532 .06298828 .43414308 .10598755 .42915345 .115997318 .42915345 .13999939 .42915345 .16899109 .44615174 .16899109 .48214723 .16899109 .5001526 .1619873 .53515627 .10998535 .53515627 .14099121 .6060791 .20899964 .62805178 .2559967 .62805178 .35598756 .62805178 .4079895 .5501404 .4079895 .46914674 .4079895 .38212586 .34599305 .3130951 .31399537 .27708436L.07299805 .038986207C.06298828 .02999878 .06298828 .027999878 .06298828 0H.47499085L.5049896 .18203736Z"/>
</defs>
<path transform="matrix(1.00002,0,0,-1.00005,-71.37979,544.61038)" stroke-width=".19925" stroke-linecap="butt" stroke-miterlimit="10" stroke-linejoin="miter" fill="none" stroke="#000000" d="M82.82889 414.2626V418.51515M124.24333 414.2626V418.51515M165.65778 414.2626V418.51515M207.07222 414.2626V418.51515M289.90113 414.2626V418.51515M331.31556 414.2626V418.51515M372.73 414.2626V418.51515M414.14445 414.2626V418.51515"/>
<path transform="matrix(1.00002,0,0,-1.00005,-71.37979,544.61038)" stroke-width=".19925" stroke-linecap="butt" stroke-miterlimit="10" stroke-linejoin="miter" fill="none" stroke="#000000" d="M246.36035 297.42063H250.61296M246.36035 327.16267H250.61296M246.36035 356.90476H250.61296M246.36035 386.6468H250.61296M246.36035 446.13096H250.61296M246.36035 475.873H250.61296M246.36035 505.61506H250.61296M246.36035 535.3571H250.61296"/>
<path transform="matrix(1.00002,0,0,-1.00005,-71.37979,544.61038)" stroke-width=".3985" stroke-linecap="butt" stroke-miterlimit="10" stroke-linejoin="miter" fill="none" stroke="#000000" d="M72.47527 416.38887H422.50556"/>
<path transform="matrix(1.00002,0,0,-1.00005,351.13423,128.20069)" d="M1.99252 0-1.19551 1.59401 0 0-1.19551-1.59401"/>
<path transform="matrix(1.00002,0,0,-1.00005,-71.37979,544.61038)" stroke-width=".3985" stroke-linecap="butt" stroke-miterlimit="10" stroke-linejoin="miter" fill="none" stroke="#000000" d="M248.48667 289.9851V540.8001"/>
<path transform="matrix(0,-1.00005,-1.00002,-0,177.11185,3.7832032)" d="M1.99252 0-1.19551 1.59401 0 0-1.19551-1.59401"/>
<use data-text="&#x2212;" xlink:href="#font_1_1" transform="matrix(9.962799,0,0,-9.963098,5.085743,140.26816)"/>
<use data-text="8" xlink:href="#font_2_4" transform="matrix(9.962799,0,0,-9.963098,12.834898,140.26816)"/>
<use data-text="&#x2212;" xlink:href="#font_1_1" transform="matrix(9.962799,0,0,-9.963098,46.50057,140.26816)"/>
<use data-text="6" xlink:href="#font_2_3" transform="matrix(9.962799,0,0,-9.963098,54.249727,140.26816)"/>
<use data-text="&#x2212;" xlink:href="#font_1_1" transform="matrix(9.962799,0,0,-9.963098,87.9164,140.26816)"/>
<use data-text="4" xlink:href="#font_2_2" transform="matrix(9.962799,0,0,-9.963098,95.66556,140.26816)"/>
<use data-text="&#x2212;" xlink:href="#font_1_1" transform="matrix(9.962799,0,0,-9.963098,129.33123,140.26816)"/>
<use data-text="2" xlink:href="#font_2_1" transform="matrix(9.962799,0,0,-9.963098,137.08039,140.26816)"/>
<use data-text="2" xlink:href="#font_2_1" transform="matrix(9.962799,0,0,-9.963098,216.03598,140.26816)"/>
<use data-text="4" xlink:href="#font_2_2" transform="matrix(9.962799,0,0,-9.963098,257.4518,140.26816)"/>
<use data-text="6" xlink:href="#font_2_3" transform="matrix(9.962799,0,0,-9.963098,298.86665,140.26816)"/>
<use data-text="8" xlink:href="#font_2_4" transform="matrix(9.962799,0,0,-9.963098,340.28248,140.26816)"/>
<use data-text="&#x2212;" xlink:href="#font_1_1" transform="matrix(9.962799,0,0,-9.963098,158.73482,249.97064)"/>
<use data-text="8" xlink:href="#font_2_4" transform="matrix(9.962799,0,0,-9.963098,166.48398,249.97064)"/>
<use data-text="&#x2212;" xlink:href="#font_1_1" transform="matrix(9.962799,0,0,-9.963098,158.73482,220.22614)"/>
<use data-text="6" xlink:href="#font_2_3" transform="matrix(9.962799,0,0,-9.963098,166.48398,220.22614)"/>
<use data-text="&#x2212;" xlink:href="#font_1_1" transform="matrix(9.962799,0,0,-9.963098,158.73482,190.48267)"/>
<use data-text="4" xlink:href="#font_2_2" transform="matrix(9.962799,0,0,-9.963098,166.48398,190.48267)"/>
<use data-text="&#x2212;" xlink:href="#font_1_1" transform="matrix(9.962799,0,0,-9.963098,158.73482,160.7392)"/>
<use data-text="2" xlink:href="#font_2_1" transform="matrix(9.962799,0,0,-9.963098,166.48398,160.7392)"/>
<use data-text="2" xlink:href="#font_2_1" transform="matrix(9.962799,0,0,-9.963098,166.48397,101.66724)"/>
<use data-text="4" xlink:href="#font_2_2" transform="matrix(9.962799,0,0,-9.963098,166.48397,71.92374)"/>
<use data-text="6" xlink:href="#font_2_3" transform="matrix(9.962799,0,0,-9.963098,166.48397,42.180269)"/>
<use data-text="8" xlink:href="#font_2_4" transform="matrix(9.962799,0,0,-9.963098,166.48397,12.436829)"/>
<g clip-path="url(#clip_3)">
<path transform="matrix(1.00002,0,0,-1.00005,-71.37979,544.61038)" stroke-width=".3985" stroke-linecap="butt" stroke-miterlimit="10" stroke-linejoin="miter" fill="none" stroke="#a6a6a6" d="M0 89.22618 20.70721 96.6617 41.41444 104.09721 62.12166 111.53273 82.82889 118.96825 103.5361 126.40376 124.24333 133.83928 144.95055 141.2748 165.65778 148.71031 186.365 156.14583 207.07222 163.58133 227.77945 171.01685 248.48667 178.45236 269.1939 185.88788 289.90113 193.3234 310.60835 200.75891 331.31556 208.19443 352.02278 215.62995 372.73 223.06546 393.43724 230.50098 414.14445 237.9365 434.85169 245.37201 455.5589 252.80753 476.2661 260.24305 496.97334 267.67857"/>
<path transform="matrix(1.00002,0,0,-1.00005,-71.37979,544.61038)" stroke-width=".3985" stroke-linecap="butt" stroke-miterlimit="10" stroke-linejoin="miter" fill="none" stroke="#a6a6a6" d="M0 356.90476 20.70721 342.0337 41.41444 327.16267 62.12166 312.29167 82.82889 297.42063 103.5361 282.5496 124.24333 267.67857 144.95055 252.80753 165.65778 237.9365 186.365 223.06546 207.07222 208.19443 227.77945 193.3234 248.48667 178.45236 269.1939 163.58133 289.90113 148.71031 310.60835 133.83928 331.31556 118.96825 352.02278 104.09721 372.73 89.22618 393.43724 74.35515 414.14445 59.48412 434.85169 44.61308 455.5589 29.74205 476.2661 14.87102 496.97334 0"/>
<path transform="matrix(1.00002,0,0,-1.00005,-71.37979,544.61038)" stroke-width=".3985" stroke-linecap="butt" stroke-miterlimit="10" stroke-linejoin="miter" fill="none" stroke="#a6a6a6" d="M0 118.96825 20.70721 126.40376 41.41444 133.83928 62.12166 141.2748 82.82889 148.71031 103.5361 156.14583 124.24333 163.58133 144.95055 171.01685 165.65778 178.45236 186.365 185.88788 207.07222 193.3234 227.77945 200.75891 248.48667 208.19443 269.1939 215.62995 289.90113 223.06546 310.60835 230.50098 331.31556 237.9365 352.02278 245.37201 372.73 252.80753 393.43724 260.24305 414.14445 267.67857 434.85169 275.11408 455.5589 282.5496 476.2661 289.9851 496.97334 297.42063"/>
<path transform="matrix(1.00002,0,0,-1.00005,-71.37979,544.61038)" stroke-width=".3985" stroke-linecap="butt" stroke-miterlimit="10" stroke-linejoin="miter" fill="none" stroke="#a6a6a6" d="M0 386.6468 20.70721 371.77577 41.41444 356.90476 62.12166 342.0337 82.82889 327.16267 103.5361 312.29167 124.24333 297.42063 144.95055 282.5496 165.65778 267.67857 186.365 252.80753 207.07222 237.9365 227.77945 223.06546 248.48667 208.19443 269.1939 193.3234 289.90113 178.45236 310.60835 163.58133 331.31556 148.71031 352.02278 133.83928 372.73 118.96825 393.43724 104.09721 414.14445 89.22618 434.85169 74.35515 455.5589 59.48412 476.2661 44.61308 496.97334 29.74205"/>
<path transform="matrix(1.00002,0,0,-1.00005,-71.37979,544.61038)" stroke-width=".3985" stroke-linecap="butt" stroke-miterlimit="10" stroke-linejoin="miter" fill="none" stroke="#a6a6a6" d="M0 148.71031 20.70721 156.14583 41.41444 163.58133 62.12166 171.01685 82.82889 178.45236 103.5361 185.88788 124.24333 193.3234 144.95055 200.75891 165.65778 208.19443 186.365 215.62995 207.07222 223.06546 227.77945 230.50098 248.48667 237.9365 269.1939 245.37201 289.90113 252.80753 310.60835 260.24305 331.31556 267.67857 352.02278 275.11408 372.73 282.5496 393.43724 289.9851 414.14445 297.42063 434.85169 304.85615 455.5589 312.29167 476.2661 319.72718 496.97334 327.16267"/>
<path transform="matrix(1.00002,0,0,-1.00005,-71.37979,544.61038)" stroke-width=".3985" stroke-linecap="butt" stroke-miterlimit="10" stroke-linejoin="miter" fill="none" stroke="#a6a6a6" d="M0 416.38887 20.70721 401.51786 41.41444 386.6468 62.12166 371.77577 82.82889 356.90476 103.5361 342.0337 124.24333 327.16267 144.95055 312.29167 165.65778 297.42063 186.365 282.5496 207.07222 267.67857 227.77945 252.80753 248.48667 237.9365 269.1939 223.06546 289.90113 208.19443 310.60835 193.3234 331.31556 178.45236 352.02278 163.58133 372.73 148.71031 393.43724 133.83928 414.14445 118.96825 434.85169 104.09721 455.5589 89.22618 476.2661 74.35515 496.97334 59.48412"/>
<path transform="matrix(1.00002,0,0,-1.00005,-71.37979,544.61038)" stroke-width=".3985" stroke-linecap="butt" stroke-miterlimit="10" stroke-linejoin="miter" fill="none" stroke="#a6a6a6" d="M0 178.45236 20.70721 185.88788 41.41444 193.3234 62.12166 200.75891 82.82889 208.19443 103.5361 215.62995 124.24333 223.06546 144.95055 230.50098 165.65778 237.9365 186.365 245.37201 207.07222 252.80753 227.77945 260.24305 248.48667 267.67857 269.1939 275.11408 289.90113 282.5496 310.60835 289.9851 331.31556 297.42063 352.02278 304.85615 372.73 312.29167 393.43724 319.72718 414.14445 327.16267 434.85169 334.59819 455.5589 342.0337 476.2661 349.4692 496.97334 356.90476"/>
<path transform="matrix(1.00002,0,0,-1.00005,-71.37979,544.61038)" stroke-width=".3985" stroke-linecap="butt" stroke-miterlimit="10" stroke-linejoin="miter" fill="none" stroke="#a6a6a6" d="M0 446.13096 20.70721 431.2599 41.41444 416.38887 62.12166 401.51786 82.82889 386.6468 103.5361 371.77577 124.24333 356.90476 144.95055 342.0337 165.65778 327.16267 186.365 312.29167 207.07222 297.42063 227.77945 282.5496 248.48667 267.67857 269.1939 252.80753 289.90113 237.9365 310.60835 223.06546 331.31556 208.19443 352.02278 193.3234 372.73 178.45236 393.43724 163.58133 414.14445 148.71031 434.85169 133.83928 455.5589 118.96825 476.2661 104.09721 496.97334 89.22618"/>
<path transform="matrix(1.00002,0,0,-1.00005,-71.37979,544.61038)" stroke-width=".3985" stroke-linecap="butt" stroke-miterlimit="10" stroke-linejoin="miter" fill="none" stroke="#a6a6a6" d="M0 208.19443 20.70721 215.62995 41.41444 223.06546 62.12166 230.50098 82.82889 237.9365 103.5361 245.37201 124.24333 252.80753 144.95055 260.24305 165.65778 267.67857 186.365 275.11408 207.07222 282.5496 227.77945 289.9851 248.48667 297.42063 269.1939 304.85615 289.90113 312.29167 310.60835 319.72718 331.31556 327.16267 352.02278 334.59819 372.73 342.0337 393.43724 349.4692 414.14445 356.90476 434.85169 364.34028 455.5589 371.77577 476.2661 379.2113 496.97334 386.6468"/>
<path transform="matrix(1.00002,0,0,-1.00005,-71.37979,544.61038)" stroke-width=".3985" stroke-linecap="butt" stroke-miterlimit="10" stroke-linejoin="miter" fill="none" stroke="#a6a6a6" d="M0 475.873 20.70721 461.00199 41.41444 446.13096 62.12166 431.2599 82.82889 416.38887 103.5361 401.51786 124.24333 386.6468 144.95055 371.77577 165.65778 356.90476 186.365 342.0337 207.07222 327.16267 227.77945 312.29167 248.48667 297.42063 269.1939 282.5496 289.90113 267.67857 310.60835 252.80753 331.31556 237.9365 352.02278 223.06546 372.73 208.19443 393.43724 193.3234 414.14445 178.45236 434.85169 163.58133 455.5589 148.71031 476.2661 133.83928 496.97334 118.96825"/>
<path transform="matrix(1.00002,0,0,-1.00005,-71.37979,544.61038)" stroke-width=".3985" stroke-linecap="butt" stroke-miterlimit="10" stroke-linejoin="miter" fill="none" stroke="#a6a6a6" d="M0 237.9365 20.70721 245.37201 41.41444 252.80753 62.12166 260.24305 82.82889 267.67857 103.5361 275.11408 124.24333 282.5496 144.95055 289.9851 165.65778 297.42063 186.365 304.85615 207.07222 312.29167 227.77945 319.72718 248.48667 327.16267 269.1939 334.59819 289.90113 342.0337 310.60835 349.4692 331.31556 356.90476 352.02278 364.34028 372.73 371.77577 393.43724 379.2113 414.14445 386.6468 434.85169 394.0823 455.5589 401.51786 476.2661 408.95335 496.97334 416.38887"/>
<path transform="matrix(1.00002,0,0,-1.00005,-71.37979,544.61038)" stroke-width=".3985" stroke-linecap="butt" stroke-miterlimit="10" stroke-linejoin="miter" fill="none" stroke="#a6a6a6" d="M0 505.61506 20.70721 490.74403 41.41444 475.873 62.12166 461.00199 82.82889 446.13096 103.5361 431.2599 124.24333 416.38887 144.95055 401.51786 165.65778 386.6468 186.365 371.77577 207.07222 356.90476 227.77945 342.0337 248.48667 327.16267 269.1939 312.29167 289.90113 297.42063 310.60835 282.5496 331.31556 267.67857 352.02278 252.80753 372.73 237.9365 393.43724 223.06546 414.14445 208.19443 434.85169 193.3234 455.5589 178.45236 476.2661 163.58133 496.97334 148.71031"/>
<path transform="matrix(1.00002,0,0,-1.00005,-71.37979,544.61038)" stroke-width=".3985" stroke-linecap="butt" stroke-miterlimit="10" stroke-linejoin="miter" fill="none" stroke="#a6a6a6" d="M0 267.67857 20.70721 275.11408 41.41444 282.5496 62.12166 289.9851 82.82889 297.42063 103.5361 304.85615 124.24333 312.29167 144.95055 319.72718 165.65778 327.16267 186.365 334.59819 207.07222 342.0337 227.77945 349.4692 248.48667 356.90476 269.1939 364.34028 289.90113 371.77577 310.60835 379.2113 331.31556 386.6468 352.02278 394.0823 372.73 401.51786 393.43724 408.95335 414.14445 416.38887 434.85169 423.8244 455.5589 431.2599 476.2661 438.69544 496.97334 446.13096"/>
<path transform="matrix(1.00002,0,0,-1.00005,-71.37979,544.61038)" stroke-width=".3985" stroke-linecap="butt" stroke-miterlimit="10" stroke-linejoin="miter" fill="none" stroke="#a6a6a6" d="M0 535.3571 20.70721 520.4861 41.41444 505.61506 62.12166 490.74403 82.82889 475.873 103.5361 461.00199 124.24333 446.13096 144.95055 431.2599 165.65778 416.38887 186.365 401.51786 207.07222 386.6468 227.77945 371.77577 248.48667 356.90476 269.1939 342.0337 289.90113 327.16267 310.60835 312.29167 331.31556 297.42063 352.02278 282.5496 372.73 267.67857 393.43724 252.80753 414.14445 237.9365 434.85169 223.06546 455.5589 208.19443 476.2661 193.3234 496.97334 178.45236"/>
<path transform="matrix(1.00002,0,0,-1.00005,-71.37979,544.61038)" stroke-width=".3985" stroke-linecap="butt" stroke-miterlimit="10" stroke-linejoin="miter" fill="none" stroke="#a6a6a6" d="M0 297.42063 20.70721 304.85615 41.41444 312.29167 62.12166 319.72718 82.82889 327.16267 103.5361 334.59819 124.24333 342.0337 144.95055 349.4692 165.65778 356.90476 186.365 364.34028 207.07222 371.77577 227.77945 379.2113 248.48667 386.6468 269.1939 394.0823 289.90113 401.51786 310.60835 408.95335 331.31556 416.38887 352.02278 423.8244 372.73 431.2599 393.43724 438.69544 414.14445 446.13096 434.85169 453.56645 455.5589 461.00199 476.2661 468.43748 496.97334 475.873"/>
<path transform="matrix(1.00002,0,0,-1.00005,-71.37979,544.61038)" stroke-width=".3985" stroke-linecap="butt" stroke-miterlimit="10" stroke-linejoin="miter" fill="none" stroke="#a6a6a6" d="M0 565.0992 20.70721 550.22817 41.41444 535.3571 62.12166 520.4861 82.82889 505.61506 103.5361 490.74403 124.24333 475.873 144.95055 461.00199 165.65778 446.13096 186.365 431.2599 207.07222 416.38887 227.77945 401.51786 248.48667 386.6468 269.1939 371.77577 289.90113 356.90476 310.60835 342.0337 331.31556 327.16267 352.02278 312.29167 372.73 297.42063 393.43724 282.5496 414.14445 267.67857 434.85169 252.80753 455.5589 237.9365 476.2661 223.06546 496.97334 208.19443"/>
<path transform="matrix(1.00002,0,0,-1.00005,-71.37979,544.61038)" stroke-width=".3985" stroke-linecap="butt" stroke-miterlimit="10" stroke-linejoin="miter" fill="none" stroke="#a6a6a6" d="M0 327.16267 20.70721 334.59819 41.41444 342.0337 62.12166 349.4692 82.82889 356.90476 103.5361 364.34028 124.24333 371.77577 144.95055 379.2113 165.65778 386.6468 186.365 394.0823 207.07222 401.51786 227.77945 408.95335 248.48667 416.38887 269.1939 423.8244 289.90113 431.2599 310.60835 438.69544 331.31556 446.13096 352.02278 453.56645 372.73 461.00199 393.43724 468.43748 414.14445 475.873 434.85169 483.30854 455.5589 490.74403 476.2661 498.17955 496.97334 505.61506"/>
<path transform="matrix(1.00002,0,0,-1.00005,-71.37979,544.61038)" stroke-width=".3985" stroke-linecap="butt" stroke-miterlimit="10" stroke-linejoin="miter" fill="none" stroke="#a6a6a6" d="M0 594.84127 20.70721 579.9702 41.41444 565.0992 62.12166 550.22817 82.82889 535.3571 103.5361 520.4861 124.24333 505.61506 144.95055 490.74403 165.65778 475.873 186.365 461.00199 207.07222 446.13096 227.77945 431.2599 248.48667 416.38887 269.1939 401.51786 289.90113 386.6468 310.60835 371.77577 331.31556 356.90476 352.02278 342.0337 372.73 327.16267 393.43724 312.29167 414.14445 297.42063 434.85169 282.5496 455.5589 267.67857 476.2661 252.80753 496.97334 237.9365"/>
<path transform="matrix(1.00002,0,0,-1.00005,-71.37979,544.61038)" stroke-width=".3985" stroke-linecap="butt" stroke-miterlimit="10" stroke-linejoin="miter" fill="none" stroke="#a6a6a6" d="M0 356.90476 20.70721 364.34028 41.41444 371.77577 62.12166 379.2113 82.82889 386.6468 103.5361 394.0823 124.24333 401.51786 144.95055 408.95335 165.65778 416.38887 186.365 423.8244 207.07222 431.2599 227.77945 438.69544 248.48667 446.13096 269.1939 453.56645 289.90113 461.00199 310.60835 468.43748 331.31556 475.873 352.02278 483.30854 372.73 490.74403 393.43724 498.17955 414.14445 505.61506 434.85169 513.0506 455.5589 520.4861 476.2661 527.9216 496.97334 535.3571"/>
<path transform="matrix(1.00002,0,0,-1.00005,-71.37979,544.61038)" stroke-width=".3985" stroke-linecap="butt" stroke-miterlimit="10" stroke-linejoin="miter" fill="none" stroke="#a6a6a6" d="M0 624.5833 20.70721 609.7123 41.41444 594.84127 62.12166 579.9702 82.82889 565.0992 103.5361 550.22817 124.24333 535.3571 144.95055 520.4861 165.65778 505.61506 186.365 490.74403 207.07222 475.873 227.77945 461.00199 248.48667 446.13096 269.1939 431.2599 289.90113 416.38887 310.60835 401.51786 331.31556 386.6468 352.02278 371.77577 372.73 356.90476 393.43724 342.0337 414.14445 327.16267 434.85169 312.29167 455.5589 297.42063 476.2661 282.5496 496.97334 267.67857"/>
<path transform="matrix(1.00002,0,0,-1.00005,-71.37979,544.61038)" stroke-width=".3985" stroke-linecap="butt" stroke-miterlimit="10" stroke-linejoin="miter" fill="none" stroke="#a6a6a6" d="M0 386.6468 20.70721 394.0823 41.41444 401.51786 62.12166 408.95335 82.82889 416.38887 103.5361 423.8244 124.24333 431.2599 144.95055 438.69544 165.65778 446.13096 186.365 453.56645 207.07222 461.00199 227.77945 468.43748 248.48667 475.873 269.1939 483.30854 289.90113 490.74403 310.60835 498.17955 331.31556 505.61506 352.02278 513.0506 372.73 520.4861 393.43724 527.9216 414.14445 535.3571 434.85169 542.7926 455.5589 550.22817 476.2661 557.6637 496.97334 565.0992"/>
<path transform="matrix(1.00002,0,0,-1.00005,-71.37979,544.61038)" stroke-width=".3985" stroke-linecap="butt" stroke-miterlimit="10" stroke-linejoin="miter" fill="none" stroke="#a6a6a6" d="M0 654.3254 20.70721 639.45437 41.41444 624.5833 62.12166 609.7123 82.82889 594.84127 103.5361 579.9702 124.24333 565.0992 144.95055 550.22817 165.65778 535.3571 186.365 520.4861 207.07222 505.61506 227.77945 490.74403 248.48667 475.873 269.1939 461.00199 289.90113 446.13096 310.60835 431.2599 331.31556 416.38887 352.02278 401.51786 372.73 386.6468 393.43724 371.77577 414.14445 356.90476 434.85169 342.0337 455.5589 327.16267 476.2661 312.29167 496.97334 297.42063"/>
<path transform="matrix(1.00002,0,0,-1.00005,-71.37979,544.61038)" stroke-width=".3985" stroke-linecap="butt" stroke-miterlimit="10" stroke-linejoin="miter" fill="none" stroke="#a6a6a6" d="M0 416.38887 20.70721 423.8244 41.41444 431.2599 62.12166 438.69544 82.82889 446.13096 103.5361 453.56645 124.24333 461.00199 144.95055 468.43748 165.65778 475.873 186.365 483.30854 207.07222 490.74403 227.77945 498.17955 248.48667 505.61506 269.1939 513.0506 289.90113 520.4861 310.60835 527.9216 331.31556 535.3571 352.02278 542.7926 372.73 550.22817 393.43724 557.6637 414.14445 565.0992 434.85169 572.5347 455.5589 579.9702 476.2661 587.4057 496.97334 594.84127"/>
<path transform="matrix(1.00002,0,0,-1.00005,-71.37979,544.61038)" stroke-width=".3985" stroke-linecap="butt" stroke-miterlimit="10" stroke-linejoin="miter" fill="none" stroke="#a6a6a6" d="M0 684.06747 20.70721 669.1964 41.41444 654.3254 62.12166 639.45437 82.82889 624.5833 103.5361 609.7123 124.24333 594.84127 144.95055 579.9702 165.65778 565.0992 186.365 550.22817 207.07222 535.3571 227.77945 520.4861 248.48667 505.61506 269.1939 490.74403 289.90113 475.873 310.60835 461.00199 331.31556 446.13096 352.02278 431.2599 372.73 416.38887 393.43724 401.51786 414.14445 386.6468 434.85169 371.77577 455.5589 356.90476 476.2661 342.0337 496.97334 327.16267"/>
<path transform="matrix(1.00002,0,0,-1.00005,-71.37979,544.61038)" stroke-width=".3985" stroke-linecap="butt" stroke-miterlimit="10" stroke-linejoin="miter" fill="none" stroke="#a6a6a6" d="M0 446.13096 20.70721 453.56645 41.41444 461.00199 62.12166 468.43748 82.82889 475.873 103.5361 483.30854 124.24333 490.74403 144.95055 498.17955 165.65778 505.61506 186.365 513.0506 207.07222 520.4861 227.77945 527.9216 248.48667 535.3571 269.1939 542.7926 289.90113 550.22817 310.60835 557.6637 331.31556 565.0992 352.02278 572.5347 372.73 579.9702 393.43724 587.4057 414.14445 594.84127 434.85169 602.27676 455.5589 609.7123 476.2661 617.1478 496.97334 624.5833"/>
<path transform="matrix(1.00002,0,0,-1.00005,-71.37979,544.61038)" stroke-width=".3985" stroke-linecap="butt" stroke-miterlimit="10" stroke-linejoin="miter" fill="none" stroke="#a6a6a6" d="M0 713.8095 20.70721 698.9385 41.41444 684.06747 62.12166 669.1964 82.82889 654.3254 103.5361 639.45437 124.24333 624.5833 144.95055 609.7123 165.65778 594.84127 186.365 579.9702 207.07222 565.0992 227.77945 550.22817 248.48667 535.3571 269.1939 520.4861 289.90113 505.61506 310.60835 490.74403 331.31556 475.873 352.02278 461.00199 372.73 446.13096 393.43724 431.2599 414.14445 416.38887 434.85169 401.51786 455.5589 386.6468 476.2661 371.77577 496.97334 356.90476"/>
<path transform="matrix(1.00002,0,0,-1.00005,-71.37979,544.61038)" stroke-width=".3985" stroke-linecap="butt" stroke-miterlimit="10" stroke-linejoin="miter" fill="none" stroke="#a6a6a6" d="M0 475.873 20.70721 483.30854 41.41444 490.74403 62.12166 498.17955 82.82889 505.61506 103.5361 513.0506 124.24333 520.4861 144.95055 527.9216 165.65778 535.3571 186.365 542.7926 207.07222 550.22817 227.77945 557.6637 248.48667 565.0992 269.1939 572.5347 289.90113 579.9702 310.60835 587.4057 331.31556 594.84127 352.02278 602.27676 372.73 609.7123 393.43724 617.1478 414.14445 624.5833 434.85169 632.01889 455.5589 639.45437 476.2661 646.88986 496.97334 654.3254"/>
<path transform="matrix(1.00002,0,0,-1.00005,-71.37979,544.61038)" stroke-width=".3985" stroke-linecap="butt" stroke-miterlimit="10" stroke-linejoin="miter" fill="none" stroke="#a6a6a6" d="M0 743.5516 20.70721 728.68057 41.41444 713.8095 62.12166 698.9385 82.82889 684.06747 103.5361 669.1964 124.24333 654.3254 144.95055 639.45437 165.65778 624.5833 186.365 609.7123 207.07222 594.84127 227.77945 579.9702 248.48667 565.0992 269.1939 550.22817 289.90113 535.3571 310.60835 520.4861 331.31556 505.61506 352.02278 490.74403 372.73 475.873 393.43724 461.00199 414.14445 446.13096 434.85169 431.2599 455.5589 416.38887 476.2661 401.51786 496.97334 386.6468"/>
<path transform="matrix(1.00002,0,0,-1.00005,-71.37979,544.61038)" stroke-width=".3985" stroke-linecap="butt" stroke-miterlimit="10" stroke-linejoin="miter" fill="none" stroke="#a6a6a6" d="M0 505.61506 20.70721 513.0506 41.41444 520.4861 62.12166 527.9216 82.82889 535.3571 103.5361 542.7926 124.24333 550.22817 144.95055 557.6637 165.65778 565.0992 186.365 572.5347 207.07222 579.9702 227.77945 587.4057 248.48667 594.84127 269.1939 602.27676 289.90113 609.7123 310.60835 617.1478 331.31556 624.5833 352.02278 632.01889 372.73 639.45437 393.43724 646.88986 414.14445 654.3254 434.85169 661.76089 455.5589 669.1964 476.2661 676.6319 496.97334 684.06747"/>
<path transform="matrix(1.00002,0,0,-1.00005,-71.37979,544.61038)" stroke-width=".3985" stroke-linecap="butt" stroke-miterlimit="10" stroke-linejoin="miter" fill="none" stroke="#a6a6a6" d="M0 773.29367 20.70721 758.4226 41.41444 743.5516 62.12166 728.68057 82.82889 713.8095 103.5361 698.9385 124.24333 684.06747 144.95055 669.1964 165.65778 654.3254 186.365 639.45437 207.07222 624.5833 227.77945 609.7123 248.48667 594.84127 269.1939 579.9702 289.90113 565.0992 310.60835 550.22817 331.31556 535.3571 352.02278 520.4861 372.73 505.61506 393.43724 490.74403 414.14445 475.873 434.85169 461.00199 455.5589 446.13096 476.2661 431.2599 496.97334 416.38887"/>
<path transform="matrix(1.00002,0,0,-1.00005,-71.37979,544.61038)" stroke-width=".3985" stroke-linecap="butt" stroke-miterlimit="10" stroke-linejoin="miter" fill="none" stroke="#a6a6a6" d="M0 535.3571 20.70721 542.7926 41.41444 550.22817 62.12166 557.6637 82.82889 565.0992 103.5361 572.5347 124.24333 579.9702 144.95055 587.4057 165.65778 594.84127 186.365 602.27676 207.07222 609.7123 227.77945 617.1478 248.48667 624.5833 269.1939 632.01889 289.90113 639.45437 310.60835 646.88986 331.31556 654.3254 352.02278 661.76089 372.73 669.1964 393.43724 676.6319 414.14445 684.06747 434.85169 691.5029 455.5589 698.9385 476.2661 706.37399 496.97334 713.8095"/>
<path transform="matrix(1.00002,0,0,-1.00005,-71.37979,544.61038)" stroke-width=".3985" stroke-linecap="butt" stroke-miterlimit="10" stroke-linejoin="miter" fill="none" stroke="#a6a6a6" d="M0 803.0357 20.70721 788.1647 41.41444 773.29367 62.12166 758.4226 82.82889 743.5516 103.5361 728.68057 124.24333 713.8095 144.95055 698.9385 165.65778 684.06747 186.365 669.1964 207.07222 654.3254 227.77945 639.45437 248.48667 624.5833 269.1939 609.7123 289.90113 594.84127 310.60835 579.9702 331.31556 565.0992 352.02278 550.22817 372.73 535.3571 393.43724 520.4861 414.14445 505.61506 434.85169 490.74403 455.5589 475.873 476.2661 461.00199 496.97334 446.13096"/>
<path transform="matrix(1.00002,0,0,-1.00005,-71.37979,544.61038)" stroke-width=".3985" stroke-linecap="butt" stroke-miterlimit="10" stroke-linejoin="miter" fill="none" stroke="#a6a6a6" d="M0 565.0992 20.70721 572.5347 41.41444 579.9702 62.12166 587.4057 82.82889 594.84127 103.5361 602.27676 124.24333 609.7123 144.95055 617.1478 165.65778 624.5833 186.365 632.01889 207.07222 639.45437 227.77945 646.88986 248.48667 654.3254 269.1939 661.76089 289.90113 669.1964 310.60835 676.6319 331.31556 684.06747 352.02278 691.5029 372.73 698.9385 393.43724 706.37399 414.14445 713.8095 434.85169 721.245 455.5589 728.68057 476.2661 736.116 496.97334 743.5516"/>
<path transform="matrix(1.00002,0,0,-1.00005,-71.37979,544.61038)" stroke-width=".3985" stroke-linecap="butt" stroke-miterlimit="10" stroke-linejoin="miter" fill="none" stroke="#a6a6a6" d="M0 832.7777 20.70721 817.90676 41.41444 803.0357 62.12166 788.1647 82.82889 773.29367 103.5361 758.4226 124.24333 743.5516 144.95055 728.68057 165.65778 713.8095 186.365 698.9385 207.07222 684.06747 227.77945 669.1964 248.48667 654.3254 269.1939 639.45437 289.90113 624.5833 310.60835 609.7123 331.31556 594.84127 352.02278 579.9702 372.73 565.0992 393.43724 550.22817 414.14445 535.3571 434.85169 520.4861 455.5589 505.61506 476.2661 490.74403 496.97334 475.873"/>
<path transform="matrix(1.00002,0,0,-1.00005,-71.37979,544.61038)" stroke-width="1.19553" stroke-linecap="butt" stroke-miterlimit="10" stroke-linejoin="miter" fill="none" stroke="#0000ff" d="M248.48667 416.38887V460.04557"/>
<path transform="matrix(0,-1.00005,-1.00002,-0,177.11185,84.54181)" stroke-width=".9564" stroke-linecap="round" stroke-linejoin="round" fill="none" stroke="#0000ff" d="M-1.91284 2.55046C-1.75343 1.59402 0 .15938 .4782 0 0-.15938-1.75343-1.59402-1.91284-2.55046"/>
<path transform="matrix(1.00002,0,0,-1.00005,-71.37979,544.61038)" d="M251.06946 437.11445H258.32823V446.22483H251.06946Z" fill="#ffffff"/>
<use data-text="&#x20d7;" xlink:href="#font_4_5" transform="matrix(9.962799,0,0,-9.963098,180.06725,106.47748)"/>
<use data-text="a" xlink:href="#font_4_1" transform="matrix(9.962799,0,0,-9.963098,180.6949,106.47748)"/>
<path transform="matrix(1.00002,0,0,-1.00005,-71.37979,544.61038)" stroke-width="1.19553" stroke-linecap="butt" stroke-miterlimit="10" stroke-linejoin="miter" fill="none" stroke="#ff0000" d="M248.48667 416.38887 166.59909 431.09095"/>
<path transform="matrix(-.98423978,-.17668882,-.17668353,.9842692,95.22264,113.497898)" stroke-width=".9564" stroke-linecap="round" stroke-linejoin="round" fill="none" stroke="#ff0000" d="M-1.91284 2.55046C-1.75343 1.59402 0 .15938 .4782 0 0-.15938-1.75343-1.59402-1.91284-2.55046"/>
<path transform="matrix(1.00002,0,0,-1.00005,-71.37979,544.61038)" d="M197.72594 419.44178H203.99416V431.1812H197.72594Z" fill="#ffffff"/>
<use data-text="&#x20d7;" xlink:href="#font_4_5" transform="matrix(9.962799,0,0,-9.963098,126.22717,121.52228)"/>
<use data-text="b" xlink:href="#font_4_2" transform="matrix(9.962799,0,0,-9.963098,127.34619,124.15143)"/>
<path transform="matrix(1.00002,0,0,-1.00005,-71.37979,544.61038)" stroke-width="1.19553" stroke-linecap="butt" stroke-miterlimit="10" stroke-linejoin="miter" fill="none" stroke="#009900" d="M248.48667 416.38887 371.95323 505.0572"/>
<path transform="matrix(.8122163,-.5833092,-.5832917,-.8122406,300.58085,39.527925)" stroke-width=".9564" stroke-linecap="round" stroke-linejoin="round" fill="none" stroke="#009900" d="M-1.91284 2.55046C-1.75343 1.59402 0 .15938 .4782 0 0-.15938-1.75343-1.59402-1.91284-2.55046"/>
<path transform="matrix(1.00002,0,0,-1.00005,-71.37979,544.61038)" d="M321.9514 459.42097H328.25538V468.53135H321.9514Z" fill="#ffffff"/>
<use data-text="&#x20d7;" xlink:href="#font_4_5" transform="matrix(9.962799,0,0,-9.963098,251.02667,84.17035)"/>
<use data-text="c" xlink:href="#font_4_3" transform="matrix(9.962799,0,0,-9.963098,251.57462,84.17035)"/>
</g>
<use data-text="x" xlink:href="#font_4_4" transform="matrix(9.962799,0,0,-9.963098,339.53749,123.09131)"/>
<use data-text="1" xlink:href="#font_5_1" transform="matrix(6.97394,0,0,-6.9741489,345.23158,124.586429)"/>
<use data-text="x" xlink:href="#font_4_4" transform="matrix(9.962799,0,0,-9.963098,180.67926,9.501648)"/>
<use data-text="2" xlink:href="#font_5_2" transform="matrix(6.97394,0,0,-6.9741489,186.37339,10.996765)"/>
</svg>
